<?xml version="1.0" encoding="UTF-8"?>
<svg xmlns="http://www.w3.org/2000/svg" xmlns:xlink="http://www.w3.org/1999/xlink" width="2278" height="3481" viewBox="0 0 2278 3481">
<path fill-rule="evenodd" fill="rgb(0%, 0%, 0%)" fill-opacity="1" d="M 562.566406 700.828125 C 560.039062 702.53125 563.445312 689.328125 563.585938 688.558594 C 565.660156 677.179688 567.6875 665.789062 569.90625 654.429688 C 575.851562 624.019531 581.796875 593.371094 589.042969 563.25 C 601.84375 510.050781 663.835938 273.25 738.582031 279.550781 C 753.300781 280.789062 824.828125 332.628906 821.015625 345.601562 C 819.515625 350.691406 784.835938 342.910156 780.359375 342.851562 C 762.011719 342.578125 745.355469 355.019531 734.828125 369.109375 C 702.019531 413.050781 654.199219 692.410156 690.613281 730.171875 C 697.375 737.191406 707.425781 728.96875 712.191406 723.921875 C 736.226562 698.410156 881.417969 520.179688 914.640625 545.300781 C 959.375 579.121094 926.730469 676.859375 907.261719 713.851562 C 875.933594 773.371094 816.136719 778.828125 791.683594 819.980469 C 761.351562 871.03125 768.742188 954.421875 758.261719 1012.050781 C 753.203125 1039.878906 695.339844 1231.011719 696.492188 1238.578125 C 702.324219 1276.949219 869.742188 1264.269531 894.332031 1268.828125 C 940.039062 1277.308594 1004.71875 1293.289062 1061.371094 1306.429688 C 1143.441406 1325.460938 1380.230469 1339.578125 1490.328125 1344.191406 C 1531.441406 1345.910156 1573.171875 1361.960938 1611.53125 1376.898438 C 1636.238281 1386.519531 1657.109375 1400.191406 1683.261719 1407.179688 C 1741.929688 1422.859375 1796.339844 1416.949219 1850.960938 1448.828125 C 1901.929688 1497.671875 1937.320312 1564.589844 1984.289062 1615.960938 C 2017.519531 1652.308594 2098.078125 1721.96875 2111.890625 1764.671875 C 2125.140625 1805.628906 2106.039062 1837.96875 2103.121094 1877.640625 C 2100.488281 1913.359375 2113.511719 1949.898438 2120.191406 1984.570312 C 2134.71875 2060.03125 2126.488281 2098.949219 2121.28125 2173.460938 C 2120.871094 2179.230469 2118.820312 2237.179688 2116.628906 2238.828125 C 2111.308594 2242.808594 2113.589844 2225.890625 2112.328125 2219.371094 C 2109.671875 2205.601562 2106.539062 2191.980469 2103.160156 2178.371094 C 2091.851562 2132.691406 2070.648438 2092.570312 2054.648438 2048.761719 C 2049.359375 2034.28125 2044.058594 2019.769531 2039.011719 2005.199219 C 2038.449219 2003.589844 2031.628906 1979.339844 2028.03125 1982.269531 C 2017.140625 1991.121094 2017.679688 2027.929688 2016.558594 2040.46875 C 2011.019531 2102.460938 2024.039062 2160.210938 2030.519531 2222.769531 C 2032.921875 2245.949219 2038.050781 2314.570312 2040.070312 2321.890625 C 2053.46875 2370.390625 2105.648438 2470.148438 2105.089844 2587.894531 C 2104.621094 2684.800781 2088.558594 2773.996094 2086.640625 2877.402344 C 2086.238281 2898.808594 2090.761719 2956.273438 2102.171875 2994.324219 C 2113.78125 3033.027344 2121.101562 3054.144531 2110.160156 3068.953125 C 2097.230469 3086.460938 2066.941406 3087.988281 2052.328125 3085.171875 C 2037.691406 3082.351562 2023.710938 3076.789062 2018.121094 3064.207031 C 2011.660156 3049.648438 2019.109375 3011.96875 2020.238281 2982.886719 C 2024.058594 2885.15625 2018.679688 2820.746094 2013 2729.179688 C 2006.910156 2630.867188 1951.28125 2485.535156 1911.351562 2396.941406 C 1895.359375 2361.460938 1882.488281 2336.96875 1865.511719 2302.671875 C 1857.039062 2285.578125 1849.25 2259 1845.050781 2240.46875 C 1844.828125 2239.5 1844.429688 2235.25 1843.089844 2234.980469 C 1842.46875 2234.859375 1841.851562 2235.789062 1841.570312 2236.179688 C 1832.261719 2249.210938 1829 2267.589844 1822.578125 2282.148438 C 1809.199219 2312.480469 1791.601562 2340.660156 1771.558594 2367 C 1740.148438 2408.300781 1755.03125 2425.75 1764.410156 2473.089844 C 1769.671875 2499.605469 1771.71875 2527.269531 1771.269531 2554.273438 C 1770.109375 2624.210938 1746.460938 2692.820312 1733.839844 2761.117188 C 1724.671875 2810.792969 1723.558594 2859.617188 1727.808594 2909.800781 C 1732.699219 2967.480469 1771.429688 3112.285156 1760.109375 3129.097656 C 1749.070312 3145.507812 1721.058594 3150.566406 1699.808594 3150.3125 C 1662.320312 3149.859375 1626.941406 3141.457031 1621.78125 3115.273438 C 1616.039062 3086.183594 1635.308594 2990.492188 1635.308594 2961.191406 C 1635.308594 2791.5625 1631.828125 2628.523438 1600.269531 2461.03125 C 1594.421875 2429.960938 1571.421875 2263.25 1558.148438 2264.730469 C 1535.128906 2267.300781 1465.351562 2277.539062 1444.019531 2280.359375 C 1376.53125 2289.289062 1323 2289.480469 1255.058594 2286.519531 C 1207.648438 2284.460938 1159.328125 2280.269531 1114.230469 2268.261719 C 1093.949219 2262.859375 1047.761719 2243.691406 1046.960938 2245.871094 C 1041.320312 2261.308594 1036.058594 2306.761719 1033.179688 2325.039062 C 1023.070312 2389.429688 1010.171875 2453 1002.28125 2517.886719 C 999.011719 2544.757812 995.980469 2571.660156 992.519531 2598.507812 C 991.308594 2607.894531 985.867188 2626.890625 984.746094 2636.285156 C 973.894531 2701.398438 972.417969 2765.632812 977.957031 2831.433594 C 979.804688 2853.363281 974.351562 2892.707031 979.164062 2923.121094 C 983.847656 2952.714844 993.382812 2974.617188 985.128906 2994.617188 C 975.898438 3016.980469 956.191406 3015.679688 936.363281 3016.054688 C 910.921875 3016.539062 884.984375 3012.210938 877.59375 2983.636719 C 862.449219 2925.074219 890.417969 2847.625 891.175781 2787.15625 C 891.960938 2724.21875 873.027344 2659.566406 869.21875 2597.074219 C 864.726562 2523.457031 876.652344 2454.179688 875.121094 2380.621094 C 874.4375 2347.769531 856.097656 2216.621094 830.347656 2198.921875 C 810.679688 2185.390625 772.464844 2191.171875 750.496094 2195.238281 C 742.46875 2196.730469 715.898438 2349.621094 713.648438 2372.128906 C 697.371094 2534.90625 674.015625 2734.953125 656.480469 2898.019531 C 651.558594 2943.816406 677.46875 2969.460938 634.34375 2985.855469 C 619.875 2991.355469 591.664062 2998.367188 565.078125 2986.320312 C 523.101562 2967.300781 529.84375 2952.292969 547.1875 2903.136719 C 557.589844 2873.644531 576.503906 2822.882812 580.546875 2805.316406 C 605.820312 2695.53125 590.050781 2349.710938 556.210938 2226.011719 C 549.855469 2202.78125 542.175781 2175.390625 528.179688 2159.789062 C 511.480469 2141.171875 488.808594 2134.988281 474.390625 2112.28125 C 445.082031 2066.121094 427.15625 2024.519531 406.277344 1973.308594 C 393.398438 1941.71875 384.972656 1906.390625 378.1875 1873.011719 C 376.117188 1862.808594 370.492188 1818.589844 370.214844 1824.898438 C 358.71875 1724.699219 388.441406 1690.148438 399.296875 1599.429688 C 411.40625 1498.238281 405.464844 1392.238281 413.390625 1290.941406 C 416.074219 1256.628906 420.789062 1226.859375 420.789062 1192.839844 C 420.789062 1173.550781 412.839844 1146.769531 408.449219 1127.929688 C 397.640625 1081.511719 395.273438 1032.878906 385.421875 986.089844 C 378.566406 953.53125 369.953125 917.230469 347.953125 891.070312 C 282.300781 813.03125 174.980469 787.878906 152.476562 670.070312 C 149.285156 653.359375 146.660156 631.921875 157.160156 617.140625 C 199.273438 557.871094 360.722656 781.871094 392.21875 746.019531 C 437.992188 693.941406 373.820312 441.160156 332.683594 397.089844 C 317.867188 381.21875 296.605469 375.261719 275.332031 377.78125 C 271.746094 378.210938 243.53125 385.851562 241.78125 381.179688 C 227.785156 343.859375 316.539062 301.761719 344.554688 301.761719 C 462.902344 301.761719 496.210938 505.410156 511.546875 589.359375 C 514.578125 605.960938 544.550781 701.421875 561.535156 705.859375 "/>
</svg>
