<?xml version="1.0" standalone="no"?>
<!DOCTYPE svg PUBLIC "-//W3C//DTD SVG 20010904//EN"
 "http://www.w3.org/TR/2001/REC-SVG-20010904/DTD/svg10.dtd">
<svg version="1.0" xmlns="http://www.w3.org/2000/svg"
 width="1280.000000pt" height="917.000000pt" viewBox="0 0 1280.000000 917.000000"
 preserveAspectRatio="xMidYMid meet">
<metadata>
Created by potrace 1.15, written by Peter Selinger 2001-2017
</metadata>
<g transform="translate(0.000000,917.000000) scale(0.100000,-0.100000)"
fill="#000000" stroke="none">
<path d="M7018 7250 c-23 -27 -43 -54 -43 -59 0 -5 -11 -22 -25 -38 -14 -15
-23 -32 -22 -37 2 -5 -6 -18 -16 -30 -19 -22 -40 -81 -45 -127 -1 -15 -8 -33
-14 -40 -6 -8 -13 -23 -15 -34 -3 -17 -10 -20 -54 -17 -38 2 -56 -2 -74 -16
-27 -22 -22 -52 8 -52 11 0 36 -13 57 -30 21 -16 41 -30 46 -30 23 0 39 -33
33 -68 -5 -30 -2 -41 15 -56 12 -11 21 -25 21 -31 0 -7 21 -29 48 -50 45 -35
50 -37 110 -33 64 4 91 20 72 44 -6 6 -7 14 -4 17 4 4 0 17 -8 29 -8 13 -17
42 -20 65 -6 42 -6 43 20 37 15 -4 49 -16 76 -26 l50 -19 18 23 c22 28 25 120
4 137 -9 7 -49 10 -117 7 -88 -3 -117 0 -186 20 -97 29 -113 44 -48 44 31 0
61 -8 91 -25 57 -32 72 -31 85 3 6 15 9 27 8 27 -1 0 3 9 9 21 6 12 16 50 21
85 6 35 17 69 26 75 8 6 12 13 10 16 -3 3 0 29 6 59 26 137 19 159 -56 159
-39 0 -47 -4 -87 -50z m-61 -235 l28 -24 -32 9 c-40 10 -53 18 -53 31 0 17 29
9 57 -16z"/>
<path d="M5630 7074 c-19 -9 -42 -20 -50 -25 -8 -5 -22 -12 -30 -16 -24 -10
-101 -73 -147 -120 -42 -43 -69 -102 -59 -128 7 -19 -14 -77 -33 -92 -9 -7
-42 -13 -74 -13 -38 0 -64 -5 -73 -15 -17 -16 -11 -35 11 -35 8 0 35 -11 61
-25 26 -14 53 -25 60 -25 7 0 46 -33 88 -74 41 -41 90 -85 108 -99 47 -35 137
-81 144 -74 3 3 -5 21 -19 39 -22 29 -67 130 -67 151 0 12 22 8 66 -13 23 -12
58 -24 77 -27 29 -4 37 -2 47 16 6 12 8 35 5 52 -7 31 -32 41 -170 69 -85 16
-138 32 -150 43 -10 10 69 4 114 -9 20 -6 22 -4 17 14 -4 12 -2 30 3 41 6 10
12 34 15 54 2 19 9 44 15 56 6 11 16 31 22 42 6 12 19 37 30 56 10 18 19 38
19 44 0 6 11 25 25 43 28 36 31 56 13 74 -16 16 -26 15 -68 -4z"/>
<path d="M3686 6504 c-37 -37 -8 -301 43 -385 42 -69 46 -94 15 -107 -14 -7
-49 -12 -78 -12 -41 0 -57 -5 -72 -21 -16 -17 -16 -22 -4 -29 8 -6 23 -10 32
-10 28 0 148 -63 148 -77 0 -7 -5 -13 -11 -13 -6 0 -9 -9 -6 -20 3 -11 2 -20
-2 -20 -27 0 -78 -199 -87 -335 -7 -98 -5 -109 11 -121 11 -8 31 -14 45 -14
32 0 80 21 80 35 0 6 19 30 43 54 33 33 43 52 42 73 -1 15 2 28 6 28 4 0 17
21 29 48 13 26 26 55 31 64 5 10 9 27 9 37 0 11 7 24 16 29 13 7 16 22 12 76
-5 81 2 83 87 26 73 -48 95 -51 95 -12 0 15 4 32 9 38 13 14 21 84 10 84 -6 0
-7 5 -3 11 3 6 -2 28 -11 50 -16 34 -22 39 -51 39 -18 0 -34 -4 -36 -10 -1 -5
-29 -15 -61 -21 -62 -11 -102 -7 -54 6 26 7 28 11 23 38 -3 16 -6 40 -6 53 0
12 -8 30 -17 40 -10 10 -16 18 -14 18 2 1 -2 21 -9 44 -15 56 -61 148 -114
224 -22 34 -45 68 -51 77 -5 9 -14 19 -20 23 -17 13 -63 9 -79 -8z"/>
<path d="M2633 6248 c3 -18 8 -42 12 -52 14 -33 -19 -47 -92 -40 -53 6 -67 4
-83 -11 -29 -26 -25 -45 10 -45 16 0 46 -10 67 -22 21 -12 50 -27 64 -35 40
-20 55 -41 35 -49 -22 -8 -21 -59 2 -82 9 -9 22 -28 28 -42 17 -36 127 -153
183 -194 68 -50 81 -48 81 13 0 28 -4 52 -9 55 -4 3 -14 27 -21 53 -7 27 -19
63 -28 80 -9 22 -12 42 -7 60 5 16 9 35 9 43 1 22 41 24 100 6 78 -23 111 -25
110 -3 -1 9 2 17 7 17 16 0 10 21 -17 56 -25 33 -29 34 -93 34 -80 0 -114 8
-107 26 3 7 -2 18 -10 24 -27 23 -15 33 31 27 25 -4 45 -3 45 2 0 14 -48 41
-74 41 -13 0 -55 13 -92 29 -38 16 -88 32 -112 36 l-43 7 4 -34z"/>
<path d="M10016 5921 c-10 -11 -19 -36 -21 -55 -2 -19 -7 -40 -10 -46 -11 -17
-8 -246 3 -267 5 -10 15 -42 21 -72 11 -50 10 -56 -11 -78 -15 -16 -33 -23
-58 -23 -22 0 -46 -8 -60 -20 l-22 -19 23 -10 c135 -52 144 -58 146 -98 1 -21
-4 -63 -12 -94 -11 -43 -11 -73 -4 -130 11 -76 16 -110 19 -119 2 -3 2 -9 1
-14 -1 -4 5 -19 14 -32 8 -13 15 -32 15 -43 0 -31 48 -52 83 -37 16 6 28 13
27 16 -1 3 3 18 9 33 6 16 11 31 11 35 0 3 9 15 19 26 15 16 21 42 26 110 4
49 11 99 15 112 5 12 7 50 6 84 -2 41 1 63 9 66 6 3 40 -11 73 -32 63 -37 92
-39 92 -6 0 11 7 25 15 32 20 16 19 51 -2 117 -20 62 -43 75 -97 49 -19 -9
-41 -16 -49 -16 -8 0 -20 -7 -27 -15 -7 -8 -25 -15 -40 -15 -15 0 -33 7 -40
15 -11 13 -7 15 29 15 36 0 41 3 41 23 0 13 -3 27 -7 31 -4 4 -8 20 -9 36 -1
16 -5 37 -9 47 -11 24 -10 22 -19 68 -4 22 -14 62 -22 88 -7 27 -13 52 -12 55
3 11 -33 80 -48 93 -8 6 -14 20 -14 31 0 23 -52 78 -73 78 -8 0 -22 -9 -31
-19z"/>
<path d="M2522 5802 c-9 -20 -20 -38 -24 -40 -5 -2 -8 -9 -8 -17 0 -7 -6 -18
-14 -24 -8 -7 -17 -24 -21 -38 -5 -20 0 -33 24 -57 24 -25 28 -35 19 -44 -15
-15 -80 -16 -95 -1 -9 9 -18 8 -37 -5 -30 -19 -34 -44 -8 -52 42 -15 122 -56
122 -65 0 -5 -12 -9 -26 -9 -27 0 -87 -41 -136 -92 -33 -35 -45 -75 -29 -97
26 -36 30 -58 16 -97 l-13 -39 -65 0 c-64 0 -97 -14 -97 -40 0 -8 15 -16 33
-20 17 -3 60 -18 95 -32 68 -28 73 -38 41 -88 -39 -62 -42 -76 -26 -140 17
-67 79 -221 96 -238 6 -6 11 -16 11 -22 0 -20 36 -46 54 -39 9 3 16 10 16 15
0 5 7 9 16 9 12 0 15 6 10 24 -3 14 -1 26 5 28 6 2 12 16 12 31 0 15 4 24 10
20 6 -4 7 7 3 31 -4 23 -3 43 4 51 6 7 10 17 9 21 -1 5 -1 35 0 67 1 42 4 56
13 51 8 -5 9 -2 5 9 -3 9 -2 19 4 23 5 3 9 13 7 22 -1 10 1 23 6 30 4 7 2 19
-5 28 -21 25 -2 28 102 17 56 -6 107 -9 114 -7 7 3 12 21 11 42 -1 35 -3 37
-48 48 -25 7 -81 14 -125 17 -43 3 -79 6 -80 6 -10 3 0 22 10 20 33 -4 47 2
47 21 0 11 3 20 8 20 15 0 44 68 44 104 0 20 4 33 9 30 5 -3 14 8 20 23 7 15
18 42 25 60 8 17 14 39 14 48 0 16 8 17 70 12 39 -3 86 -12 106 -19 25 -9 40
-9 51 -2 43 27 18 48 -74 65 -31 6 -76 20 -99 30 -38 18 -43 25 -49 65 -4 27
-11 44 -20 44 -17 0 -24 20 -15 44 4 12 -2 38 -17 68 -13 26 -23 54 -23 62 0
16 -34 40 -68 49 -19 4 -26 -1 -40 -31z"/>
<path d="M8343 5818 c-11 -13 -37 -51 -57 -86 -30 -49 -36 -69 -31 -90 14 -56
14 -66 -3 -78 -9 -7 -38 -14 -63 -14 -32 0 -51 -6 -63 -19 -20 -22 -14 -41 12
-41 13 0 105 -42 120 -55 2 -2 -8 -29 -21 -61 -23 -59 -32 -120 -30 -204 1
-25 2 -71 3 -102 0 -32 5 -60 11 -63 5 -4 9 -15 9 -25 0 -32 35 -43 75 -24 19
9 35 23 35 30 0 8 5 14 10 14 6 0 10 7 10 15 0 9 9 28 19 43 11 15 29 67 41
115 12 49 28 105 37 124 8 20 13 54 11 77 -4 53 11 56 101 17 83 -37 103 -38
116 -8 24 50 -15 107 -72 108 -60 1 -162 26 -138 34 25 7 30 41 11 71 -8 11
-12 32 -9 46 6 33 -30 141 -56 167 -31 31 -55 34 -78 9z"/>
<path d="M3122 5658 c-7 -7 -12 -19 -12 -28 0 -8 -9 -40 -20 -70 -25 -69 -34
-159 -23 -230 5 -31 8 -61 5 -68 -2 -8 -29 -12 -77 -12 -66 0 -76 -3 -86 -21
-13 -25 1 -39 37 -39 11 0 41 -16 66 -36 34 -26 45 -40 41 -55 -3 -10 -9 -19
-13 -19 -9 0 -43 -86 -60 -151 -8 -32 -25 -59 -51 -84 -45 -42 -48 -57 -16
-78 33 -22 16 -30 -62 -29 -53 1 -74 -3 -92 -17 -28 -23 -18 -41 24 -41 18 0
53 -14 81 -31 47 -29 49 -32 31 -45 -10 -8 -22 -14 -27 -14 -4 0 -8 -7 -8 -15
0 -9 -6 -18 -14 -21 -19 -7 -29 -57 -41 -204 -3 -41 -7 -96 -10 -122 -3 -46
-3 -47 28 -53 19 -4 47 0 68 9 20 8 39 13 41 11 3 -3 11 7 19 22 8 16 27 40
43 55 17 16 29 36 29 53 0 14 2 23 5 20 8 -7 44 54 37 65 -3 4 2 11 11 14 9 4
14 13 10 21 -3 9 0 15 9 15 8 0 15 7 15 15 0 8 4 15 9 15 4 0 8 19 7 43 -1 42
-1 42 32 39 19 -1 52 -11 74 -22 65 -31 101 -35 121 -12 16 17 16 21 2 32 -8
7 -15 21 -15 31 0 22 -29 39 -65 39 -31 0 -135 29 -135 37 0 3 8 11 17 18 13
10 14 16 6 26 -5 8 -13 26 -15 42 -4 20 -1 27 11 27 22 0 41 19 41 42 0 10 5
18 11 18 7 0 9 11 6 27 -3 18 1 31 14 42 10 9 19 32 21 51 2 19 8 38 13 42 7
5 6 14 -2 26 -6 11 -8 24 -3 33 11 17 59 1 132 -44 49 -31 50 -31 65 -12 13
18 11 74 -3 96 -2 3 -36 14 -76 24 -81 19 -128 40 -128 56 0 6 6 9 13 6 36
-14 45 31 33 158 -5 57 -51 207 -81 265 -8 16 -29 33 -46 39 -38 13 -33 13
-47 -1z"/>
<path d="M5575 5523 c-14 -21 -25 -44 -25 -53 0 -8 -7 -24 -15 -34 -8 -11 -15
-30 -15 -43 0 -12 -10 -42 -22 -65 -21 -38 -23 -59 -25 -191 -1 -81 -5 -152
-8 -157 -3 -6 -30 -10 -59 -10 -41 0 -57 -5 -72 -21 -16 -17 -16 -22 -4 -29 8
-6 20 -10 26 -10 19 0 123 -50 131 -63 3 -6 1 -13 -5 -15 -20 -6 -13 -54 16
-112 34 -67 60 -76 150 -48 48 15 64 26 76 49 21 42 29 86 17 94 -26 15 -9 27
32 21 23 -3 74 -9 113 -12 61 -6 72 -4 77 11 4 9 4 22 0 28 -4 7 -8 16 -8 21
0 10 -9 12 -95 27 -30 5 -68 12 -85 15 -16 4 -54 9 -83 13 -58 7 -68 28 -10
23 21 -2 39 2 44 9 10 17 14 279 4 279 -5 0 -7 16 -5 36 1 20 -3 58 -10 83 -6
25 -11 62 -9 81 2 25 -5 44 -28 72 -39 50 -69 50 -103 1z"/>
<path d="M6338 4212 c-18 -15 -59 -53 -91 -86 -53 -53 -58 -62 -53 -90 4 -17
8 -54 10 -83 4 -60 0 -63 -81 -68 -54 -3 -83 -21 -83 -49 0 -11 9 -16 28 -16
15 0 52 -13 82 -28 85 -42 82 -39 65 -73 -9 -16 -13 -34 -10 -39 3 -5 1 -11
-4 -15 -17 -10 2 -178 22 -203 5 -7 11 -26 13 -42 2 -16 22 -68 45 -115 38
-78 44 -85 71 -85 24 0 29 4 24 16 -4 12 -2 15 9 10 10 -3 15 1 15 14 0 10 4
21 8 24 5 3 10 24 11 48 4 52 8 93 10 93 1 0 4 38 7 84 2 46 12 97 20 114 11
20 14 43 10 69 -6 34 -4 38 15 38 12 0 57 -10 101 -22 l80 -22 18 24 c25 33
31 81 14 101 -8 8 -14 21 -14 27 0 19 -39 24 -150 17 -79 -6 -110 -4 -110 4 0
6 14 11 30 11 35 0 40 22 13 53 -13 14 -17 34 -16 75 1 31 -3 62 -9 69 -8 9
-7 13 2 13 10 0 10 3 1 14 -7 8 -9 25 -6 38 4 17 0 29 -14 42 -11 10 -19 21
-17 25 1 3 -5 14 -15 23 -17 16 -20 16 -51 -10z"/>
<path d="M11171 3470 c-13 -11 -29 -20 -37 -20 -19 0 -18 -16 1 -24 19 -7 19
-40 1 -55 -8 -6 -40 -16 -71 -21 -35 -6 -63 -16 -71 -27 -19 -26 -17 -32 14
-39 15 -4 53 -20 85 -36 65 -33 67 -41 19 -111 -23 -35 -26 -47 -25 -125 3
-160 32 -332 57 -332 32 0 77 33 83 61 3 16 9 29 13 29 4 0 14 20 21 45 7 25
17 45 21 45 4 0 8 9 8 19 0 11 4 22 10 26 5 3 7 12 4 19 -3 8 -1 17 5 21 6 3
11 18 11 32 0 14 9 41 21 59 11 19 17 34 12 34 -4 0 -1 6 7 13 16 13 19 22 28
81 l5 38 46 -5 c25 -3 68 -15 96 -27 67 -29 90 -22 93 27 3 62 -21 82 -108 94
-136 17 -146 20 -127 30 9 6 17 14 17 19 0 5 -24 33 -54 64 -38 38 -67 58 -96
66 -23 6 -47 13 -53 15 -7 3 -23 -4 -36 -15z"/>
<path d="M5527 3155 c-32 -19 -61 -35 -66 -35 -10 0 -139 -128 -159 -158 -14
-22 -31 -105 -33 -165 0 -9 -4 -15 -9 -12 -5 3 -11 1 -15 -5 -3 -5 -25 -10
-48 -10 -49 0 -92 -19 -92 -40 0 -8 9 -16 20 -19 11 -2 39 -15 63 -28 40 -24
43 -28 36 -57 -4 -17 -7 -38 -7 -46 0 -31 -19 -40 -87 -40 -54 0 -70 -4 -85
-20 -17 -19 -17 -20 1 -26 20 -7 59 -23 159 -67 74 -32 86 -35 155 -41 35 -3
83 -17 131 -40 42 -20 80 -36 84 -36 14 0 -18 31 -47 46 -48 25 -21 34 39 13
69 -23 102 -24 110 -2 8 22 -40 63 -74 63 -14 0 -56 9 -92 19 -36 11 -85 22
-109 26 -26 4 -41 12 -39 18 4 13 38 15 80 4 28 -8 29 -7 26 30 -4 45 6 46 89
7 71 -33 80 -30 43 11 -37 42 -40 60 -8 51 12 -4 39 -10 60 -13 33 -5 37 -3
37 15 0 11 4 23 9 27 12 7 4 54 -15 83 -12 19 -23 22 -74 22 -60 0 -84 16 -33
22 20 2 27 9 30 30 3 23 -3 32 -29 47 -60 36 -61 37 -33 87 14 25 25 56 25 70
0 39 26 92 60 120 37 31 38 57 5 72 -37 17 -44 16 -108 -23z m-84 -403 c26 -9
47 -20 47 -24 0 -22 -150 16 -158 40 -4 14 41 8 111 -16z"/>
<path d="M3099 3138 c-19 -15 -42 -125 -40 -186 1 -23 13 -63 26 -89 38 -70
34 -83 -22 -84 -27 -1 -52 -1 -57 0 -13 2 -36 -20 -36 -34 0 -8 13 -16 29 -20
17 -3 47 -20 67 -36 20 -16 41 -29 45 -29 11 0 7 -29 -9 -57 -22 -40 -16 -234
8 -299 5 -13 7 -24 3 -24 -20 0 35 -41 62 -46 39 -7 66 6 82 38 29 58 51 116
58 153 4 22 11 45 17 52 5 7 11 42 11 78 2 62 3 65 27 65 14 0 53 -10 86 -21
77 -27 95 -22 92 27 -3 40 -28 64 -68 64 -39 0 -162 28 -173 39 -7 7 -1 12 17
17 34 8 34 37 0 87 -14 21 -23 45 -20 52 3 8 -1 21 -9 28 -7 8 -21 31 -30 53
-9 21 -19 41 -24 44 -4 3 -18 27 -30 54 -12 27 -24 47 -27 44 -3 -3 -17 5 -31
18 -30 28 -34 28 -54 12z"/>
</g>
</svg>
