<svg xmlns="http://www.w3.org/2000/svg" xml:space="preserve" viewBox="0 0 503.61 355.17"><g style="display:inline"><path d="m350.31 20.54-.4.1-.8.18-1.33 2.74-1.33 2.73-3.23-1.82-3.24-1.8-.82.33-.82.33-.78 1.83-.76 1.83.32.92.32.93-1.15.53-1.15.53-1.3 4.76-1.3 4.75-.5-.53-.48-.54v2.46l-2.35 4.18-2.37 4.16-.08 1.98-.08 1.96-.08.96-.08.96-.44.78-.44.79v3.6l-.88.6-.89.6v3.32l-.66-.7-.65-.74-.51 1.45-.52 1.44-.01-1.38v-1.38l-.88 1.57-.89 1.57v1.93l-1.44 2.77-1.45 2.76h.6l-.46 1.3-.46 1.3-.13 1.05-.13 1.04-.19 1.72-.18 1.73-.71 1.5-.7 1.5.44.86.43.86-.68-.7-.7-.69-.86 1.52-.87 1.54-.48-.74-.5-.74.8 1.85.8 1.85-.96-.66-.98-.66.37 1.68.36 1.68h-1.96l.42 1.2.42 1.2-.73-.8-.73-.78-2.02 3.45-2 3.46v2.72l-.45-.18-.44-.14-1.18.84-1.18.86-.73.99-.72 1-3.1.24-3.11.24-2.2.78-2.22.8v1.86h-1.77v1.75l-2.04.14-2.04.14-2.94 2.64-2.93 2.62-.42-1.2-.4-1.13-.33.45-.98 1.32.42-.88.41-.86-.8-1.45-.82-1.44h-1.78l-.18-2.27-.19-2.28-.63-.38-.65-.37-2.97 3.63-2.98 3.63-.4-.72-.42-.73-.82-3.47-.82-3.46-.66.72-.66.73.6-1.96.59-1.95-1.44-3.13-1.44-3.14-1.13 2.62-1.12 2.6-.92 1.84-.91 1.82v2.96l-2.8 1.9-2.8 1.92-.6.09-.58.1-1.92-1.9-1.91-1.88-.89.6-.88.6v1.5h-1.71l.3-.85.3-.88h-1.44l.38-.68.4-.69-.74-1.6-.73-1.6.88.92.89.92-.8-1.75-.8-1.76-.53.58-.52.58v-2.35l-.6.65-.6.66.34.96.34.98h-1.91l.3.82.27.82h-2.18l.24-.72.26-.72-2.16 1.17-2.17 1.19 1.43.7 1.43.72-1 .1-.96.09-.94-.65-.93-.63v-2.9h-1.77v-3.33l-1.22-3.04-1.22-3.03h-1.68V94.7l-.51.54-.5.55.3-2.73.3-2.73-.6.64-.6.65.29-2.57.28-2.59h-1.36l.13-2.35.13-2.35-1.04-4.29-1.05-4.3-2.06-1.73-2.05-1.75-1.8 1.6-1.8 1.6h-2.26l.32.89.3.9-1.45-.28-1.47-.28.31.86.3.89-1.2.66-1.2.68-3.05 5.42-3.05 5.4-.46.14-.48.14-.44.14-.44.14.88 1.13.89 1.11-1.33-.52-1.32-.51v2.24l-.37-.63-.35-.64-.75 1.25-.77 1.24.27.78.27.79h-1.37l.36 1.67.36 1.68-.93-.63-.93-.63-1.15 1.09-1.15 1.1.34 1 .34.99-.77.09-.76.1-1.43.46-1.42.47-.74 1.06-.72 1.07-.26-1.34-.26-1.35-1.72 1.56-1.72 1.57-.7 1.18-.71 1.19.32.56.32.58-2.37 1.26-2.37 1.26-.43 2.73-.43 2.73.13 1.94.13 1.93-.63-.69-.64-.7-.08 1.88-.08 1.9.08 1.21.08 1.21-1.14 2.22h.5v1.05h-.59v-.88l-.5.97-1.72 3.34-.64-.7-.64-.7-1.82 1.88-1.81 1.9-.8-1.97-.82-1.95-2.54-.05-2.53-.04-1.47.69-1.46.69-1.48 1.9-1.48 1.92-2.85 1.4-2.85 1.39-2.04 2.45-2.03 2.44h-2.05l-1.92 3.11-1.9 3.1-.28.03-.28.04h-1.25l.36 1.05.37 1.05h-1.9l.33-1 .34-.98-1-1-1.02-1-2.09 1.72-2.1 1.73-.3.64-.28.63-.97-.28-.97-.28-.75 2.5-.76 2.5-.63.15-.64.14-1.62.23-1.62.18v-1.6l-1.62.33-1.62.32-.37-1.05-.36-1.03-1.41 1.37-1.4 1.38-.42-.23-.42-.24.38 1.82.38 1.81-.9-1.3-.9-1.31-1.56.23-1.56.23v1.78l1.32-.65 1.32-.64-1.06 1.19-1.07 1.18-.8-.56-.8-.54-.8 1.7-.77 1.7.83-.87.83-.89-.42 1.2-.42 1.21h-1.4l-1.46 3.79-1.45 3.78-2.53 1.92-2.52 1.9v3.21h-2.34l-.74 2.1-.74 2.08h-1.3l-1.1 3.67-1.12 3.65h-.99l-2.07 2.8-2.09 2.82-.57 2.14-.57 2.16-1.05 3.37-1.06 3.35-.38-.66-.37-.67v2.16l-1.33-.23-1.32-.24v-.37l-2.6-.47-2.6-.48-.64-.94-.65-.95-1.9.23-1.93.24v-1.28l-1.33-.09-1.32-.05-3.38-.37-3.39-.42v-1.13l-7.21.23-7.23.24-2.35 1.49-2.36 1.5-.81-.5-.83-.5.42 1.16.4 1.16-.91-.61-.92-.62v2.57l-1-1.44-.99-1.43.44 1.3.45 1.32-1.66 1.18-1.66 1.19-1.35-.14-1.36-.14.36 1.03.37 1.04-2.54-.1-2.54-.09 1.47-.91 1.47-.92-1.94.33-1.94.32-.36-1.02-.36-1.04.83.77.83.75-1.04-1.5-1.03-1.5-.05-1.44-.05-1.46-.3 1.3-.3 1.33-.56-.62-.57-.61-.86 1.26-.85 1.25v-3.25l-1.17.14-1.19.14v1.65h-2.4l-1.52 1.76-1.53 1.77-2.04-.23-2.03-.23.38 1.08.37 1.09h-3.6v-3.13H4.48l.43 1.2.42 1.21-.7-.76-.69-.75.34-.96.34-1-.77-.13-.77-.14-.44.14-.45.14v-2.3l-1 .68-1.02.7.4-.74.41-.72-.97-.95v152.98h503.6V168.97l-.43-.14-.45-.14-2.04-.28-2.05-.28-.21-1.14-.21-1.12h-2.85v-2.2l-.62.66-.62.68-1.4-1.64-1.41-1.63-2.25.1-2.25.09-3.39-.48-3.39-.5v1.47l-2.5-1.17-2.5-1.17-1.33-1.3-1.32-1.32v1.36l-.76-1.11-.75-1.11-1.66-.53-1.65-.52-.83-1.23-.83-1.24v1.36l-1.83-1.67-1.82-1.66-.33.58-.33.57-.84-1.8-.84-1.82.38 1.3.37 1.33h-1.83v-2.1h-3.67l-2.78-4.12-2.77-4.1-.84-.33-.85-.33-.74-1.78-.77-1.79-2.92-2.9-2.93-2.93v-2.73l-.59.65-.6.64v-1.97l-2.2-1.86-2.21-1.85v.76l-1.64-2.9-1.65-2.93-.85.58-.85.57.13-1.26.13-1.28-1.02.14-1.03.14.28-.8.28-.79-4.56-4.72-4.55-4.72-3.17-2.8-3.17-2.81-1.1.51-1.1.51v-1.5l-3.68-3.08-3.69-3.05-.18-.8-.19-.77h-1.17l-.73-1.32-.75-1.32.24-1.3.24-1.3h-1.28V84.9l-1.83-2.59-1.83-2.6-.75-1.25-.75-1.25-.37.64-.36.65v-2.44h-2.3l-.42-1.2-.42-1.2.83.87.83.89-.82-1.8-.81-1.8-.3.54-.3.53-.85-1.8-.83-1.83.42 1.48.44 1.46-.69-.74-.67-.74v-2.16l-1.18-2.67-1.19-2.65v1.81l-1.32-2.36-1.32-2.36-1.77-2.58-1.77-2.59-1.03-.59-1.04-.58v-1.95h-1.76v-2.21l-.6.65-.6.65-.34-1.64-.35-1.6-.46.49-.46.5-.73-1.54-.73-1.56h-1.43l-.64-2.5-.64-2.49-4.9-5.7-4.91-5.72-1.89-1.7-1.87-1.72-1.59-2.62-1.6-2.6-.64-.14-.23-.05zm-176.7 106.8.1-.16h-.1zm103.6-11.87v-.02l-.02-.03zm0-.02.76.81.76.85-.44-1.25-.44-1.26zm50.76-64.5h.58V52h-.59zm-7.07 9.4v1.06h.6v-1.05zm67.75 4.19v1.03h.59v-1.03zm-169.08 1.03v1.05h.59v-1.05Zm178.5 15.67v1.04h.6v-1.04zM202.48 85.4h.59v1.05h-.59zm199.13 1.06v1.03h.6v-1.03zm-178.52 6.25h.6v1.05h-.6zm-29.44 2.1v1.04h.59v-1.05zm32.4 0v1.04h.59v-1.05zm-.18 2.81.68.74.68.74v.93h-.52l-.42-1.21zm-1 .3h.6V99h-.6zm2.29 2.62.73 1.29.73 1.3-.33.57-.33.6-.4-1.88zm2.69 1.66v2.96l.49-.54.5-.54v2.09l.64.71.64.7-.65-2.15-.65-2.16-.48-.53zm6.03.64.42 1.2.42 1.21h.52v-.92l-.68-.75zm-6.3 4.14.4.69.39.7-.4.7-.4.7zm13.55 6.6h.59v1.06h-.59zm-113.1 34.48v1.05H130.6v-1.05zm-17.68 6.96-.4.7-.39.69h1.58l-.4-.69zM3.76 202.05l.43 1.2.41 1.2h.52v-.92l-.68-.74zm-1 1.36v1.05h.6v-1.05zm77.18 0v1.05h.6v-1.05zm-73.34.22-.77 1.46-.75 1.45h.58l.58-.04.4-1.1.38-1.12-.21-.32zm26.21.83v1.05h.59v-1.05zm-24.89.81-.5 1.42-.51 1.42v.81l-.02.84.82-1.35.82-1.35-.3-.9zm26.14.24-.36 1.03-.37 1.05h.59l.36-1.05.37-1.03zm-5.37.69-.4.7-.39.69h1.57l-.4-.69zm-19.44.34v1.05h.59v-1.05zm22.97 1.05v1.05h.6v-1.05z" style="display:inline;fill:navy;stroke-width:2.45102" transform="translate(0 -1.08)"/><path d="M0 1.08v19.46h501.65V1.08Z" style="fill:none;stroke-width:.264583" transform="translate(0 -1.08)"/></g></svg>