<svg xmlns="http://www.w3.org/2000/svg" xml:space="preserve" viewBox="0 0 501.5 362.36"><path d="M0 0v189.59h11.95l1.46-.22 1.4.22h485.16V0Zm6.93 188.08h1.08v.33H6.93Z" style="fill:none;stroke-width:.264583"/><path d="M6.93 188.08v.33h1.08v-.33zm6.48 1.3-3.75.55-3.76.55-1.9 1.37-1.9 1.36.23.75.24.75H.1l.51.82.51.82-1.08-.2-.03-.01v1.49l.03.05-.03-.01v164.7h501.5v-131.1h-.02l-2.89-.05-2.88-.04-3.23-.1-3.23-.11-5.46-.27-5.46-.28-1.3.43-1.3.43h-4.22v-.73l-1.61.19-1.61.2v-.59l-1.88.15-1.89.15-5.14-1.01-5.14-1.01h-2.32l.64-.51.63-.51-2.42-.29-2.38-.28-2.42-.87-2.41-.86h-2.16l.24-.42.29-.42-2.7-.1-2.7-.1-1.85.97-1.84.97.69.2.68.22h-2.5v.76l-2.77.79-2.75.78-.87-.16-.86-.16-1.9.65-1.9.65-1.09-.21-1.1-.21.72.36.73.36-1.2.23-1.23.23-.94-.45-.94-.46-.01.43-.02.44-1.1-.21-1.1-.22.28.4.29.38-3.47.58-3.46.6.75.22.73.24-1.85-.22-1.85-.22v.73l-.8-.04-.8-.05-1.42.05-1.4.04.61.31.63.31-1.28.24-1.25.24.76-.38.77-.39h-2.28v1h-6.57l.69-.34.68-.35-3.7.07-3.73.08-2.8-.57-2.76-.56h-4.38v-.52l-2.16-.05-2.15-.04v1.03l-1.56-.4-1.56-.4-1.04.2-1.02.2-.55-.42-.54-.42-.1.46-.1.46-1.88.48-1.88.48 1.51-.24 1.52-.25-.67.33-.66.33-3.54-.1-3.54-.1 2.68.28 2.7.3-4.64.02-4.64.03.66-.33.67-.33-2.48.05-2.48.04-3.02-.37-3.03-.38.82-.42.8-.41-1.82.45-1.81.46v-.82l-1.68.2-1.65.2.73-.37.76-.37-1.51.15-1.5.16-4.3-.48-4.29-.47-13.18-.06-13.17-.07v.36l-6.19.12-6.17.11-2.42.02-2.42.03v.4l-3.5-.07-3.49-.08-1.18.3-1.16.3-4.76.16-4.73.15v.12l-2.42.07-2.42.07v-.68l-.69.2-.7.22-1.92-1.07-1.93-1.07-1.04-.68-1.04-.69-3.81-.89-3.79-.9h-1.8l-2.03-1.15-2.03-1.17h-2.37l-1.35-.66-1.34-.67h-4.28v-1.02l-4.6-.6-4.6-.62-2.66-1.2-2.66-1.2h-2.55l-.77-.39-.77-.38 1.51.28 1.52.28-1.42-.54-1.44-.54-1.46.17-1.47.18-1.95-.38-1.94-.38 2.41.2 2.42.21v-.56l-2.85-.08-2.85-.07-1.65.41-1.65.42.7-.58.7-.57-.77.07-.77.06-2.56-.44-2.56-.44-.66.33-.67.34-2.96-.1-2.96-.11v.5l-2.96-.06-2.95-.06-1.16-.05-1.16-.04-1.38-.8-1.38-.8-1.76.1-1.77.08-.53-.2-.54-.2-3.83-.55-3.82-.55-1.85.32-1.84.32.63.31.61.32h-3.48l.68-.34.66-.33h-2.29l-.5-.01-.51-.01-3.48-.99-3.5-.99h-3.73l-3.72-.77-3.72-.78-5.2-.45-5.21-.44-2.7-.6-2.7-.62-2.67-.22-2.68-.22-4.62.02-4.62.01-1.5.62-1.47.63-3.3-.6-3.32-.6-1.18.22-1.16.22-3.15-1.06-.9-.3v.3h-1.08v-.34h.97l-2.14-.73.14-.38.15-.39-.15-.6-.14-.6-1.17.22-1.16.22.24-.61.24-.62-.78-.87-.8-.87-4.31-.4-4.32-.4.58-.18.59-.18-1.3-.38-1.28-.37-3.13-.5-3.14-.5-.48.43-.48.43-1.32-.34-1.34-.34-2.6-.15-2.6-.15-1.4-.03-1.4-.03.62-.31.63-.32-2.1-.35-2.1-.34-1.71.2-1.7.2.66-.54.67-.53h-2.5l.48-.25.5-.25-1.4-.4-1.39-.4-.63.21-.66.2v-.71l-2.42.16-2.42.17 1.61-.36 1.61-.36-.8-.04-.8-.04-.87-.05-.85-.04-5.56-1.72-5.57-1.72-2.2-.22-2.2-.21.56-.28.56-.28-2.67.1-2.67.08.57-.28.57-.29H20l-3.29-.5zm78.37 18.3.11.04v-.04zm-53.65-13.29h1.07v.33h-1.07ZM.48 196.72h1.1v.33H.47Zm53.77.66v.34h1.08v-.34zm116.14 16.94v.33h1.08v-.33zm33.34 2.21-.71.23-.73.22h2.87l-.7-.22zm259.17 12.4v.34h1.08v-.34zm-47.31.34v.33h1.06v-.33zm79.57.33v.33h1.08v-.33zm-93.23 1.9-1.24.23-1.24.23v.3h.94l.77-.39zm-140.13.42v.34h1.08v-.34zm140.88 0v.34h1.07v-.34zm-5.92.07-.39.1-.38.11.7.35.72.36h2.13l-1.39-.45zm-48.92.27v.33h1.07v-.33zm46.5.26-.56.28-.56.28 1.51.43 1.5.43-.03-.26-.01-.26-.93-.45zm-48.79.07.67.33.67.33h1.08l-.67-.33-.67-.33zm10.89.22-.71.22-.73.22h2.87l-.72-.22zm34.4.1v.34h1.08v-.33zm-41.93.34v.34h1.08v-.34z" style="display:inline;fill:#00f;stroke-width:1.1413"/></svg>