<svg xmlns="http://www.w3.org/2000/svg" xml:space="preserve" viewBox="0 0 508 176.213"><path d="m382.947 3.811-.656.116-.655.114-1.087 1.603-1.086 1.606-2.657-1.063-2.657-1.062-.673.184-.673.182-.632 1.075-.632 1.074.265.543.264.543-.944.315-.942.312-1.068 2.793-1.068 2.795-.4-.313-.398-.312v1.444l-1.931 2.454-1.933 2.455-.06 1.156-.061 1.154-.06.562-.061.564-.362.46-.362.46v2.12l-.725.352-.724.353v1.952l-.538-.422-.535-.422-.422.846-.422.846-.006-.812-.006-.81-.724.92-.725.92v1.137l-1.184 1.623-1.184 1.623h.493l-.377.767-.376.767-.116.615-.118.613-.16 1.013-.16 1.01-.577.886-.579.886.358.502.358.502-.565-.412-.565-.41-.706.897-.706.898-.403-.432-.405-.43.657 1.087.657 1.088-.799-.388-.798-.39.299.988.297.99h-1.609l.345.707.345.71-.6-.473-.599-.47-1.65 2.03-1.649 2.032v1.6l-.361-.099-.363-.095-.966.498-.966.499-.597.587-.598.587-2.542.146-2.542.145-1.81.469-1.813.468v1.09h-1.448v1.029l-1.677.08-1.676.08-2.405 1.547-2.402 1.548-.343-.703-.327-.672.01-.01-.025-.02.015.03-.272.263-.801.777.34-.514.338-.512-.665-.847-.67-.848h-1.45l-.154-1.333-.154-1.333-.526-.22-.529-.22-2.439 2.132-2.439 2.13-.336-.425-.337-.424-.672-2.038-.671-2.039-.54.426-.54.425.482-1.15.484-1.15-1.18-1.837-1.177-1.841-.924 1.534-.922 1.534-.75 1.073-.75 1.074v1.739l-2.295 1.12-2.294 1.12-.483.058-.483.058-1.57-1.106-1.571-1.107-.722.353-.725.35v.892h-1.406l.249-.51.25-.512h-1.184l.317-.404.318-.404-.6-.94-.6-.941.725.543.725.542-.659-1.031-.659-1.032-.427.336-.429.338v-1.373l-.49.387-.492.383.279.571.278.57h-1.564l.235.482.235.483h-1.79l.206-.425.207-.424-1.777.692-1.777.692 1.172.417 1.173.416-.807.058-.805.058-.765-.372-.763-.372v-1.783l.53.418.532.416-.534-1.268-.535-1.266-.398-.314-.4-.314v1.733l.401-.316.403-.317v1.3h-1.449v-1.958l-1-1.78-.999-1.784h-1.382v-1.3l-.413.324-.412.326.24-1.607.242-1.607-.483.38-.484.377.227-1.514.23-1.515h-1.116l.102-1.381.104-1.38-.857-2.524-.855-2.521-1.688-1.022-1.687-1.024-1.48.938-1.479.937h-1.841l.257.528.256.528-1.195-.167-1.197-.167.25.516.25.516-.987.397-.987.399-2.497 3.175-2.5 3.174-.385.076-.385.077-.363.086-.362.087.725.658.724.657-1.087-.303-1.086-.303v1.317l-.293-.371-.292-.374-.624.732-.622.729.219.46.22.46h-1.126l.297.99.3.987-.766-.372-.763-.374-.945.642-.945.643.284.583.282.582-.632.043-.632.044-1.17.273-1.17.273-.594.627-.594.627-.21-.794-.209-.791-1.408.92-1.407.92-.581.694-.581.695.265.337.266.338-1.942.739-1.945.74-.353 1.605-.355 1.602.117 1.141.116 1.141-.523-.41-.52-.41-.059 1.11-.058 1.11.07.713.068.714-.972 1.35h.467v.615h-.483v-.59l-.427.592-1.414 1.968-.528-.416-.528-.415-1.486 1.108-1.487 1.113-.664-1.151-.663-1.15-2.078-.03-2.077-.036-1.201.41-1.203.406-1.212 1.121-1.214 1.124-2.336.821-2.338.82-1.67 1.438-1.668 1.438h-1.675l-1.57 1.822-1.57 1.822-.227.022-.229.022h-1.022l.298.613.3.614h-1.565l.281-.577.28-.575-.825-.588-.826-.586-1.72 1.01-1.721 1.009-.242.374-.24.372-.792-.155-.79-.155-.62 1.47-.618 1.47-.523.095-.522.095-1.328.119-1.328.121v-.938l-1.328.189-1.329.187-.3-.611-.302-.613-1.148.808-1.147.808-.345-.123-.345-.123.314 1.066.315 1.067-.744-.767-.744-.767-1.278.134-1.28.133v1.042l1.087-.377 1.087-.378-.874.694-.875.696-.66-.323-.66-.322-.64 1-.638 1.002.678-.517.68-.52-.345.707-.346.71-.575.003-.575.003-1.19 2.224-1.193 2.222-2.07 1.127-2.067 1.126v1.884h-1.923l-.604 1.228-.604 1.227h-1.064l-.91 2.147-.912 2.149h-.81l-1.706 1.653-1.706 1.653-.47 1.262-.467 1.261-.865 1.98-.864 1.976-.31-.392-.31-.393v1.265l-1.086-.146-1.087-.143v-.228l-2.131-.278-2.131-.28-.527-.555-.526-.556-1.567.138-1.57.138v-.746l-1.087-.043-1.086-.037-2.777-.234-2.778-.232v-.666l-5.917.122-5.916.123-1.933.881-1.932.883-.67-.295-.672-.295.335.687.332.684-.749-.364-.75-.365v1.508l-.818-.84-.815-.844.362.769.364.767-1.356.698-1.359.696-1.112-.081-1.115-.08.296.61.298.608-2.082-.058-2.081-.057 1.207-.537 1.208-.537-1.591.188-1.59.189-.295-.606-.296-.605.677.446.68.447-.846-.878-.845-.882-.04-.852-.04-.853-.244.771-.245.771-.462-.362-.464-.365-.703.742-.703.742v-1.915l-.966.092-.966.092v.966h-1.967l-1.25 1.041-1.25 1.04-1.67-.143-1.67-.143.31.636.309.637h-2.956v-1.841H99.12l.346.707.344.71-.566-.445-.565-.443.278-.572.278-.57-.631-.074-.634-.073-.362.073-.363.073v-1.358l-.83.405-.83.404.334-.425.335-.425-1.556-1.088-1.558-1.087.133-.713.133-.714-.495.39-.496.389-.006-.804-.006-.803-.423.846-.421.846-.546-.428-.544-.428.323-.668.324-.664-.493.386-.493.387-.854-1.198-.852-1.199-.385.303-.386.301-1.242-1.46-1.24-1.46v-1.394h-1.126l.308-.393.31-.393-.828-1.78-.83-1.783-1.211.18-1.212.181.12.767.122.767h-.972l-1.085 1.6-1.083 1.598-1.078.53-1.078.529.286.94.283.94H75.06l-2.31 1.866-2.311 1.868-.846-.276-.845-.276v1.074l-.725-.353-.724-.353v1.357h-1.894l-.586-.797-.586-.796-2.451.507-2.453.508-1.449.192-1.449.196-1.294.095-1.295.096-.754.96-.755.96-.596-.469-.596-.468-1.822-.217-1.823-.217-.006.8-.007.798-.42-.842-.419-.842-.66.283-.66.281-.639-.974-.639-.974.272.698.272.696-.96.32-.96.318-.317-.65-.318-.652.633.496.632.497-.29-.594-.287-.595-2.44-.065-2.44-.065-1.525-.967-1.526-.968h-.438l.304 1.007.305 1.008-.858-.853-.855-.853-.725-.98-.725-.98-1.931-1.097-1.933-1.097-1.994-1.164-1.992-1.163-1.69-2.085-1.69-2.084-4.528-2.716-4.529-2.714-3.58-2.087-3.58-2.085-.676-.849-.676-.85-1.471-.032v89.846h506.76V91.095l-.364-.09-.361-.085-1.68-.171-1.676-.173-.173-.662-.174-.661h-2.335v-1.3l-.504.397-.504.395-1.156-.963-1.156-.96-1.842.05-1.842.05-2.776-.28-2.778-.285v.863l-2.053-.69-2.053-.69-1.087-.77-1.086-.772v.806l-.619-.652-.619-.653-1.355-.312-1.356-.312-.682-.72-.682-.719v.795l-1.495-.98-1.494-.982-.269.341-.27.344-.687-1.065-.688-1.064.306.767.306.767h-1.506v-1.227h-3.005l-2.273-2.416-2.272-2.416-.692-.192-.694-.192-.616-1.047-.618-1.049-2.4-1.712-2.403-1.715v-1.606l-.484.38-.483.38v-1.16l-1.811-1.093-1.812-1.092v.454l-1.35-1.714-1.35-1.716-.696.34-.697.34.115-.746.114-.743-.84.083-.841.085.226-.467.226-.463-3.732-2.775-3.733-2.777-2.599-1.65-2.598-1.65-.904.301-.902.3v-.886l-3.02-1.801-3.018-1.8-.162-.46-.16-.461h-.955l-.609-.773-.607-.772.2-.762.198-.76h-1.046V41.68l-1.498-1.529-1.501-1.526-.615-.739-.618-.737-.3.38-.298.38v-1.432h-1.875l-.345-.707-.344-.708.677.518.68.519-.673-1.052-.672-1.053-.246.311-.246.312-.686-1.064-.688-1.064.353.86.351.864-.556-.437-.559-.44V32.07l-.966-1.56-.966-1.56v1.06l-1.087-1.388-1.087-1.386-1.449-1.518-1.449-1.518-.845-.344-.845-.345v-1.145h-1.45v-1.3l-.485.382-.488.383-.288-.956-.288-.956-.378.295-.376.297-.598-.914-.596-.913H398.8l-.527-1.467-.525-1.465-4.02-3.353-4.02-3.356-1.544-1.007-1.544-1.009-1.303-1.535-1.303-1.534-.535-.074zm-60.258 55.817.607.477.633.496-.36-.739-.359-.738zm41.663-37.867h.483v.614h-.483zm-5.796 5.52v.614h.482v-.615zm55.546 2.454v.614h.483v-.614zm-138.624.614v.614h.483v-.614zm146.352 9.204v.614h.483v-.614zM261.47 42.01h.484v.614h-.483zm163.258.611v.614h.484v-.614zm-146.352 3.684h.483v.614h-.483zm-24.15 1.225v.614h.483v-.614zm26.566 0v.614h.482v-.614zm-.15 1.654.557.437.558.439v.54h-.425l-.346-.707zm-.817.19h.483v.612h-.483zm1.875 1.533.6.758.601.755-.271.344-.27.344-.33-1.1zm7.153 1.342.344.708.346.71h.425v-.542l-.557-.439zm-5.164 2.442.322.41.322.408-.322.409-.322.41zm11.11 3.887h.482v.613h-.483zm-56.996 7.976v.023l.016-.023zm-35.742 12.27v.613h.483v-.613zm-14.49 4.09-.323.41-.322.41H188.215l-.323-.41zM34.938 104.596v.613h.483v-.613zm35.743 1.227v.614h.483v-.614zm21.252.614v.614h.483v-.614zm-35.742.614v.614h.482v-.614zm-3.865 1.226v.615h.484v-.615zm46.22 2.266.344.707.346.71h.425v-.541l-.556-.439zm-.817.803v.614h.483v-.614zm63.275 0v.614h.483v-.614zm-60.135.126-.624.856-.622.86h.945l.321-.653.318-.656-.17-.204zm21.494.488v.614h.483v-.614zm-20.41.484-.415.832-.415.833-.006.485-.006.483.673-.79.672-.792-.25-.525zm21.434.13-.3.613-.298.615h.482l.3-.615.298-.613zm-4.405.408-.322.41-.323.41h1.29l-.324-.41zm-15.94.205v.615h.483v-.615zm18.838.615v.613h.483v-.613z" style="fill:#000;stroke-width:1.70126"/></svg>