<svg xmlns="http://www.w3.org/2000/svg" xml:space="preserve" viewBox="0 0 210 297"><path d="M105.116 178.557H50.929v-52.883l.102-.102.101-.101h.132l.13.002.119.074.118.075-.182.254-.181.255v.119l.119-.046.118-.045.154.112.153.112-.107.129-.108.129.17.054.17.054-.042.108-.042.109.47-.024.47-.024.135.205.134.205-.135.135-.135.136v.177l-.17-.045-.169-.044v.154l.004.063.004.064.203-.027.202-.026.238.125.238.126-.17.065-.168.064-.111.154-.11.154h-.173l-.1.108-.1.107-.022.11-.024.11.087-.053.087-.054v.19l.076-.047.075-.047.052.133.05.134-.042.226-.043.226.051-.11.052-.11.182.113.182.114.127-.007.127-.007.145.257.144.257.004.064.003.063h-.272l.043.112.043.112-.161.1-.16.101v.321l.173-.045.174-.046.05-.25.05-.25.071.113.071.113.003-.254.002-.254.076.12.075.119-.041.134-.042.135.177-.2.176-.2v.517l.082.05.082.052.057-.223.056-.224.063.102.063.103-.041.18-.041.182.218-.254.217-.254.003-.064.003-.063h.178l-.272.394-.27.394.097-.06.098-.061v.154l-.19.088-.191.089.151.061.151.062.37-.391.37-.392h.119l-.053.138-.053.138.256-.051.255-.051v.144l-.275.065-.275.064-.064.02-.063.02-.085.01-.085.011v.18l.071-.044.071-.044.488-.047.488-.048.462-.218.462-.219.292.055.291.054v.12l.445.227.444.227.333.088.334.088.196-.05.195-.048v-.146l-.148.053-.148.053.055-.06.055-.062.47-.018.472-.018.256-.246.257-.245-.037-.037-.036-.036.228-.201.227-.202.089-.064.087-.065.124-.04.124-.04.338.01.34.01.286.063.288.063-.06-.096-.06-.096h.18v.169h.748l.03.09.03.089.498.165.498.164h.63l.259.051.258.052-.045.118-.045.118h.187v-.17l.064.01.063.01.17-.011.169-.011-.125-.079-.123-.078.25-.096.252-.096.254.049.254.048.865.27.864.27.047.12.046.121-.132-.05-.133-.052.052.084.052.084h.244l.148-.148.148-.148.566.01.567.01.118.117.119.117.627.288.628.287.794.375.793.375.297.287.296.288.349.16.35.161.338.152.339.15.127.136.127.135.15.118.15.118-.053-.14-.054-.138h.077l.268.133.267.134.428.009.427.009.05.082.052.082-.111-.069-.111-.068.055.09.056.09.168-.045.169-.044-.048-.096-.048-.096.112.134.112.135.116-.04.116-.038.073.116.074.116.001-.11.001-.11.32.03.32.03.104.064.104.065.133-.132.132-.133.227-.013.227-.013.254-.027.254-.027.43-.07.43-.07.102.11.103.11h.332v-.187l.127.048.127.049v-.148l.148.038.148.038.405-.258.405-.257h.182l-.05-.13-.05-.13.19-.073.188-.073.19-.22.19-.221h.17l-.02-.106-.022-.106.212-.025.213-.024.145.246.145.245-.054.054-.054.055h.197v.192l.218.202.217.2.068-.04.068-.042.149.165.15.165.086-.053.087-.053-.057.091-.057.092.095.06.096.058.074-.116.074-.117.001.11.001.112.087-.054.087-.054-.023.099-.024.098.273.15.273.15-.059.059-.058.059.146-.056.145-.056v.187l.064-.01.063-.01.111.01.11.01-.048.08-.049.078.1.061.099.062-.06-.098-.061-.098h.18v.254h.517l-.054-.088-.054-.088.292.02.293.02.22-.144.218-.143h.345v-.134l.17-.012.169-.013v.264l.123-.102.123-.102.082.05.08.05.043-.107.043-.106.007.118.007.117.148.122.148.121-.119-.061-.119-.062.052.084.052.083.279-.026.278-.026-.211.074-.212.074.365.008.365.008-.052-.084-.052-.084.195.011.195.011.238-.096.238-.096-.064-.106-.063-.106.143.116.143.116v-.208l.132.05.13.05-.057-.094-.06-.094.119.04.117.041.339-.122.338-.121 1.038-.017 1.037-.017v.092l.487.032.486.032.19.005.191.006v.103l.276-.019.274-.019.093.077.092.076.374.039.373.038v.032l.19.02.191.02v-.175l.054.054.055.054.151-.272.152-.273.082-.175.082-.174.3-.228.298-.228h.142l.16-.296.16-.297h.186l.106-.169.106-.17h.337v-.26l.362-.155.363-.155.209-.307.209-.307h.201l.061-.098.06-.098-.119.072-.119.071.112-.138.113-.138.115.044.116.045.153-.096.153-.096-.19.052-.19.052v-.144l.224-.018.224-.019.13.106.13.106-.055-.147-.055-.147.06.017.061.017.201-.112.202-.111.052.084.053.085.233-.026.233-.026v.13l.233-.017.232-.017.092-.013.091-.013.109-.203.108-.203.139.022.139.021.042-.051.042-.052.302-.14.301-.139.145.081.145.081-.05.08-.048.08h.274l-.053-.085-.052-.085h.18l.04-.003.04-.003.274-.251.275-.252h.294l.293-.198.292-.199.41-.113.41-.113.212-.155.213-.155.21-.056.211-.056.364.005.364.004.117.158.116.16.26-.154.261-.153.093.057.092.057.248-.271.248-.272-.012-.098-.012-.098.01-.154.01-.153.092.057.091.056-.02-.157-.02-.157.062-.222.062-.221.34-.102.34-.102-.046-.047-.046-.046.102-.096.101-.096.247-.127.247-.127.036.11.037.109.104-.087.105-.086.205-.038.205-.037.11-.006.111-.006-.05-.08-.049-.081.166-.089.165-.088.134.051.134.051-.052-.136-.052-.136h.197l-.038-.064-.039-.063.11-.1.109-.102.05.052.052.051v-.182l.19.042.191.042-.127-.09-.127-.092.064-.011.063-.012.068-.011.067-.01.438-.438.438-.439.173-.055.173-.054-.044-.072-.044-.07.21.022.21.023-.045-.073-.045-.072h.323l.259-.13.26-.13.295.142.296.141.15.348.15.348-.018.19-.018.191h.195l-.04.21-.04.208.085-.052.085-.052-.042.221-.043.222.072-.045.073-.044v.179h.242l.175.246.176.246v.27h.254v-.18l-.071.044-.07.044v-.24l.07.044.07.043.093.175.094.175-.093-.057-.093-.058v.246l.134.051.134.052.14-.008.142-.008-.205-.058-.206-.057.312-.096.311-.095-.036.058-.036.059h.313l-.04-.067-.042-.066h.274l-.048-.08-.05-.078.087-.053.086-.053v.19l.075-.047.075-.047.115.143.116.142-.127-.075-.127-.075.105.13.105.13-.056.056-.055.055h.207l-.044.071-.043.07h.246v-.123l.127-.048.127-.049.275.153.275.153.085-.008.085-.008.402-.155.402-.154v-.24l.132-.148.131-.149.162-.211.162-.212.206.254.207.254-.085.158-.085.159.095-.059.095-.058.118.28.117.282.06.059.058.058.428-.294.427-.294.093.03.092.03.027.185.027.184h.255l.117.117.116.117-.059.07-.06.071.141-.107.14-.107.064.102.063.102-.11-.069-.112-.068.06.096.06.097.421-.213.422-.214.294-.01.293-.012v-.142h.254v-.15l.318-.065.317-.064.446-.02.446-.02.104-.082.105-.08.17-.07.169-.068.063.013.064.014v-.221l.289-.28.289-.28.105.064.105.065-.06-.098-.06-.097h.281l-.052-.137-.052-.136.14.054.14.053-.116-.15-.115-.15.071.06.07.06.125-.125.124-.123.099.056.099.057-.063-.07-.063-.069.101-.122.102-.122.028-.14.028-.14.02-.084.02-.085.067-.105.066-.106h-.087l.208-.224.208-.224v-.157l.127-.127.127-.127v.112l.002.112.074-.117.073-.117.094.059.095.058v-.27l.127-.048.127-.049v-.292l.063-.064.064-.063.01-.078.01-.078.011-.159.01-.16.34-.338.338-.339v-.199l.07.043.07.043.187-.385.188-.386.165-.043.165-.043-.046-.075-.046-.075.11-.148.111-.149.118-.025.118-.025.466.146.465.147.191-.221.19-.222.115-.016.115-.015.094.01.093.01.229.211.228.212.27.14.271.138.705.463.705.463.092.202.092.203h.206l.105.126.104.126.067-.041.066-.04.05.13.05.133.086-.053.085-.053v.18h.254v.158l.149.047.148.048.254.21.254.209.19.191.19.192v-.147l.17.215.17.216v.175l.097.06.098.06-.062-.118-.061-.12.12.148.12.146.044-.043.043-.043.117.146.118.145-.119-.072-.119-.071.06.097.061.098h.329v.198l.052-.053.053-.052.108.102.108.101.263.211.263.21v.214h.183l-.035.105-.035.105.107.107.106.107h.168l.028.063.028.064.53.248.528.249v.122l.159-.041.158-.042.456.228.455.227.654.383.655.383-.04.064-.04.065.148-.012.147-.012-.02.103-.02.103.122-.047.122-.047.237.237.236.236v-.062l.318.15.317.151v.16l.085-.052.085-.053v.222l.421.237.42.236.11.145.107.144.122.027.121.026.398.333.399.334h.527v.17h.264l-.054-.107-.054-.106.12.147.121.147.048-.047.047-.047.262.135.262.135v-.11l.12.1.119.1.237.042.238.043.108.09.109.09v-.11l.19.106.19.106.36.095.36.095v-.119l.487.04.487.039.323-.007.323-.007.203.132.202.133.089-.055.088-.054v.179h.41l.03.091.03.092.294.023.294.024.064.012.063.012v46.482zm-39.328-47.244h.042v-.085h-.084v.085zm-11.345-.17h.042v-.084H54.4v.084zm-1.34-.197.056-.057-.057-.056-.056-.057v.226zm.662-.057h.043v-.084h-.085v.084zm-.56-.254h.085l.052-.084.053-.085h-.17l-.052.085-.053.084zm-.117-.17h.042v-.084h-.084v.085zm58.843-1.692h.043v-.085h-.085v.085zm9.991-1.101h.042v-.085h-.084v.085zm-1.933-.452.056-.056-.056-.057-.057-.056v.226zm-.242-.435.047-.047-.105-.105-.105-.104.058.152.057.152zm-.19-.298h.037v-.075l-.098-.06-.098-.06.06.097.061.098zm-.26-.085h.043v-.085h-.085v.085zm-.254-.423h.043v-.085H119v.085zm-2.963-.593h.042v-.085h-.084v.085zm18.034-2.794h.042v-.085h-.084v.085zm-46.068 12.682-.118.11.002-.068.001-.066.073-.115.073-.115.044.072.044.073zm3.565.018h-.042v-.085h.085v.085zm-3.302-.085h-.042v-.085h.085v.085zm2.752 0h-.113l.057-.056.056-.057.056.057.057.056zm.71 0h-.043l.053-.085.052-.084h.085l-.053.084-.052.085zm-4.02-.085h-.083l.109-.118.11-.118.029.028.03.028-.056.09-.056.09zm3.945-.084h-.042v-.085h.084v.085zm-4.318-.085h-.042v-.085h.084v.085zm.26 0H87.6l-.06-.098-.061-.097.098.06.097.06v.075zm10.831 0h-.042v-.085h.085v.085zm-19.05-.423h-.042v-.085h.085v.085zm.678-.17h-.043v-.084h.085v.084zm6.265-.084h-.042v-.085h.084v.085zm-3.725-.085h-.043v-.085h.085v.085zm-6.266-.17h-.042v-.084h.085v.085zm-17.018-2.455h-.042v-.084h.085v.084zm-.762-.084h-.042v-.085h.085v.085zm.17 0h-.043v-.085h.085v.085zm10.578 0h-.037v-.17h.18l-.053.085-.053.085zm-13.626-.17h-.043v-.084h.085v.084zm47.37-.254h-.112l.056-.056.057-.057.056.057.057.056zm-49.651-.084h-.038l-.052-.085-.052-.085h.18v.17zm2.492-.085h-.113l.057-.056.056-.057.057.057.056.056zm49.742-.423h-.042v-.085h.085v.085zm15.33-3.556h-.038l-.06-.098-.06-.098.097.06.098.061v.075zm-6.186-.762h-.042v-.085h.085v.085zm4.657 0h-.043v-.085h.085v.085zm25.23-.678h-.042v-.084h.085v.084zm-.508-.423h-.042v-.085h.085v.085zm-25.654-1.27h-.042v-.085h.085v.085zm24.3-.085h-.043v-.084h.085v.084zm-9.737-.338h-.042v-.085h.085v.085zm-71.67-4.572h-.085v-.18l.085.053.084.052v.075zm1.22-.176-.162-.007.111-.045.111-.044.051.051.052.051zm.43-.078h-.042v-.085h.085v.085z" style="fill:#000;stroke-width:.264583"/></svg>