<svg xmlns="http://www.w3.org/2000/svg" width="409.6" height="227.2"><path d="M204.8 265.28H0V65.408l.384-.384.384-.384.496.005.496.005.445.282.446.282-.686.962-.685.963v.449l.449-.172.449-.172.579.423.579.424-.405.487-.405.488.64.203.641.204-.157.41-.157.41 1.777-.09 1.778-.089.507.775.508.774-.512.511-.511.512v.669l-.64-.168-.64-.167v.58l.015.24.015.24.765-.1.766-.1.9.475.899.476-.64.243-.64.244-.418.58-.418.582h-.65l-.377.408-.377.407-.088.416-.088.417.328-.203.328-.203v.716l.286-.177.287-.177.193.503.193.504-.161.854-.162.855.194-.416.194-.416.688.43.688.43.48-.025.48-.025.547.97.546.972.014.24.013.24H9.532l.162.423.162.423-.608.38-.608.38v1.214l.656-.172.657-.171.188-.944.19-.945.27.426.27.426.009-.96.01-.96.285.451.286.451-.157.509-.158.509.667-.755.667-.756V85.082l.31.192.311.192.212-.843.212-.844.238.386.239.386-.155.684-.154.685.822-.96.822-.96.011-.24.012-.24h.671l-1.025 1.49-1.025 1.489.37-.228.369-.229v.58l-.72.335-.72.335.572.233.571.232 1.397-1.478 1.397-1.479h.451l-.2.521-.2.521.966-.193.966-.193V86l-1.04.245-1.04.244-.24.076-.24.075-.32.04-.32.04v.678l.268-.166.268-.165 1.844-.18 1.844-.179 1.747-.826 1.746-.826 1.102.206 1.101.207v.225l.002.226 1.679.859 1.679.858 1.26.333 1.261.332.74-.186.739-.185v-.551l-.56.201-.56.201.207-.231.207-.232 1.78-.068 1.781-.068.97-.928.968-.928-.137-.137-.136-.137.86-.762.86-.761.333-.245.332-.245.468-.149.467-.149 1.28.037 1.28.036 1.085.236 1.086.235-.224-.363-.225-.363h.678v.64h2.827l.113.339.112.338 1.884.622 1.883.621H55.28l.976.195.977.196-.17.444-.171.445h.708v-.64l.24.038.24.038.64-.043.64-.043-.47-.297-.468-.296.949-.362.949-.362.96.184.96.183 3.269 1.02 3.268 1.02.175.455.175.456-.5-.192-.5-.192.195.317.196.316h.922l.56-.56.56-.56 2.14.037 2.14.037.448.443.448.443 2.372 1.087 2.372 1.088 3 1.416 3 1.416 1.12 1.087 1.119 1.087 1.32.607 1.321.607 1.28.572 1.28.572.48.511.48.511.567.445.568.445-.202-.526-.201-.525h.29l1.011.505 1.011.504 1.616.035 1.616.035.191.31.192.31-.419-.259-.419-.259.21.34.21.339.636-.166.636-.167-.18-.363-.18-.364.423.508.424.508.437-.147.437-.147.278.439.278.439.005-.416.005-.417 1.208.113 1.207.113.395.244.395.244.5-.5.5-.501.858-.05.857-.05.96-.102.96-.1 1.625-.265 1.624-.264.388.415.388.416h1.255v-.708l.48.184.48.184v-.56l.56.144.56.144 1.531-.974 1.531-.974h.687l-.188-.49-.189-.49.714-.276.714-.276.718-.834.718-.834h.644l-.08-.4-.08-.4.803-.094.803-.094.549.93.548.928-.205.205-.204.205h.746v.727l.822.762.822.761.256-.157.255-.158.565.625.566.625.326-.202.327-.202-.215.347-.214.348.36.223.362.223.279-.441.28-.441.004.419.005.419.328-.203.328-.203-.088.372-.088.372 1.032.567 1.031.567-.222.222-.221.222.55-.211.55-.211v.708l.24-.038.24-.038.42.038.418.038-.184.298-.184.298.374.231.375.232-.228-.37-.229-.369h.678v.96h1.958l-.205-.332-.205-.332 1.106.075 1.107.074.828-.542.828-.543h1.303v-.504l.64-.048.64-.048v.999l.466-.387.466-.387.307.19.306.189.162-.402.162-.402.026.445.025.444.56.46.56.458-.45-.233-.449-.233.196.316.195.316 1.054-.099 1.054-.098-.8.28-.8.28 1.379.032 1.379.032-.197-.318-.196-.318.738.042.737.042.9-.363.899-.364-.241-.4-.24-.401.54.44.542.438v-.786l.497.19.496.19-.22-.357-.222-.358.445.154.444.153 1.28-.46 1.28-.46 3.92-.064 3.92-.063v.347l1.84.121 1.84.122.72.02.72.021v.389l1.04-.072 1.038-.072.349.29.349.289 1.412.146 1.412.145v.119l.72.075.72.076v-.66l.205.205.205.205.573-1.031.573-1.032.31-.658.311-.658 1.13-.862 1.13-.862h.537l.604-1.12.603-1.12h.705l.4-.64.4-.64h1.274v-.983l1.37-.587 1.371-.588.79-1.159.789-1.159.381-.002.381-.002.229-.37.228-.369-.45.271-.449.27.423-.522.424-.522.437.168.437.168.58-.363.579-.362-.72.197-.72.197v-.543l.847-.07.847-.07.493.4.493.4-.209-.556-.208-.556.229.064.228.064.76-.421.761-.421.2.319.199.319.88-.098.88-.098v.489l.88-.063.88-.062.346-.05.346-.05.41-.766.41-.767.524.081.524.081.16-.194.16-.195 1.14-.526 1.14-.527.547.306.546.306-.185.3-.186.301h1.036l-.198-.32-.198-.32h.678l.151-.01.151-.01 1.04-.95 1.04-.95h1.11l1.105-.75 1.106-.75 1.549-.428 1.548-.428.804-.586.803-.585.797-.212.796-.213 1.376.017 1.376.016.44.6.44.6.985-.58.984-.578.35.216.35.217.937-1.026.937-1.026-.045-.372-.046-.372.038-.579.038-.579.346.214.346.214-.077-.595-.077-.595.235-.836.234-.837 1.288-.386 1.287-.385-.176-.176-.176-.176.385-.362.385-.362.932-.48.933-.48.138.413.14.414.393-.327.394-.327.775-.143.775-.142.419-.024.419-.024-.188-.304-.188-.304.626-.335.626-.335.506.195.507.194-.198-.515-.197-.516h.746l-.146-.24-.145-.24.412-.38.413-.382.194.195.194.194v-.687l.72.158.72.158-.48-.343-.48-.343.24-.045.24-.045.255-.04.255-.04 1.656-1.655 1.655-1.656.654-.208.654-.207-.166-.269-.166-.269.793.087.792.087-.17-.275-.17-.275h1.22l.98-.489.98-.489 1.118.534 1.118.533.567 1.315.567 1.316-.068.72-.068.72h.739l-.152.79-.15.79.32-.197.32-.198-.16.838-.16.838.273-.17.274-.169v.678h.916l.662.93.662.929V70.4h.96v-.678l-.267.165-.266.165v-.904l.265.164.264.164.354.66.354.661-.352-.217-.352-.218v.93l.506.194.506.194.534-.032.534-.032-.777-.217-.776-.217 1.177-.361 1.177-.361-.137.221-.137.222h1.186l-.155-.252-.156-.251h1.036l-.184-.298-.185-.298.326-.2.325-.202v.716l.284-.176.283-.175.437.538.436.538-.48-.283-.48-.283.397.491.397.49-.21.211-.21.211h.784l-.165.267-.165.266h.932v-.465l.48-.183.478-.184 1.041.577 1.04.577.32-.03.32-.03 1.52-.584 1.52-.584V70.4l.497-.56.497-.56.611-.8.612-.8.78.96.782.958-.321.6-.32.6.358-.222.358-.222.445 1.063.445 1.063.223.221.223.222 1.616-1.111 1.616-1.112.35.115.349.115.102.695.102.695h.961l.443.442.441.442-.224.267-.225.268.531-.405.532-.405.238.385.238.385-.419-.259-.419-.259.226.366.227.367 1.592-.807 1.593-.807 1.11-.042 1.111-.042v-.536h.96v-.569l1.2-.244 1.2-.244 1.684-.076 1.684-.076.396-.306.396-.306.64-.26.64-.26.24.05.24.051v-.834l1.092-1.06 1.093-1.058.397.245.397.246-.228-.37-.229-.369h1.066l-.197-.516-.198-.515.529.203.529.203-.435-.568-.435-.567.268.225.267.225.468-.468.468-.468.374.214.374.215-.237-.262-.237-.262.383-.462.383-.462.106-.527.105-.528.078-.32.077-.32.25-.4.25-.4h-.327l.784-.847.785-.846v-.593l.48-.48.48-.48.005.423.005.423.28-.441.279-.441.355.22.356.22V56.62l.48-.184.48-.184v-1.105l.24-.24.24-.24.04-.294.04-.293.04-.602.04-.603 1.28-1.28 1.28-1.28v-.753l.264.163.264.163.708-1.457.708-1.457.624-.163.625-.164-.175-.283-.175-.283.418-.56.419-.561.446-.095.446-.096 1.76.554 1.76.554.72-.837.72-.836.434-.06.434-.06.353.038.354.038.864.8.863.801 1.023.526 1.023.525 2.663 1.75 2.663 1.749.348.764.349.765h.779l.395.476.396.477.25-.155.25-.154.191.498.191.499.323-.2.322-.199v.678h.96v.597l.56.18.56.18.96.791.96.792.72.723.72.724v-.553l.64.813.64.814v.661l.37.229.369.228-.233-.45-.233-.449.455.555.455.555.163-.163.163-.162.445.549.446.549-.45-.271-.449-.27.228.369.229.369h1.242v.747l.198-.198.198-.199.409.385.408.385.994.796.993.797v.807h.693l-.132.397-.132.397.402.403.403.403h.633l.106.24.107.24 2 .939 2 .939v.462l.598-.156.599-.157 1.721.86 1.722.861 2.473 1.448 2.473 1.447-.15.242-.15.243.557-.044.557-.044-.076.388-.076.389.462-.177.461-.178.895.895.894.894v-.237l1.2.57 1.2.569v.605l.32-.198.32-.198v.838l1.592.894 1.59.893.41.547.408.546.46.1.458.1 1.505 1.26 1.506 1.26h1.991v.64h.998l-.203-.4-.203-.4.456.555.455.555.179-.179.178-.178.99.512.99.511v-.414l.452.375.452.375.898.163.898.163.41.34.41.34v-.42l.72.402.72.402 1.36.36 1.36.36v-.45l1.84.148 1.84.147 1.22-.028 1.22-.027.766.501.766.502.334-.206.334-.207v.678H406.667l.115.345.115.345 1.111.09 1.112.089.24.045.24.046v175.68ZM56.16 86.72h.16v-.32H56v.32zm-42.88-.64h.16v-.32h-.32v.32zm-5.067-.747.214-.213-.214-.213L8 84.693v.854Zm2.507-.213h.16v-.32h-.32v.32zm-2.118-.96h.32l.198-.32.198-.32h-.64l-.198.32-.198.32Zm-.442-.64h.16v-.32H8v.32zm222.4-6.4h.16v-.32h-.32v.32zm37.76-4.16h.16v-.32h-.32v.32zm-7.307-1.707.214-.213-.214-.213-.213-.214v.854Zm-.915-1.645.18-.179-.398-.394-.398-.395.219.574.218.574zm-.72-1.128h.142v-.282l-.37-.229-.369-.228.228.37.229.369zm-.978-.32h.16v-.32h-.32v.32Zm-.96-1.6h.16v-.32h-.32v.32zm-11.2-2.24h.16V64h-.32v.32zm68.16-10.56h.16v-.32h-.32v.32zm-174.114 47.933-.446.412.005-.252.005-.253.275-.434.275-.434.167.274.166.274zm13.474.067h-.16v-.32h.32v.32zm-12.48-.32h-.16v-.32h.32v.32zm10.4 0h-.427l.214-.213.213-.214.213.214.214.213zm2.682 0h-.16l.198-.32.198-.32h.32l-.198.32-.198.32zm-15.193-.32h-.314l.412-.448.413-.447.112.106.112.106-.21.342-.212.341zm14.911-.32h-.16v-.32h.32v.32zm-16.32-.32h-.16v-.32h.32v.32zm.979 0h-.141l-.229-.37-.228-.369.37.228.369.229V100.48zm40.941 0h-.16v-.32h.32v.32zm-72-1.6h-.16v-.32h.32v.32zm2.56-.64h-.16v-.32h.32v.32zm23.68-.32h-.16v-.32h.32v.32zm-14.08-.32h-.16v-.32h.32v.32zm-23.68-.64H96v-.32h.32v.32zm-64.32-9.28h-.16v-.32H32v.32zm-2.88-.32h-.16v-.32h.32v.32zm.64 0h-.16v-.32h.32v.32zm39.981 0h-.141v-.64h.678l-.198.32-.198.32zm-51.501-.64h-.16v-.32h.32v.32zm179.04-.96h-.427l.214-.213.213-.214.213.214.214.213zM9.459 85.44h-.141l-.198-.32-.198-.32H9.6v.64zm9.421-.32h-.427l.214-.213.213-.214.213.214.214.213Zm188-1.6h-.16v-.32h.32v.32zm57.939-13.44h-.141l-.229-.37-.228-.369.37.228.369.229V70.08ZM241.44 67.2h-.16v-.32h.32v.32zm17.6 0h-.16v-.32h.32v.32zm95.36-2.56h-.16v-.32h.32v.32zm-1.92-1.6h-.16v-.32h.32v.32zm-96.96-4.8h-.16v-.32h.32v.32zm91.84-.32h-.16v-.32h.32v.32zm-36.8-1.28h-.16v-.32h.32v.32zM39.68 39.36h-.32v-.678l.32.198.32.198V39.36Zm4.613-.665-.613-.026.42-.168.42-.168.193.194.194.193Zm1.627-.295h-.16v-.32h.32v.32z" style="fill:#000" transform="translate(0 -38.08)"/></svg>