<svg xmlns="http://www.w3.org/2000/svg" xml:space="preserve" viewBox="0 0 505.32 359.71"><g style="display:inline"><path d="m400.77 94.08-.53.07-.54.07-.88 1-.89 1.02-2.16-.67-2.16-.67-.55.12-.55.12-.51.68-.51.68.21.34.22.34-.77.2-.77.19-.87 1.76-.87 1.75-.32-.2-.33-.2v.91l-1.57 1.54-1.58 1.54-.05.73-.05.72-.06.36-.05.35-.3.29-.29.3v1.32l-.59.22-.59.22v1.23l-.44-.26-.44-.27-.34.53-.34.54v-1.02l-.6.58-.59.57v.72l-.96 1.02-.97 1.02h.4l-.3.48-.31.48-.1.39-.08.38-.12.64-.13.63-.47.56-.47.55.3.32.29.32-.46-.26-.46-.26-.58.56-.58.57-.32-.27-.33-.28.53.69.54.68-.65-.24-.65-.25.24.62.24.63h-1.3l.28.44.28.44-.49-.3-.49-.28-1.34 1.27-1.34 1.28v1l-.3-.07-.3-.05-.78.31-.79.32-.49.36-.48.38-2.07.08-2.07.09-1.48.3-1.47.29v.68h-1.18v.65l-1.36.05-1.37.05-1.96.97-1.95.97-.28-.44-.27-.42-.22.17-.66.48.28-.32.28-.32-.54-.53-.55-.53h-1.18l-.12-.84-.13-.84-.42-.14-.44-.14-1.98 1.34-1.99 1.34-.27-.27-.27-.26-.55-1.29-.55-1.27-.44.26-.44.27.4-.72.4-.72-.97-1.16-.96-1.16-.75.97-.75.96-.61.68-.62.67v1.1l-1.86.7-1.87.7-.4.04-.39.03-1.28-.7-1.28-.7-.59.23-.59.22v.56h-1.14l.2-.32.2-.32h-.96l.26-.26.26-.25-.49-.6-.49-.58.6.34.58.34-.54-.65-.53-.65-.35.21-.35.22v-.87l-.4.24-.4.24.23.36.23.36h-1.28l.2.3.18.3h-1.45l.18-.26.17-.26-1.44.43-1.45.43.95.26.96.27-.66.03-.65.04-.62-.24-.63-.23v-1.08h-1.18v-1.23l-.82-1.12-.8-1.12h-1.13v-.81l-.34.2-.34.2.2-1 .2-1.01-.4.23-.4.24.2-.94.18-.96h-.9l.08-.87.1-.87-.7-1.58-.7-1.58-1.38-.65-1.37-.64-1.2.59-1.2.6h-1.51l.2.32.22.33-.98-.1-.97-.1.2.31.2.33-.8.25-.8.25-2.04 2-2.03 1.99-.32.05-.31.05-.3.05-.3.05.6.42.59.41-.89-.19-.88-.2v.84l-.24-.24-.24-.23-.5.46-.51.46.18.29.17.29h-.91l.24.62.24.61-.62-.23-.62-.23-.77.4-.77.4.23.37.23.37-.52.03-.5.04-.96.17-.95.17-.49.4-.48.4-.18-.5-.15-.5-1.15.57-1.15.58-.47.44-.47.44.21.2.22.22-1.58.46-1.58.47-.3 1-.28 1.01.09.72.09.71-.43-.25-.42-.26-.06.7-.05.7.05.44.06.45-.77.82h.34v.4h-.4v-.34l-.33.36-1.15 1.23-.42-.26-.44-.26-1.2.7-1.22.7-.54-.73-.54-.72-1.69-.02-1.7-.01-.97.25-.98.26-.99.7-.98.7-1.9.52-1.91.52-1.36.9-1.36.9h-1.36l-1.28 1.15-1.27 1.14-.2.02-.18.01h-.83l.24.39.25.38h-1.28l.23-.36.23-.37-.68-.36-.67-.37-1.4.63-1.4.64-.2.24-.2.23-.64-.1-.64-.1-.5.91-.51.93-.42.05-.43.05-1.08.07-1.08.09v-.6l-1.08.13-1.09.12-.24-.4-.25-.37-.93.5-.94.51-.28-.08-.28-.09.26.67.25.67-.6-.48-.6-.48-1.05.08-1.04.09v.65l.88-.23.89-.24-.72.43-.7.44-.55-.2-.53-.2-.52.63-.52.62.55-.32.55-.33-.28.45-.28.44h-.93l-.97 1.4-.98 1.4-1.68.7-1.68.7v1.2h-1.57l-.49.77-.5.77h-.86l-.74 1.35-.74 1.34h-.66l-1.39 1.04-1.39 1.04-.38.8-.38.79-.7 1.24-.71 1.24-.25-.25-.26-.24v.8l-.88-.1-.89-.08v-.14l-1.73-.17-1.74-.18-.42-.34-.43-.35-1.28.08-1.28.09v-.47l-.89-.04-.88-.01-2.26-.14-2.26-.14v-.42l-4.82.09-4.82.07-1.57.55-1.57.55-.54-.18-.56-.18.28.42.27.43-.6-.22-.62-.23v.94l-.66-.52-.67-.53.3.48.3.48-1.11.44-1.11.44-.9-.06-.91-.05.24.38.24.39-1.7-.04-1.69-.03.99-.34.98-.34-1.3.12-1.29.12-.24-.37-.24-.39.55.29.55.27-.69-.55-.69-.55-.03-.54-.04-.53-.2.48-.2.49-.37-.23-.38-.23-.57.47-.57.46v-1.2l-.78.05-.8.05v.61h-1.6l-1.01.65-1.02.66-1.36-.1-1.36-.08.25.4.25.4h-2.4v-1.15h-.84l.29.44.28.45-.46-.28-.47-.28.23-.35.22-.37-.5-.05-.52-.05-.3.05-.3.05v-.85l-.67.25-.68.26.27-.27.28-.27-1.27-.68-1.27-.68.1-.45.11-.45-.4.25-.4.24-.01-.5v-.5l-.35.53-.34.52-.45-.26-.44-.27.27-.42.26-.42-.4.24-.4.24-.7-.75-.7-.75-.3.2-.32.17-1.01-.9-1.02-.92v-.88h-.91l.25-.25.25-.24-.67-1.12-.68-1.12-.99.1-.98.13.1.48.1.48h-.8l-.88 1-.88 1.01-.88.33-.88.33.23.6.23.59h-.84l-1.88 1.17-1.88 1.17-.7-.17-.68-.17v.67l-.59-.22-.59-.22v.85h-1.54l-.48-.5-.47-.5-2 .32-2 .32-1.18.12-1.18.12-1.05.05-1.06.05-.61.6-.62.6-.48-.29-.48-.3-1.5-.13-1.48-.14v1l-.35-.52-.34-.53-.54.17-.54.18-.52-.6-.52-.62.22.44.23.44-.79.2-.78.2-.26-.41-.25-.4.52.3.51.32-.24-.38-.23-.37-1.99-.04-1.98-.03-1.24-.6-1.25-.61h-.36l.25.62.25.64-.7-.54-.7-.53-.58-.62-.6-.62-1.57-.68-1.57-.7-1.62-.72-1.62-.73-1.38-1.31-1.38-1.3-3.68-1.72-3.69-1.7-2.92-1.3-2.9-1.32-.56-.53-.55-.54-2.63-.05-2.63-.05-.7.68-.68.67h-1.14l-.24-.38-.24-.38.62.23.61.23-.21-.55-.22-.55-4.01-1.22-4.02-1.23-1.18-.22-1.18-.22-1.17.43-1.16.44.57.35.58.36-.79.06-.79.05-.29-.05-.3-.06v.78h-.87l.21-.54.21-.54-1.2-.23-1.2-.24h-2.93l-2.3-.74-2.32-.75-.14-.41-.14-.4h-3.48v-.78h-.83l.28.44.28.44-1.34-.3-1.33-.28-1.58-.05-1.57-.05-.58.18-.57.18-.4.3-.42.29-1.06.92-1.05.91.17.18.18.17-1.2 1.11-1.19 1.12-2.19.09-2.18.08-.26.29-.25.27.69-.24.68-.24v.66l-.9.22-.91.23-1.55-.4-1.55-.4-2.06-1.04-2.07-1.03v-.55l-1.35-.24-1.36-.25-2.15 1-2.14.99-2.27.21-2.27.22-.33.2-.33.2v-.82l.4-.05.4-.05.29-.1.3-.08 1.27-.29 1.28-.3v-.65l-1.18.23-1.2.24.25-.63.25-.63h-.55l-1.72 1.78-1.72 1.78-.7-.28-.7-.28.88-.4.88-.4v-.7l-.45.27-.45.28 1.25-1.8 1.26-1.79h-.82l-.02.29-.01.29-1 1.15-1.02 1.16.2-.83.18-.82-.3-.47-.29-.46-.26 1.02-.26 1.01-.38-.23-.38-.23v-2.35l-.82.9-.82.92.2-.62.18-.6-.34-.55-.36-.55v1.16l-.02 1.16-.33-.52-.33-.51-.23 1.14-.23 1.13-.81.21-.8.2v-1.45l.74-.46.75-.46-.2-.5-.2-.52h1.26l-.01-.28-.02-.3-.67-1.17-.67-1.17-.6.04-.58.03-.85-.52-.84-.51-.25.5-.23.5.2-1.03.2-1.03-.24-.6-.24-.61-.35.21-.35.22v-.87l-.4.25-.41.24.1-.5.11-.5.47-.5.46-.48h.8l.52-.7.51-.7.78-.3.8-.3-1.11-.56-1.1-.57-.95.12-.94.12-.02-.3-.01-.28v-.7l.78.2.8.2v-.8l.62-.62.62-.62-.62-.93-.63-.93-2.18.1-2.18.1.2-.5.19-.48-.8-.25-.78-.25.5-.58.5-.59-.71-.5-.72-.52-.55.2-.55.22v-.54l.84-1.17.84-1.15-.54-.34-.56-.34H.37l-.47.45-.48.47v240.71H502.84V148.9l-.3-.05-.29-.05-1.37-.1-1.36-.1-.14-.42-.14-.42h-1.9v-.81l-.42.24-.41.25-.94-.6-.94-.6-1.5.03-1.5.04-2.27-.18-2.26-.18v.54l-1.67-.43-1.67-.43-.89-.49-.88-.48v.5l-.5-.4-.5-.42-1.11-.2-1.1-.19-.56-.45-.55-.46v.5l-1.22-.61-1.22-.62-.22.22-.22.21-.56-.67-.56-.67.25.48.26.5h-1.23v-.78h-2.45l-1.85-1.52-1.85-1.52-.56-.12-.57-.12-.5-.65-.5-.67-1.96-1.07-1.96-1.08v-1l-.39.23-.4.24v-.73l-1.47-.69-1.47-.68v.28l-1.1-1.07-1.1-1.08-.57.21-.57.22.1-.47.08-.47-.68.05-.69.05.19-.3.18-.28-3.04-1.75-3.04-1.74-2.11-1.03-2.12-1.04-.73.19-.74.19v-.56l-2.46-1.13-2.46-1.13-.12-.3-.12-.28h-.78l-.5-.49-.5-.48.17-.48.15-.48h-.85v-.97l-1.22-.96-1.22-.96-.5-.46-.5-.46-.25.23-.24.25v-.9h-1.53l-.28-.45-.28-.44.55.32.55.33-.54-.66-.55-.67-.2.2-.2.2-.56-.67-.56-.67.29.54.28.54-.45-.27-.45-.28v-.8l-.8-.98-.78-.98v.67l-.89-.87-.88-.87-1.18-.95-1.18-.96-.69-.22-.69-.2v-.73h-1.18v-.82l-.4.24-.4.24-.22-.6-.24-.6-.3.19-.31.19-.49-.58-.48-.57h-.96l-.43-.92-.42-.92-3.28-2.1-3.27-2.12-1.26-.62-1.26-.64-1.06-.97-1.06-.96-.43-.05zm-118.19 39.45.06-.06h-.06zm69.13-4.38-.01-.02zm0 0 .5.3.52.3-.3-.46-.3-.46zm33.92-23.81h.39v.39h-.4zm-4.72 3.47v.39h.4v-.39zm45.22 1.54v.39h.4v-.39zm-112.87.39v.38h.4v-.38zm119.17 5.78v.38h.39v-.38zm-130.57 1.54h.39v.38h-.4zm132.93.39v.38h.39v-.38zm-119.17 2.3h.4v.4h-.4zm-19.66.78v.38h.4v-.38zm21.62 0v.38h.4v-.38zm-.11 1.04.45.27.46.27v.34h-.35l-.28-.44zm-.67.11h.4v.39h-.4zm1.53.97.49.47.48.48-.21.21-.23.22-.26-.7zm1.79.6v1.1l.32-.2.33-.2v.77l.43.26.44.26-.44-.8-.43-.8-.33-.19zm4.03.24.28.45.28.44h.35v-.34l-.45-.27zm-4.2 1.53.26.26.26.26-.26.25-.27.26zm9.04 2.44h.4v.39h-.4zM9.26 141.18h.39v.38h-.4zm244.22 0v.39h.4v-.39zm-243.4.39h.8l-.25.39-.24.38H9.6l.25-.38zm-.82 1.4.26.27.26.25-.26.26-.26.26zm13.37.01-.26.26-.27.26h1.05l-.26-.26zm-12.24.13.24.39.24.38h.36v-.77Zm2.01 0h.4v.38h-.4zm229.29.64-.27.26-.26.26h1.05l-.26-.26zm-226.14.52h.4v.38h-.4zm52.7.77h.39v.38h-.39zm-46.8 0v.38h.4v-.38zm63.31.38v.78h.35l.24-.4.25-.38zm-49.94.39v.39h.4v-.4zm.78 0v.39h.4v-.4zm2.76.39v.38h.4v-.38zm79.05 11.17v.38h.4v-.38zm29.1.77v.39h.4v-.39zm17.3.39v.38h.4v-.38zm-29.1.38v.39h.4v-.39zm-3.14.77v.39h.39v-.39zm37.63 1.43.28.44.28.45H170.1v-.35l-.45-.27zm-.66.5v.39h.39v-.4zm51.51 0v.39h.4v-.4zm-48.96.08-.5.54-.51.53h.78l.25-.42.26-.4-.14-.13zm17.5.3v.4h.4v-.4zm-16.61.3-.34.53-.34.52v.3l-.01.31.54-.5.55-.5-.2-.33zm17.44.1-.24.37-.24.4h.4l.23-.4.25-.38zm-3.58.25-.26.26-.27.25h1.05l-.26-.25zm-12.98.12v.4h.4v-.4zm15.34.4v.38h.4v-.39z" style="fill:#f0f;stroke-width:1.21661" transform="translate(1.53 -.76)"/><path d="M-1.53.76v93.27H503.8V.76Z" style="fill:none;stroke-width:.364082" transform="translate(1.53 -.76)"/></g></svg>