<svg xmlns="http://www.w3.org/2000/svg" xml:space="preserve" viewBox="0 0 508 79.375"><path d="m379.783 6.974-.666.025-.667.024-1.106.342-1.106.341-2.703-.226-2.704-.226-.685.04-.685.038-.643.229-.643.229.27.115.268.115-.96.068-.959.066-1.087.595-1.087.594-.406-.066-.405-.066v.307l-1.967.523-1.966.522-.061.246-.062.246-.061.12-.062.12-.368.097-.369.098v.451l-.737.075-.737.076v.415l-.548-.09-.544-.09-.43.18-.43.18-.005-.172-.006-.173-.737.196-.738.196v.242l-1.205.346-1.204.345h.502l-.384.163-.384.164-.118.13-.12.131-.161.216-.163.215-.588.189-.589.188.364.107.364.107-.574-.088-.575-.087-.72.19-.718.192-.41-.092-.411-.092.668.231.668.232-.813-.082-.812-.083.304.21.303.21h-1.638l.352.151.35.151-.61-.1-.61-.1-1.679.432-1.677.433v.34l-.368-.021-.37-.02-.982.106-.983.106-.608.125-.608.125-2.588.031-2.586.031-1.843.1-1.843.1v.231h-1.475v.22l-1.707.016-1.705.017-2.446.33-2.446.33-.348-.15-.333-.143-.276.055-.816.166.345-.11.345-.109-.678-.18-.68-.18h-1.476l-.157-.284-.156-.284-.536-.046-.538-.048-2.482.455-2.482.453-.343-.09-.342-.09-.684-.435-.683-.433-.55.09-.55.09.492-.245.493-.244-1.201-.392-1.198-.39-.94.326-.94.326-.762.229-.764.228v.37l-2.335.239-2.334.238-.492.012-.492.013-1.597-.236-1.6-.236-.733.076-.738.074v.19h-1.431l.253-.108.254-.11h-1.204l.323-.086.322-.085-.61-.2-.609-.201.738.115.736.116-.67-.22-.67-.219-.435.071-.436.072v-.292l-.5.082-.5.082.284.122.283.12h-1.592l.24.104.238.103h-1.821l.21-.091.21-.09-1.808.147-1.808.147 1.192.089 1.193.088-.82.012-.82.013-.777-.08-.778-.078v-.38l.541.089.54.088-.544-.27-.544-.268-.405-.067-.407-.068v.37l.409-.068.41-.067v.276h-1.475V17.3l-1.017-.38-1.017-.379h-1.407v-.277l-.42.07-.42.069.246-.342.245-.343-.491.081-.492.08.23-.322.234-.322h-1.136l.105-.294.105-.294-.872-.537-.87-.537-1.718-.218-1.717-.217-1.505.199-1.506.2h-1.873l.26.112.262.112-1.217-.035-1.218-.036.255.11.255.11-1.004.084-1.005.086-2.542.675-2.544.676-.392.016-.391.016-.37.019-.367.018.737.14.737.14-1.106-.064-1.106-.064v.28l-.298-.08-.298-.08-.634.157-.633.155.223.098.224.098h-1.146l.303.21.304.211-.779-.08-.777-.079-.961.137-.962.137.289.124.288.124-.643.009-.644.009-1.19.058-1.191.058-.605.134-.604.133-.215-.169-.212-.168-1.433.196-1.431.196-.592.147-.59.148.27.072.27.072-1.977.157-1.978.157-.36.342-.361.342.119.242.118.243-.532-.087-.53-.088-.06.237-.058.236.071.152.069.152-.99.288h.476v.13h-.492v-.126l-.434.126-1.439.42-.537-.09-.538-.087-1.512.236-1.512.236-.676-.245-.676-.245-2.114-.006-2.113-.008-1.223.088-1.224.086-1.234.239-1.234.239-2.378.175-2.38.174-1.698.306-1.697.307h-1.705l-1.598.388-1.597.387-.232.005-.232.005h-1.042l.304.13.305.13h-1.592l.286-.122.284-.122-.839-.126-.84-.124-1.75.215-1.752.215-.246.08-.245.079-.805-.034-.805-.033-.63.314-.63.312-.531.02-.531.021-1.352.025-1.352.026v-.2l-1.352.04-1.35.04-.306-.13-.308-.13-1.168.172-1.167.171-.35-.026-.352-.026.318.227.322.227-.757-.163-.758-.163-1.3.028-1.302.029v.221l1.106-.08 1.106-.08-.89.147-.89.148-.672-.068-.67-.069-.652.213-.65.214.69-.11.69-.111-.349.15-.351.151h-.586l-.585.002-1.212.473-1.213.473-2.107.24-2.104.24v.401h-1.957l-.614.26-.615.262H164.9l-.927.457-.927.458h-.825l-1.736.352-1.736.351-.477.27-.476.268-.88.421-.88.42-.315-.083-.315-.084v.27l-1.105-.031-1.107-.03v-.05l-2.169-.058-2.169-.06-.535-.118-.536-.118-1.594.029-1.598.03v-.16l-1.106-.008-1.106-.008-2.826-.05-2.826-.05v-.142l-6.021.027-6.021.026-1.966.187-1.967.188-.682-.062-.683-.063.34.146.338.145-.761-.077-.764-.077v.32l-.832-.179-.83-.18.369.165.37.163-1.38.149-1.383.148-1.132-.017-1.134-.018.302.13.302.13-2.118-.013-2.118-.012 1.229-.114 1.228-.114-1.619.04-1.619.04-.3-.129-.3-.13.69.096.69.095-.86-.187-.86-.187-.04-.182-.041-.181-.25.163-.248.165-.47-.077-.471-.078-.717.158-.715.158v-.408l-.983.02-.983.02v.205h-2.002l-1.271.222-1.272.221-1.7-.03-1.7-.03.315.135.315.135h-3.008v-.391h-1.041l.351.15.35.151-.576-.095-.575-.094.283-.122.283-.122-.642-.015-.645-.015-.369.015-.368.015v-.288l-.845.086-.845.086.34-.09.34-.091-1.583-.231-1.585-.232.135-.152.135-.152-.504.083-.504.083-.006-.171-.006-.171-.43.18-.429.18-.556-.09-.553-.092.328-.142.33-.142-.502.083-.5.082-.87-.255-.868-.255-.391.064-.394.064-1.262-.31-1.263-.311v-.297h-1.146l.314-.084.314-.083-.842-.38-.843-.379-1.233.039-1.233.038.123.163.123.163h-.99l-1.103.341-1.102.34-1.097.113-1.096.113.29.2.289.2H66.47l-2.352.397-2.35.398-.861-.06-.86-.058v.229l-.738-.075-.737-.075v.289h-1.928l-.596-.17-.596-.17-2.494.108-2.496.108-1.475.042-1.474.041-1.316.02-1.318.02-.769.205-.768.205-.606-.1-.607-.1-1.854-.046-1.856-.046-.005.17-.007.17-.427-.18-.427-.178-.671.06-.671.06-.652-.208-.65-.207.277.149.276.148-.977.068-.977.067-.322-.138-.323-.139.644.106.643.106-.295-.127-.293-.126-2.482-.015-2.482-.013-1.553-.206-1.553-.206h-.445l.308.214.31.215-.872-.182-.87-.182-.738-.208-.737-.208-1.966-.234-1.967-.234-2.029-.248-2.027-.247-1.72-.444-1.72-.443-4.609-.578-4.607-.579-1.039-.126v71.669H192.76l314.575-.001v-71.71l-.37-.02-.367-.017-1.709-.037-1.706-.037-.176-.14-.177-.141h-2.377v-.277l-.512.084-.514.085-1.176-.205-1.177-.205-1.874.01-1.874.012-2.826-.06-2.826-.06v.183l-2.09-.147-2.088-.147-1.106-.164-1.106-.164v.171l-.63-.139-.63-.139-1.379-.066-1.38-.066-.694-.153-.694-.153v.168l-1.52-.208-1.521-.21-.273.074-.276.073-.699-.227-.7-.226.312.163.311.163h-1.533v-.261h-3.058l-2.313-.514-2.311-.515-.704-.04-.707-.042-.626-.222-.63-.223-2.443-.365-2.445-.365v-.342l-.492.081-.491.08v-.246l-1.844-.232-1.843-.233v.096l-1.373-.364-1.374-.366-.709.073-.71.072.117-.159.117-.158-.855.018-.856.018.23-.1.231-.098-3.799-.59-3.798-.591-2.645-.353-2.644-.35-.92.064-.918.064v-.19l-3.072-.383-3.072-.382-.164-.099-.163-.097h-.973l-.619-.165-.617-.165.202-.161.203-.162h-1.065v-.33l-1.525-.325-1.527-.325-.626-.158-.629-.156-.304.08-.304.082v-.306h-1.908l-.351-.15-.35-.15.69.11.69.11-.685-.224-.684-.224-.25.066-.25.067-.699-.227-.699-.227.358.184.358.183-.566-.093-.569-.093v-.27l-.983-.332-.983-.332v.226l-1.105-.296-1.107-.295-1.474-.323-1.475-.323-.86-.074-.86-.073v-.243h-1.475v-.277l-.495.081-.496.081-.293-.204-.293-.203-.384.063-.384.064-.608-.196-.606-.194h-1.197l-.536-.312-.534-.312-4.091-.714-4.09-.714-1.572-.214-1.571-.215-1.326-.327-1.327-.326-.543-.016zM232.081 20.336l.016-.005h-.016zm86.373-1.477.01-.003-.025-.004zm.01-.003.618.102.644.105-.366-.156-.366-.158zm42.396-8.06h.492v.13h-.492Zm-5.898 1.175v.13h.492v-.13zm56.526.522v.13h.491v-.13zm-141.067.13v.132h.491v-.132zm148.93 1.96v.13h.493v-.13Zm-163.185.523h.491v.13h-.491zm166.135.13v.13h.492v-.13Zm-148.932.784h.492v.13h-.492zm-24.576.261v.13h.492v-.13zm27.034 0v.13h.492v-.13zm-.151.352.566.093.568.093v.116h-.433l-.352-.15zm-.832.04h.491v.131h-.491zm1.908.327.611.161.611.161-.276.073-.275.073-.335-.234zm7.279.286.35.15.352.151h.433v-.115l-.567-.093zm-5.255.52.327.087.329.087-.329.087-.327.087zm11.305.827h.491v.13h-.491zm-94.372 4.31v.13h.492v-.13zm-14.746.87-.327.088-.329.087h1.312l-.328-.087zM25.642 28.43v.13h.492v-.13zm36.373.261v.13h.492v-.13zm21.627.13v.131h.491v-.13Zm-36.373.131v.131h.492v-.13Zm-3.932.262v.13h.491v-.13zm47.034.481.35.151.352.152h.433v-.116l-.567-.093Zm-.83.172v.13h.491v-.13zm64.389 0v.13h.491v-.13zm-61.195.026-.635.183-.633.183h.963l.326-.14.323-.139-.172-.043zm21.873.105v.13h.491v-.13zm-20.77.103-.423.177-.422.177-.006.103-.007.103.686-.168.684-.169-.255-.111zm21.811.027-.304.13-.304.132h.491l.305-.131.304-.13zm-4.482.087-.327.087-.329.088h1.312l-.329-.088zm-16.22.044v.13h.492v-.13Zm19.17.13v.131h.491v-.13z" style="fill:#000;stroke-width:.791817"/></svg>