<svg xmlns="http://www.w3.org/2000/svg" version="1.0" viewBox="0 0 1200 1200"><g fill="currentColor"><path d="M669.3 107.3c-.7 1.6-1.3 3.1-1.3 3.3 0 .3-2.1 4.6-4.6 9.7-12.6 25.2-29.1 41.5-62.1 61.6-28.9 17.6-39.4 25.1-49.4 35-21 21.1-29.2 43.5-29.1 80.1 0 17 3.3 49.2 4.9 47.7.2-.3 1.5-5.9 2.8-12.4 6.7-32.7 21.5-58.9 45-79.5 4.4-3.9 18.4-14.8 31-24.3 32.6-24.4 45.3-38.2 54.2-58.6 6.8-15.8 10.7-37.3 10.1-55.9-.3-8.6-.4-9.2-1.5-6.7zM660.5 192.7c-1.8 14.9-9.5 33.2-19.4 46.4-8.1 10.7-24.3 25.4-46.1 41.8-24.8 18.7-29.5 22.5-38.3 31.4-27.3 27.8-31.3 59.4-13.2 104 4.5 11 17.3 35.7 18.5 35.7.4 0 .3-2.4-.1-5.3-1.3-9.4-1-31 .7-39.7 3.7-19.9 12.2-36.4 27.9-54.4 4.1-4.7 17.1-17.3 28.8-28 24-21.8 30.4-28.6 38.2-40.2 10.6-15.8 14.5-28.5 14.5-48 0-7-.7-15.8-1.6-20.5-1.6-8.7-7-26.8-8.4-28.2-.4-.5-1.1 1.8-1.5 5zM627.2 355.4c-.5 17.8-7.8 35.7-22.7 55.6-19.5 26-24.7 35.5-27.2 49.7-2.6 15.5 1.1 33.1 11.3 53.4 5.1 10.3 9.3 17.3 10 16.7.2-.2-.3-3.8-1.2-7.9-1-4.5-1.6-12.2-1.6-19.4 0-20.7 5.1-34.9 21.8-61.7 8.3-13.2 14.4-24.8 16.7-31.9 4.2-12.4 4.6-28.4 1.2-42-1.8-7.2-6.7-20.9-7.5-20.9-.3 0-.6 3.8-.8 8.4z"/><path d="M569.5 408c-.3.5-.9 4.1-1.2 8l-.6 7h19.2l6.1-8 6.1-8h-14.5c-8.6 0-14.7.4-15.1 1z"/><path d="M523.5 408.7c-103.3 6.5-185.3 23.7-240 50.3-22.4 10.9-37.2 21.6-46.1 33.3-9.7 12.9-10.7 17.3-12.4 54.5-3.1 68 6.8 128.8 29 178.4 2.7 6.1 4.9 11.2 4.7 11.3-.1.2-8.5 2.6-18.7 5.5-107.1 30.2-154.7 84.1-130.7 148 6.5 17.2 15.9 31.1 33.2 48.9 57.6 59.3 167.8 103.9 297 120 49.9 6.3 90.9 7.9 155.7 6.3 71.5-1.8 118.3-5.3 170.3-12.8 116.6-16.8 204-49.4 249.6-93.1 24.4-23.5 35.8-45 38.4-73.1.6-6.4-.2-21.9-1.1-21-.1.2-1 3.9-1.9 8.3-11.3 54.9-82.8 102.3-196.5 130.4-49.6 12.3-96.5 19.3-161 24.3-26.4 2.1-121.6 1.7-151-.5-81-6.1-145.1-15.8-205.3-30.8-113.6-28.5-189.5-73.3-207.8-122.7-4-11.1-5.1-26-2.5-36.2 9.4-37.2 50.6-69.7 120.8-95.5 6.7-2.5 12.2-4.5 12.4-4.5.1 0 3 5.1 6.4 11.2 13 23.6 28 44.1 56.1 77 30 35.1 38.8 46.7 46.5 62.1 5.6 11 10.4 25.9 10.4 32.1 0 3.8 3.3 6.4 16.8 13.4 78.1 40.4 216.2 48 309.6 17.1 18.1-6 36.2-14.5 49.6-23.3 9.9-6.5 28.1-22.7 26.2-23.4-.6-.2-3.3.8-6.1 2.2-15.5 7.9-46.5 18.9-69.1 24.6-96.6 24.3-203.9 17.6-284.2-17.7-14.6-6.4-14.7-6.5-15.4-10.1-1.9-11.8-6.2-24.4-11.7-34.2-7.5-13.6-16.9-25.3-42.8-53.5-19.8-21.6-27.6-30.8-37.9-44.6-30.3-40.6-48.6-87.8-55.4-142.9-2.6-21.3-4.7-63-3-63 .3 0 3.1 1.7 6.2 3.9 33 22.3 96.8 42.2 170.2 53 182.2 26.8 398.2 2.7 482.7-53.8 31.1-20.8 40.9-43.4 29.1-67.1-4.2-8.4-17.2-21.5-29-29.3-46.5-30.9-141.9-54.9-244.3-61.7-8.8-.5-18.7-1.2-22.1-1.5l-6-.5-2.8 6.7c-4.3 10.7-4.4 10.1.6 10.7 2.3.3 11.3 1 19.8 1.6 90.2 6.6 173.4 27.6 212.7 53.7 20.6 13.7 29.6 31.1 23.3 45.1l-2 4.4-4.7-3.6C840 489.1 745.6 463.4 634.5 457c-17.8-1-19.1-.9-20.3.7-3.4 4.6-9.3 18.7-11.3 26.8-1.9 7.9-2.1 10.9-1.6 24.5.4 11.1 1.1 17.8 2.6 23.4 1.2 4.3 2.1 8.1 2.1 8.4 0 1.5-13.8-13.1-19.2-20.3-9.7-12.9-14.8-25-16.3-38.5-.6-5.8.4-17.8 2.1-23.8.6-2.2.6-2.2-10.2-2.2-30.1 0-81.4 4.8-118.2 11.1-81.5 13.8-144.7 39.2-176 70.7-7.2 7.3-7.3 7.3-9.7 5.8-3.4-2.2-10.4-11.3-12.7-16.3-9.3-20.9 7.8-42.3 48.7-60.6 50.2-22.6 131.6-37.6 229.6-42.5l14.7-.7-3.1-7.8c-2.5-6.4-3.4-7.7-5.1-7.5-1.2.1-4.3.3-7.1.5z"/><path d="M991.3 590.4c-41.2 7.9-77.5 36.9-92.3 73.9-1.7 4.2-3 8.1-3 8.8 0 .8 3.5-2.1 7.8-6.2 15.7-15.4 33.8-28.3 52.7-37.5 13.5-6.5 20.1-8.3 33.1-9.1 34.4-2 62.4 21.4 62.4 52.3 0 11.3-7.5 35.3-16.7 53.8-22.4 44.7-57.2 75.8-100.6 90.1-13.1 4.3-29.7 7.5-38.6 7.5-14.2 0-30.4-4.4-36.5-9.8-1.9-1.8-4.4-6.1-5.7-10.2-.6-1.8-.8-.7-.6 3.5.9 18.8 19.6 32.8 50.8 38.1 13.6 2.2 41.1 1.5 54.7-1.5 51.4-11.3 93.1-44.1 118-92.8 24.1-47.2 26.6-102.1 5.9-129.4-10.3-13.6-28.5-25.2-47.7-30.3-8.8-2.4-33.9-3-43.7-1.2zM275.6 853.1c-5.9 1.4-13.7 5.6-17.8 9.6-5.3 5.1-9.2 14.3-9.2 21.8 0 6.2 1.2 9.4 4.7 13.2 2.8 3.1 4.1 2.9 5.5-1.1 1.8-4.9 9.5-13.1 14.6-15.5 3.2-1.6 8.3-2.5 20.2-3.6 17.6-1.6 18.7-2.1 20-9 .9-5.1-1.9-9.2-9-12.9-5.3-2.8-7-3.1-15.5-3.3-5.3-.1-11.3.2-13.5.8zM210.3 856.4c-5.7 1.8-10.4 4.9-14.7 9.6-6.1 6.8-7.9 11.4-8.4 21.8-.5 11.1.9 17.2 5 21.3 4.3 4.3 5.4 3.8 6.2-2.9.8-7.4 4.4-14.9 8.9-18.9 2-1.8 7.9-5.3 13.2-7.8 10.6-5 12.1-6.9 11.2-13.8-.7-4.9-2.8-7.2-8.5-9.1-5.4-1.9-7.3-1.9-12.9-.2z"/><path d="M231.2 874.6c-1.4 2.1-6.2 6-12 9.8-13.5 8.9-16.4 12.4-17.6 22.1-1.9 14.8 8 16.4 21.8 3.5 10.7-10.1 14.8-20.7 12.6-32.6-.7-3.5-1.5-6.4-1.9-6.4-.3 0-1.6 1.6-2.9 3.6zM309 877.2c-3.3 1.6-9.4 3.3-15 4.3-19.6 3.1-27.2 7.1-30.4 15.8-2.5 6.9-2.4 8.7.6 11 10.4 7.8 41.6-3.3 48.8-17.3 2.2-4.4 3.6-13.2 2.4-15.1-.7-1.1-1.9-.9-6.4 1.3zM742.9 949.5c-.9.9-35.5 9.5-50.1 12.4-90.8 18.4-190.8 16.4-273.6-5.5-7.2-1.9-14-3.7-15-4.1-1.2-.4-1.4-.3-.7.4 1.6 1.7 46.3 16 63 20.3 14.7 3.7 31.4 6.9 48.5 9.1 13.1 1.6 83.7 2.4 97.8.9 44.5-4.4 88-13.6 114.5-24.1 9.5-3.7 18.7-8.4 18.7-9.4 0-.6-2.5-.6-3.1 0zM871 1042c-66.6 18.8-138 30.6-220 36.2-24.3 1.7-105.8 1.7-129.5 0-76-5.4-139.2-15.8-203-33.7-15.7-4.3-12.6-2.6 7 4.1 76.4 26 119.1 36.8 167 42.3 32.4 3.8 46.7 4.3 110.5 3.9 59.8-.4 62.1-.5 83-3.2 79-10 141.1-24.3 182.5-42.1 11.4-4.9 23.1-11 24.1-12.6.7-1.3 1.2-1.4-21.6 5.1z"/></g></svg>