<?xml version="1.0" standalone="no"?>
<!DOCTYPE svg PUBLIC "-//W3C//DTD SVG 20010904//EN"
 "http://www.w3.org/TR/2001/REC-SVG-20010904/DTD/svg10.dtd">
<svg version="1.0" xmlns="http://www.w3.org/2000/svg"
 width="1200.000000pt" height="1200.000000pt" viewBox="0 0 1200.000000 1200.000000"
 preserveAspectRatio="xMidYMid meet">
<metadata>
Created by potrace 1.16, written by Peter Selinger 2001-2019
</metadata>
<g transform="translate(0.000000,1200.000000) scale(0.100000,-0.100000)"
fill="#000000" stroke="none">
<path d="M6693 10927 c-7 -16 -13 -31 -13 -33 0 -3 -21 -46 -46 -97 -126 -252
-291 -415 -621 -616 -289 -176 -394 -251 -494 -350 -210 -211 -292 -435 -291
-801 0 -170 33 -492 49 -477 2 3 15 59 28 124 67 327 215 589 450 795 44 39
184 148 310 243 326 244 453 382 542 586 68 158 107 373 101 559 -3 86 -4 92
-15 67z"/>
<path d="M6605 10073 c-18 -149 -95 -332 -194 -464 -81 -107 -243 -254 -461
-418 -248 -187 -295 -225 -383 -314 -273 -278 -313 -594 -132 -1040 45 -110
173 -357 185 -357 4 0 3 24 -1 53 -13 94 -10 310 7 397 37 199 122 364 279
544 41 47 171 173 288 280 240 218 304 286 382 402 106 158 145 285 145 480 0
70 -7 158 -16 205 -16 87 -70 268 -84 282 -4 5 -11 -18 -15 -50z"/>
<path d="M6272 8446 c-5 -178 -78 -357 -227 -556 -195 -260 -247 -355 -272
-497 -26 -155 11 -331 113 -534 51 -103 93 -173 100 -167 2 2 -3 38 -12 79
-10 45 -16 122 -16 194 0 207 51 349 218 617 83 132 144 248 167 319 42 124
46 284 12 420 -18 72 -67 209 -75 209 -3 0 -6 -38 -8 -84z"/>
<path d="M5695 7920 c-3 -5 -9 -41 -12 -80 l-6 -70 96 0 96 0 61 80 61 80
-145 0 c-86 0 -147 -4 -151 -10z"/>
<path d="M5235 7913 c-1033 -65 -1853 -237 -2400 -503 -224 -109 -372 -216
-461 -333 -97 -129 -107 -173 -124 -545 -31 -680 68 -1288 290 -1784 27 -61
49 -112 47 -113 -1 -2 -85 -26 -187 -55 -1071 -302 -1547 -841 -1307 -1480 65
-172 159 -311 332 -489 576 -593 1678 -1039 2970 -1200 499 -63 909 -79 1557
-63 715 18 1183 53 1703 128 1166 168 2040 494 2496 931 244 235 358 450 384
731 6 64 -2 219 -11 210 -1 -2 -10 -39 -19 -83 -113 -549 -828 -1023 -1965
-1304 -496 -123 -965 -193 -1610 -243 -264 -21 -1216 -17 -1510 5 -810 61
-1451 158 -2053 308 -1136 285 -1895 733 -2078 1227 -40 111 -51 260 -25 362
94 372 506 697 1208 955 67 25 122 45 124 45 1 0 30 -51 64 -112 130 -236 280
-441 561 -770 300 -351 388 -467 465 -621 56 -110 104 -259 104 -321 0 -38 33
-64 168 -134 781 -404 2162 -480 3096 -171 181 60 362 145 496 233 99 65 281
227 262 234 -6 2 -33 -8 -61 -22 -155 -79 -465 -189 -691 -246 -966 -243
-2039 -176 -2842 177 -146 64 -147 65 -154 101 -19 118 -62 244 -117 342 -75
136 -169 253 -428 535 -198 216 -276 308 -379 446 -303 406 -486 878 -554
1429 -26 213 -47 630 -30 630 3 0 31 -17 62 -39 330 -223 968 -422 1702 -530
1822 -268 3982 -27 4827 538 311 208 409 434 291 671 -42 84 -172 215 -290
293 -465 309 -1419 549 -2443 617 -88 5 -187 12 -221 15 l-60 5 -28 -67 c-43
-107 -44 -101 6 -107 23 -3 113 -10 198 -16 902 -66 1734 -276 2127 -537 206
-137 296 -311 233 -451 l-20 -44 -47 36 c-493 375 -1437 632 -2548 696 -178
10 -191 9 -203 -7 -34 -46 -93 -187 -113 -268 -19 -79 -21 -109 -16 -245 4
-111 11 -178 26 -234 12 -43 21 -81 21 -84 0 -15 -138 131 -192 203 -97 129
-148 250 -163 385 -6 58 4 178 21 238 6 22 6 22 -102 22 -301 0 -814 -48
-1182 -111 -815 -138 -1447 -392 -1760 -707 -72 -73 -73 -73 -97 -58 -34 22
-104 113 -127 163 -93 209 78 423 487 606 502 226 1316 376 2296 425 l147 7
-31 78 c-25 64 -34 77 -51 75 -12 -1 -43 -3 -71 -5z"/>
<path d="M9913 6096 c-412 -79 -775 -369 -923 -739 -17 -42 -30 -81 -30 -88 0
-8 35 21 78 62 157 154 338 283 527 375 135 65 201 83 331 91 344 20 624 -214
624 -523 0 -113 -75 -353 -167 -538 -224 -447 -572 -758 -1006 -901 -131 -43
-297 -75 -386 -75 -142 0 -304 44 -365 98 -19 18 -44 61 -57 102 -6 18 -8 7
-6 -35 9 -188 196 -328 508 -381 136 -22 411 -15 547 15 514 113 931 441 1180
928 241 472 266 1021 59 1294 -103 136 -285 252 -477 303 -88 24 -339 30 -437
12z"/>
<path d="M2756 3469 c-59 -14 -137 -56 -178 -96 -53 -51 -92 -143 -92 -218 0
-62 12 -94 47 -132 28 -31 41 -29 55 11 18 49 95 131 146 155 32 16 83 25 202
36 176 16 187 21 200 90 9 51 -19 92 -90 129 -53 28 -70 31 -155 33 -53 1
-113 -2 -135 -8z"/>
<path d="M2103 3436 c-57 -18 -104 -49 -147 -96 -61 -68 -79 -114 -84 -218 -5
-111 9 -172 50 -213 43 -43 54 -38 62 29 8 74 44 149 89 189 20 18 79 53 132
78 106 50 121 69 112 138 -7 49 -28 72 -85 91 -54 19 -73 19 -129 2z"/>
<path d="M2312 3254 c-14 -21 -62 -60 -120 -98 -135 -89 -164 -124 -176 -221
-19 -148 80 -164 218 -35 107 101 148 207 126 326 -7 35 -15 64 -19 64 -3 0
-16 -16 -29 -36z"/>
<path d="M3090 3228 c-33 -16 -94 -33 -150 -43 -196 -31 -272 -71 -304 -158
-25 -69 -24 -87 6 -110 104 -78 416 33 488 173 22 44 36 132 24 151 -7 11 -19
9 -64 -13z"/>
<path d="M7429 2505 c-9 -9 -355 -95 -501 -124 -908 -184 -1908 -164 -2736 55
-72 19 -140 37 -150 41 -12 4 -14 3 -7 -4 16 -17 463 -160 630 -203 147 -37
314 -69 485 -91 131 -16 837 -24 978 -9 445 44 880 136 1145 241 95 37 187 84
187 94 0 6 -25 6 -31 0z"/>
<path d="M8710 1580 c-666 -188 -1380 -306 -2200 -362 -243 -17 -1058 -17
-1295 0 -760 54 -1392 158 -2030 337 -157 43 -126 26 70 -41 764 -260 1191
-368 1670 -423 324 -38 467 -43 1105 -39 598 4 621 5 830 32 790 100 1411 243
1825 421 114 49 231 110 241 126 7 13 12 14 -216 -51z"/>
</g>
</svg>
