<?xml version="1.0" standalone="no"?>
<!DOCTYPE svg PUBLIC "-//W3C//DTD SVG 20010904//EN"
 "http://www.w3.org/TR/2001/REC-SVG-20010904/DTD/svg10.dtd">
<svg version="1.0" xmlns="http://www.w3.org/2000/svg"
 width="1024.000000pt" height="1536.000000pt" viewBox="0 0 1024.000000 1536.000000"
 preserveAspectRatio="xMidYMid meet">
<metadata>
Created by potrace 1.16, written by Peter Selinger 2001-2019
</metadata>
<g transform="translate(0.000000,1536.000000) scale(0.100000,-0.100000)"
fill="#000000" stroke="none">
<path d="M8553 14769 c1 -7 -27 -19 -63 -29 -82 -22 -139 -47 -225 -99 -72
-44 -80 -47 -69 -29 4 7 3 8 -5 4 -6 -4 -9 -11 -6 -16 7 -11 -46 -45 -65 -42
-11 2 -12 1 -2 -6 9 -6 1 -18 -30 -43 -24 -19 -47 -33 -51 -31 -5 1 -6 -2 -3
-6 3 -5 -3 -17 -14 -27 -16 -14 -18 -20 -8 -27 8 -5 9 -11 3 -15 -5 -5 -11
-19 -13 -33 -1 -14 -11 -33 -20 -43 -17 -17 -19 -16 -41 7 l-24 25 -64 -62
c-36 -34 -69 -61 -74 -60 -5 2 -8 -3 -6 -10 1 -6 -4 -11 -11 -9 -8 1 -11 -2
-7 -7 3 -6 -8 -25 -24 -43 -17 -18 -31 -27 -31 -20 0 6 -4 12 -9 12 -4 0 -7
-10 -7 -22 3 -28 -21 -58 -45 -58 -10 0 -23 -9 -29 -20 -9 -16 -8 -20 5 -20 8
0 15 -4 15 -10 0 -5 8 -7 18 -3 14 5 13 3 -3 -10 -20 -16 -19 -16 8 -17 15 0
27 -2 27 -4 0 -9 -30 -60 -30 -51 0 6 -5 2 -11 -7 -11 -19 -39 -13 -39 8 0 8
-7 14 -15 14 -8 0 -14 -3 -12 -8 4 -13 -75 -92 -86 -85 -6 3 -7 1 -4 -4 7 -10
-8 -28 -28 -35 -5 -1 -10 -7 -10 -13 0 -20 -37 -65 -49 -58 -6 3 -8 3 -4 -2 4
-4 -3 -26 -14 -49 -12 -22 -22 -43 -21 -46 9 -44 11 -90 4 -85 -5 3 -7 -4 -4
-15 3 -11 0 -26 -6 -33 -6 -8 -7 -17 -3 -21 4 -5 0 -7 -8 -5 -8 2 -27 0 -42
-4 -23 -6 -36 -24 -72 -100 -25 -50 -52 -118 -61 -150 -9 -31 -21 -55 -26 -52
-5 4 -9 -1 -9 -9 0 -9 6 -13 13 -10 7 2 22 -4 32 -16 10 -11 24 -20 32 -20 7
0 13 -5 13 -11 0 -5 4 -8 9 -4 5 3 13 0 17 -6 4 -7 3 -9 -3 -6 -6 4 -9 -13 -8
-42 1 -40 -2 -48 -13 -43 -11 4 -13 1 -7 -9 8 -12 6 -12 -8 0 -15 12 -17 12
-11 -4 6 -16 3 -17 -32 -10 -21 4 -42 12 -46 18 -6 9 -8 8 -8 -1 0 -7 -5 -10
-10 -7 -6 4 -9 3 -8 -2 4 -12 -34 -93 -41 -89 -3 2 -7 -6 -7 -17 -1 -12 -11
-62 -22 -112 -22 -92 -27 -162 -14 -180 4 -6 61 -12 127 -14 70 -2 126 -8 134
-15 12 -8 13 -8 7 2 -5 8 1 12 21 13 39 0 111 8 153 15 55 10 103 12 90 4 -9
-6 -9 -9 -1 -14 6 -4 8 -13 5 -19 -5 -8 -3 -8 7 1 21 20 38 15 32 -10 l-5 -23
16 23 c10 12 15 26 11 32 -5 8 13 13 90 24 17 2 48 7 69 11 22 5 37 4 33 -1
-3 -5 10 -9 28 -9 22 0 31 4 28 13 -4 8 0 10 11 6 9 -3 13 -10 10 -15 -5 -8 9
-13 21 -6 2 1 11 -7 20 -18 9 -11 14 -13 10 -5 -3 8 0 6 7 -4 7 -11 20 -27 28
-35 23 -25 62 -121 56 -137 -3 -8 -2 -13 3 -10 5 3 11 -1 15 -9 4 -10 -1 -15
-17 -16 -15 0 -17 -2 -7 -6 8 -3 23 -14 33 -25 10 -10 22 -16 28 -13 5 4 9 1
9 -4 0 -6 5 -11 11 -11 5 0 7 6 4 13 -4 6 0 4 9 -7 8 -10 19 -15 25 -11 6 3
11 -1 11 -9 0 -9 5 -16 11 -16 5 0 8 -4 5 -9 -3 -5 4 -12 17 -16 13 -4 17 -8
10 -12 -7 -2 -13 -12 -13 -21 0 -12 3 -13 12 -4 15 15 32 16 23 2 -3 -5 -1
-10 5 -10 6 0 8 -5 4 -12 -4 -7 -3 -8 4 -4 6 3 16 -3 22 -14 13 -25 -13 -72
-36 -63 -8 3 -14 -1 -14 -8 0 -7 -6 -5 -14 6 -8 11 -12 23 -10 27 3 4 -3 5
-12 1 -15 -6 -15 -7 2 -21 12 -9 14 -13 4 -10 -8 3 -20 15 -26 27 -6 12 -14
22 -18 21 -4 -1 -19 8 -34 20 -15 12 -21 19 -14 15 6 -3 12 -2 12 2 0 5 -18 9
-40 10 -22 1 -38 -2 -35 -7 3 -5 13 -6 23 -3 13 4 13 2 -3 -10 -15 -11 -22
-12 -27 -4 -8 12 -9 10 -12 -15 -1 -7 -7 -12 -14 -10 -7 1 -11 -2 -10 -7 2 -5
-23 -33 -54 -63 -47 -44 -58 -51 -67 -38 -7 11 -7 6 0 -14 5 -16 7 -36 5 -43
-3 -8 -2 -12 2 -9 7 4 112 -193 112 -210 0 -3 -5 -2 -12 2 -7 5 -8 3 -4 -5 5
-7 11 -9 14 -6 4 3 20 -22 37 -56 39 -80 54 -90 100 -65 33 18 161 142 206
200 19 24 20 32 10 48 -6 10 -9 24 -5 30 4 6 3 8 -3 5 -14 -9 -37 19 -27 34 4
8 3 9 -4 5 -7 -4 -31 20 -61 61 -49 66 -58 89 -24 62 9 -8 14 -9 10 -3 -9 15
28 25 41 12 6 -6 11 -4 15 6 4 10 1 13 -9 9 -10 -4 -12 0 -8 11 3 9 10 14 14
11 5 -3 10 -1 12 5 2 6 9 1 16 -11 8 -12 9 -18 3 -14 -6 3 -11 2 -11 -4 0 -5
-7 -17 -16 -26 -16 -15 -16 -16 2 -13 12 2 18 -2 16 -10 -1 -8 2 -11 9 -7 8 5
8 10 0 18 -6 6 -11 14 -11 17 0 11 35 8 42 -4 12 -17 9 -28 -4 -20 -7 4 -8 3
-4 -4 4 -7 12 -12 17 -12 6 0 25 -16 44 -36 33 -34 34 -35 63 -20 16 8 32 13
36 11 3 -3 4 -2 1 2 -8 10 37 53 48 46 6 -3 7 -1 4 4 -4 6 3 19 15 29 12 11
18 14 15 7 -4 -6 -2 -15 4 -19 9 -5 10 0 6 16 -4 17 4 33 36 67 66 70 73 86
57 120 -8 15 -13 38 -12 51 1 23 -12 30 -24 11 -3 -6 0 -15 7 -20 8 -5 10 -9
4 -9 -18 1 -57 39 -50 50 3 5 2 10 -4 10 -6 0 -2 13 7 30 13 22 22 28 38 24
12 -3 25 0 30 7 5 8 2 11 -8 7 -8 -4 -21 -2 -29 3 -10 6 -6 9 14 9 20 0 26 4
21 12 -5 7 7 3 26 -9 20 -13 39 -36 45 -54 9 -26 13 -29 18 -16 4 10 2 17 -5
17 -6 0 -9 2 -6 5 3 3 17 1 31 -4 20 -8 30 -6 45 7 34 29 121 149 158 217 36
64 39 95 10 95 -8 0 -18 5 -22 12 -4 7 -3 8 4 4 8 -5 10 -2 6 8 -4 12 -11 13
-24 6 -30 -16 -50 9 -48 60 l3 45 40 -3 c30 -2 36 0 25 7 -13 9 -13 11 3 11 9
0 17 -3 17 -7 0 -5 18 -9 40 -11 l40 -2 33 67 c44 87 92 235 84 257 -4 9 -24
24 -44 33 -21 8 -41 20 -45 27 -6 8 -8 8 -8 -1 0 -13 -48 -11 -200 7 -58 7
-80 6 -96 -5 -24 -15 -82 -155 -90 -219 l-6 -44 87 -33 c71 -27 83 -35 64 -39
-20 -5 -25 -13 -27 -49 -2 -23 2 -49 9 -57 10 -13 8 -13 -14 -5 -14 5 -53 24
-86 40 -33 17 -69 31 -79 31 -29 0 -98 -84 -146 -178 -33 -65 -28 -76 54 -132
33 -22 60 -43 60 -46 0 -3 -5 -2 -10 1 -15 9 -38 -12 -59 -56 -17 -34 -17 -39
-2 -55 16 -18 -8 -1 -103 75 -42 32 -61 42 -78 37 -13 -3 -62 -42 -109 -86
-64 -58 -88 -76 -93 -65 -3 8 -15 15 -26 15 -18 0 -11 11 40 68 33 37 63 76
66 88 5 19 -103 275 -126 298 -15 15 -65 -38 -110 -117 -22 -38 -40 -75 -40
-84 0 -12 -2 -12 -16 1 -8 9 -28 16 -44 16 l-29 0 45 88 c24 48 47 99 50 115
6 25 4 27 -28 27 -75 0 -272 -30 -295 -45 -24 -16 -65 -97 -78 -154 -4 -18
-12 -30 -18 -28 -7 2 -23 0 -36 -5 -22 -8 -23 -6 -17 19 3 16 11 59 18 97 12
66 12 69 -10 86 -12 10 -59 32 -104 48 -46 17 -103 39 -128 50 -40 18 -42 21
-18 21 30 1 35 13 40 83 l3 37 110 -50 c96 -43 145 -58 145 -45 0 2 16 50 37
107 51 147 55 167 34 188 -9 9 -65 46 -124 82 -58 35 -109 70 -111 76 -4 10
-1 10 14 1 16 -10 22 -10 34 2 19 20 37 88 25 96 -5 3 -9 10 -9 15 0 5 25 -6
55 -26 31 -19 57 -35 60 -35 3 0 29 -16 59 -35 30 -19 61 -35 69 -35 7 0 25
12 39 28 39 41 118 174 118 197 0 12 -35 55 -91 110 -93 93 -123 130 -94 119
40 -16 72 80 39 119 -25 30 53 -40 158 -142 81 -79 89 -84 112 -73 38 17 186
200 186 230 0 16 -22 52 -58 96 -75 91 -135 179 -103 151 l23 -20 29 33 c34
38 35 46 9 72 -11 11 -16 20 -12 20 11 0 91 -94 132 -155 46 -69 71 -95 91
-95 9 0 61 18 115 39 55 22 115 43 135 46 107 20 257 -128 310 -303 17 -59 34
-66 132 -53 44 6 101 11 126 10 44 -1 45 -1 13 -9 -18 -4 -35 -9 -37 -12 -2
-2 -1 -22 2 -45 4 -27 11 -43 22 -46 9 -2 -20 -7 -64 -11 -87 -8 -151 -22
-159 -34 -13 -22 -47 -176 -53 -238 -4 -55 -3 -73 8 -80 8 -4 61 -12 119 -16
107 -8 227 -22 245 -29 26 -10 56 30 73 100 10 40 21 69 25 64 5 -4 5 0 2 9
-3 8 -1 53 5 98 8 59 8 90 0 115 l-11 33 -74 -2 -75 -2 0 43 c0 38 3 43 23 44
21 0 21 1 2 8 -15 7 -7 10 35 15 30 4 65 8 77 9 12 1 20 3 18 6 -3 2 0 10 6
17 6 7 13 38 16 69 5 45 10 58 26 64 18 7 18 8 4 14 -10 4 -17 1 -17 -6 -1
-34 -17 18 -19 61 -4 79 -29 180 -63 255 -18 39 -32 80 -30 92 2 13 0 16 -6 7
-6 -9 -14 -4 -30 18 -24 32 -28 45 -10 34 7 -5 8 -3 4 5 -5 7 -11 10 -14 7 -8
-9 -51 34 -48 48 2 6 1 8 -2 3 -2 -4 -25 10 -50 31 -26 22 -57 44 -70 51 -12
7 -20 17 -16 23 4 6 3 8 -4 5 -13 -9 -44 2 -37 13 3 4 -1 7 -8 7 -24 -2 -97
26 -97 39 0 6 -7 14 -15 18 -18 7 -20 -10 -2 -18 6 -4 -6 -4 -28 -1 -22 3 -76
5 -120 6 -55 1 -72 3 -55 9 24 8 23 8 -7 9 -20 1 -32 -4 -30 -10z"/>
<path d="M8440 14064 c-160 -89 -318 -216 -307 -247 3 -9 45 -11 156 -8 l151
4 53 -54 c28 -30 77 -83 109 -119 50 -58 58 -63 72 -50 26 25 49 137 44 215
-6 93 -54 199 -114 255 -55 50 -79 51 -164 4z"/>
<path d="M8290 13657 c-3 -3 -72 -10 -153 -16 -82 -7 -160 -16 -173 -21 -24
-9 -104 -123 -124 -176 -9 -22 -8 -31 5 -43 14 -14 33 -14 193 2 116 12 185
23 201 34 26 17 104 175 99 201 -3 15 -37 29 -48 19z"/>
<path d="M8442 13547 c-12 -13 -22 -26 -22 -30 0 -3 -16 -32 -35 -64 l-34 -57
23 -43 c24 -43 162 -229 176 -238 19 -12 37 10 67 78 55 127 56 125 -43 260
-47 64 -91 117 -98 117 -7 0 -22 -10 -34 -23z"/>
<path d="M7895 13254 c-66 -7 -128 -13 -138 -13 -27 -1 -74 -84 -86 -153 -6
-33 -8 -65 -5 -69 8 -13 59 -11 213 7 184 21 187 22 228 111 18 40 36 86 39
103 l7 30 -69 -1 c-38 -1 -123 -7 -189 -15z"/>
<path d="M8230 13118 c-28 -56 -50 -107 -50 -115 0 -17 83 -183 117 -235 14
-21 34 -38 44 -38 20 0 136 141 145 177 9 33 -76 191 -159 296 -29 35 -46 20
-97 -85z"/>
<path d="M6755 12080 c-4 -6 -11 -8 -16 -4 -5 3 -8 0 -7 -8 2 -7 -3 -12 -10
-10 -8 1 -11 -2 -8 -6 7 -11 -94 -138 -106 -134 -5 1 -7 -2 -4 -7 3 -5 -3 -20
-14 -34 -12 -14 -26 -40 -32 -57 -9 -26 -8 -33 8 -45 17 -13 17 -16 4 -25 -12
-8 -10 -10 10 -10 18 0 21 -3 11 -9 -8 -5 -11 -16 -6 -30 4 -12 2 -21 -4 -21
-6 0 -11 6 -11 13 0 9 -2 9 -8 0 -6 -10 -18 -7 -52 9 l-43 22 -28 -33 c-30
-37 -89 -142 -89 -160 0 -6 16 -19 35 -28 24 -12 31 -19 23 -25 -10 -6 -9 -8
2 -8 12 -1 11 -3 -2 -11 -21 -12 -24 -35 -5 -42 9 -4 9 -6 -1 -6 -7 -1 -10 -6
-7 -12 4 -5 -10 -3 -32 6 -86 37 -94 40 -91 28 1 -5 -11 -33 -25 -63 -15 -30
-27 -61 -27 -68 0 -7 -3 -11 -7 -9 -5 3 -9 -16 -9 -43 -1 -38 2 -47 15 -47 21
1 101 -22 101 -29 0 -3 -10 -2 -22 2 -20 6 -21 5 -9 -9 7 -9 18 -14 23 -11 5
4 8 -4 6 -17 -2 -18 -10 -25 -33 -28 -27 -3 -28 -4 -10 -12 12 -5 -2 -6 -39
-3 l-59 7 6 -104 c3 -57 9 -117 13 -133 5 -20 4 -27 -4 -22 -8 5 -10 2 -6 -8
3 -9 9 -14 13 -11 11 6 54 -103 45 -116 -4 -7 -3 -9 4 -5 6 4 16 -4 23 -16 7
-13 25 -40 41 -60 16 -21 27 -42 23 -48 -4 -6 -1 -9 5 -8 16 4 148 -104 150
-122 1 -9 3 -11 6 -3 5 12 71 -20 86 -42 4 -5 8 -7 8 -3 0 14 60 -14 60 -28 0
-8 7 -14 16 -14 9 0 12 5 8 12 -5 8 -2 9 12 4 10 -4 49 -10 86 -13 37 -3 65
-9 63 -14 -3 -4 0 -11 6 -15 7 -4 9 -3 6 3 -5 7 24 15 81 22 102 14 214 47
245 72 20 15 33 70 16 66 -4 -1 -23 22 -42 51 -32 46 -32 58 -4 53 4 0 7 5 7
12 0 8 2 9 8 1 4 -7 30 -22 57 -34 28 -13 60 -32 73 -43 l22 -21 36 35 c80 75
114 115 114 134 0 12 -25 45 -61 80 l-61 60 26 10 c15 6 23 14 20 18 -4 4 -2
7 4 7 6 0 9 7 6 15 -3 8 7 2 24 -13 16 -15 27 -33 24 -41 -3 -9 -9 -5 -19 13
-7 14 -15 26 -16 26 -1 0 -2 -13 -2 -30 -1 -26 3 -30 27 -30 15 0 28 5 28 11
0 7 10 4 26 -6 25 -16 27 -16 53 8 14 14 35 27 46 30 17 4 17 5 2 6 -10 0 -15
6 -12 11 4 6 10 8 15 5 4 -3 7 3 6 13 0 9 5 16 12 14 8 -1 11 2 7 8 -7 12 19
53 28 44 4 -4 2 8 -3 26 -5 18 -11 34 -12 35 -2 1 -23 13 -48 27 -25 15 -53
33 -63 40 -18 13 -17 14 2 14 11 0 17 -5 14 -10 -3 -5 -1 -6 5 -2 7 4 10 21 8
39 -3 18 -3 26 0 20 3 -7 10 -13 15 -13 6 0 7 5 3 11 -8 14 41 -14 77 -43 18
-14 19 -17 4 -10 -12 6 -28 6 -40 1 -18 -9 -18 -9 3 -5 12 2 22 1 22 -3 0 -4
14 -7 32 -6 28 1 38 10 80 76 63 98 98 164 98 186 0 11 -24 33 -60 57 -33 21
-57 43 -53 49 3 5 1 7 -5 3 -14 -9 -103 35 -95 47 3 6 1 7 -5 3 -21 -13 -35 5
-15 19 16 12 14 13 -17 11 -19 -1 -47 4 -62 11 -15 7 -37 13 -49 13 -13 0 -19
5 -16 13 3 8 -1 14 -9 14 -8 0 -14 -6 -14 -14 0 -9 -15 -12 -54 -11 -48 2 -54
4 -50 23 3 19 3 19 -11 2 -13 -18 -14 -17 -30 7 -10 14 -26 26 -36 26 -12 0
-17 6 -14 18 2 14 -3 18 -26 16 -15 -1 -28 1 -27 5 2 18 -3 32 -11 27 -7 -5
-69 55 -63 62 1 1 1 5 1 10 -1 4 0 15 1 26 1 11 -3 15 -9 12 -7 -5 -9 3 -5 21
4 23 -2 35 -35 67 -22 22 -37 44 -34 49 3 6 1 7 -5 3 -13 -8 -194 143 -186
156 3 4 -1 5 -9 2 -8 -3 -18 -1 -22 5 -8 14 -52 14 -60 1z m331 -420 c-37 -39
-86 -121 -86 -143 0 -8 16 -27 36 -42 l35 -27 26 23 c13 13 41 52 61 85 l37
61 18 -24 c14 -18 22 -21 32 -13 7 6 -9 -32 -36 -85 -27 -53 -47 -100 -44
-105 7 -12 65 -40 81 -40 17 0 72 81 95 139 13 33 18 40 19 22 0 -19 4 -23 25
-19 14 3 25 4 25 3 0 -2 -18 -41 -40 -88 -22 -46 -40 -89 -40 -95 0 -6 28 -28
63 -50 93 -60 156 -106 151 -111 -2 -3 -10 1 -16 7 -19 19 -36 14 -54 -13 -14
-21 -14 -28 -3 -42 17 -20 12 -18 -75 39 -109 72 -111 72 -141 37 -14 -18 -35
-50 -47 -73 l-21 -41 39 -30 c21 -16 66 -57 99 -89 33 -33 50 -52 38 -42 -20
17 -23 17 -47 1 -29 -20 -31 -25 -13 -45 17 -20 -14 3 -78 57 -28 23 -63 46
-78 52 -24 9 -29 6 -62 -32 -57 -66 -56 -75 20 -174 37 -48 62 -82 54 -75 -18
17 -37 15 -64 -6 -17 -14 -21 -22 -13 -35 5 -9 6 -17 2 -17 -9 0 -27 22 -79
101 l-45 67 -83 -5 c-75 -5 -90 -3 -139 19 -58 27 -79 50 -121 134 -29 57 -32
59 -182 101 -59 17 -91 29 -77 31 32 5 50 52 26 69 -10 7 -27 13 -38 14 -12 0
-16 3 -10 5 13 5 142 -26 212 -50 23 -8 49 -13 57 -10 17 7 65 90 65 114 0 24
-21 40 -150 109 -63 34 -103 59 -88 55 24 -5 29 -2 38 22 6 15 9 33 6 41 -3 7
-3 13 0 13 4 0 64 -30 134 -67 l129 -68 31 30 c39 36 60 76 60 109 0 21 -19
38 -114 100 -114 75 -142 98 -108 89 12 -3 24 4 36 21 15 24 15 27 -4 46 -43
43 20 10 157 -82 56 -37 109 -68 117 -68 14 0 67 55 127 134 l33 42 22 -25 23
-26 -33 -35z"/>
<path d="M6879 11348 c-55 -75 -57 -87 -26 -114 16 -13 34 -24 42 -24 19 0 85
104 85 133 0 61 -58 63 -101 5z"/>
<path d="M7073 11258 c-27 -30 -63 -90 -63 -105 0 -14 50 -43 74 -43 17 0 76
92 76 118 0 10 -13 25 -29 35 -36 21 -33 21 -58 -5z"/>
<path d="M6911 11033 c-18 -20 -81 -124 -81 -135 0 -5 11 -13 25 -20 31 -14
58 2 110 67 41 49 39 62 -14 90 -22 11 -28 11 -40 -2z"/>
<path d="M4876 10869 c10 -3 -5 -10 -35 -17 -29 -7 -86 -28 -128 -47 -41 -19
-79 -32 -84 -29 -5 3 -8 1 -7 -4 4 -13 -71 -64 -83 -56 -5 3 -8 1 -7 -4 4 -14
-113 -103 -126 -95 -6 3 -8 3 -4 -2 11 -11 -12 -36 -25 -28 -5 3 -7 2 -4 -4 7
-11 -36 -57 -45 -47 -3 3 -5 -13 -5 -36 1 -48 -21 -77 -48 -62 -12 6 -14 11
-6 16 6 4 11 2 11 -3 0 -6 5 -11 12 -11 9 0 8 4 -2 14 -15 15 -65 26 -65 15 0
-4 -18 -27 -40 -51 -56 -63 -117 -137 -144 -176 -12 -18 -27 -29 -33 -26 -7 4
-8 2 -4 -4 3 -6 -3 -26 -14 -44 -11 -18 -20 -27 -20 -20 0 6 -4 12 -10 12 -5
0 -9 -6 -7 -12 1 -7 -4 -12 -12 -10 -12 3 -12 0 -1 -12 14 -18 25 -22 15 -6
-3 6 -2 10 2 10 5 0 14 -9 21 -21 8 -12 9 -18 3 -15 -5 4 -12 2 -16 -4 -4 -6
5 -10 21 -10 28 0 75 -31 208 -137 44 -35 87 -63 97 -63 10 0 31 11 47 25 39
32 152 198 152 222 0 23 -34 75 -118 178 -83 102 -92 115 -61 87 l25 -22 21
22 c39 43 46 67 28 94 -35 55 0 17 101 -107 122 -149 101 -142 244 -81 73 32
96 37 160 37 81 0 103 -10 168 -69 41 -37 85 -121 102 -194 16 -70 29 -76 138
-63 48 5 129 9 181 9 86 -1 95 0 113 21 10 13 18 39 18 60 0 20 5 42 12 49 8
8 8 12 1 12 -6 0 -13 33 -16 78 -13 176 -85 348 -192 456 -33 34 -80 73 -103
86 -22 13 -39 27 -36 31 3 5 -3 6 -12 2 -13 -5 -15 -3 -9 7 5 8 4 11 -2 7 -13
-8 -75 12 -69 21 2 4 -16 8 -41 8 -25 1 -48 6 -52 10 -3 5 -56 9 -118 9 -62 0
-105 -2 -97 -6z"/>
<path d="M4832 10210 c-72 -26 -171 -82 -203 -117 -41 -43 -89 -124 -89 -150
0 -28 23 -30 125 -8 114 24 132 21 179 -28 23 -23 66 -76 98 -118 74 -99 83
-106 98 -79 17 33 24 185 12 282 -24 193 -94 262 -220 218z"/>
<path d="M3995 10047 c4 -16 -1 -29 -19 -45 -15 -12 -26 -17 -26 -11 0 5 -6 9
-12 8 -7 -1 -21 1 -31 6 -9 4 -23 3 -30 -2 -6 -5 -22 -8 -34 -7 -12 0 -20 -2
-17 -7 2 -4 12 -5 21 -2 12 5 10 -2 -7 -25 -13 -17 -28 -28 -33 -25 -6 3 -7 1
-3 -5 7 -11 -43 -97 -57 -99 -5 -1 -12 -5 -15 -9 -4 -4 -1 -4 6 0 18 11 14 -5
-8 -34 -11 -14 -20 -31 -20 -38 0 -7 -4 -11 -8 -8 -5 3 -8 -13 -8 -34 1 -22
-1 -40 -4 -40 -3 0 -6 -9 -6 -20 0 -13 4 -16 10 -10 13 13 29 13 22 1 -4 -5
-3 -16 0 -25 8 -20 44 -21 44 -1 0 9 6 12 16 8 13 -5 13 -7 2 -14 -8 -5 -9 -9
-2 -9 13 0 25 -36 15 -45 -3 -4 -6 -12 -6 -18 0 -19 -57 -25 -97 -9 -27 10
-42 11 -56 3 -23 -12 -53 -85 -87 -213 -26 -97 -22 -108 38 -124 21 -5 25 -9
16 -15 -7 -4 -10 -11 -6 -15 3 -4 13 -1 22 6 9 7 18 10 22 6 3 -3 2 -6 -4 -6
-14 0 -25 -29 -17 -42 3 -5 12 -1 20 9 13 16 14 16 8 1 -3 -10 -2 -18 3 -18 5
0 10 -6 10 -12 0 -7 2 -20 4 -28 3 -10 -3 -14 -16 -13 l-20 2 20 -16 c18 -14
17 -14 -25 -7 -25 5 -63 8 -84 9 l-39 0 -13 -55 c-7 -30 -16 -88 -20 -127 -4
-40 -10 -73 -13 -73 -12 0 5 -120 18 -132 8 -7 11 -8 8 -3 -3 6 20 10 61 10
37 0 99 3 137 6 39 4 60 5 47 2 -12 -2 -20 -8 -17 -13 7 -11 33 -3 56 17 9 8
20 13 25 12 5 -1 32 -1 60 0 42 1 53 5 62 24 7 14 11 17 11 7 1 -9 10 -16 21
-17 12 -1 18 3 14 9 -5 7 -1 7 11 1 10 -6 35 -7 63 -1 26 4 53 6 60 3 7 -3 11
-1 8 3 -3 5 27 18 65 29 38 11 67 18 64 15 -8 -8 56 -35 80 -34 11 1 14 -1 7
-4 -10 -5 -10 -9 -1 -20 12 -15 34 -20 25 -6 -2 4 4 8 14 8 15 0 17 -3 7 -15
-10 -12 -9 -14 4 -9 11 5 21 -4 33 -29 9 -19 13 -39 10 -45 -4 -6 -3 -8 3 -5
12 8 46 -61 37 -75 -4 -6 -2 -8 4 -4 6 3 13 -2 17 -13 8 -26 37 -50 66 -55 13
-2 23 -9 21 -16 -2 -8 3 -10 14 -6 11 4 15 2 11 -8 -3 -8 1 -17 9 -20 8 -3 14
-14 12 -23 -2 -10 2 -17 9 -16 16 3 75 -66 67 -79 -4 -6 -3 -8 3 -5 15 10 127
-108 118 -125 -5 -7 -5 -10 0 -6 4 4 23 -2 42 -13 31 -19 35 -20 57 -5 28 18
144 171 181 238 l25 47 -22 24 c-13 13 -32 27 -43 31 -11 3 -30 14 -42 24 -17
13 -19 22 -12 40 7 19 14 22 31 16 23 -7 23 -6 -1 13 l-24 20 22 22 c22 22 22
23 4 36 -23 19 -53 19 -53 1 0 -8 -6 -16 -14 -19 -24 -9 -24 -69 -1 -90 19
-17 19 -17 -15 -1 -19 9 -61 34 -92 55 -31 22 -66 39 -77 39 -20 0 -86 -63
-144 -139 -17 -23 -33 -38 -34 -34 0 4 -4 21 -8 36 -5 25 -8 27 -23 15 -14
-11 -14 -9 2 17 10 17 34 51 52 78 19 26 34 55 34 65 0 25 -93 182 -138 233
-23 25 -43 40 -50 35 -20 -12 -82 -148 -83 -180 0 -17 -3 -25 -6 -18 -7 17
-57 42 -84 42 -21 0 -21 1 -6 18 21 23 67 153 67 188 0 23 -3 25 -27 19 -14
-3 -72 -14 -127 -25 -167 -30 -166 -30 -187 -152 -10 -64 -15 -75 -28 -68 -8
4 -25 4 -37 0 -23 -9 -23 -9 -17 80 l6 90 -44 19 c-24 11 -79 30 -123 42 -55
16 -73 25 -60 29 16 6 19 17 19 64 0 55 -1 58 -28 63 -15 3 -30 9 -32 13 -5 8
36 -1 187 -41 77 -21 89 -22 102 -9 20 22 55 136 62 206 8 74 10 72 -148 134
-103 40 -137 58 -83 44 16 -4 30 -1 40 9 21 21 19 76 -2 93 -25 19 119 -32
189 -67 89 -45 89 -45 154 85 67 135 67 151 -3 199 -26 18 -72 52 -104 77 -31
25 -65 51 -76 58 -16 11 -15 11 5 2 20 -10 24 -8 38 26 17 41 11 84 -11 84
-11 0 -14 -7 -10 -23z"/>
<path d="M5356 9975 c-9 -44 0 -73 22 -78 9 -2 -20 -7 -66 -11 -119 -12 -127
-21 -147 -161 -8 -60 -18 -120 -21 -132 -8 -29 14 -39 111 -47 44 -4 114 -12
156 -18 95 -14 126 -7 143 33 7 16 14 27 17 25 2 -2 4 8 5 22 0 15 4 45 8 67
11 55 14 245 4 251 -4 3 -8 0 -8 -6 0 -7 -22 -9 -66 -6 -41 2 -62 1 -53 -5 9
-6 1 -8 -26 -7 -22 0 -30 3 -18 5 22 4 22 6 8 33 -8 15 -12 37 -10 49 3 17 -1
21 -24 21 -25 0 -30 -5 -35 -35z"/>
<path d="M4600 9794 c-79 -12 -153 -28 -208 -46 -70 -22 -96 -49 -141 -145
-28 -62 -23 -83 20 -83 57 0 282 31 302 41 21 12 56 85 81 169 13 43 13 55 4
62 -13 8 -15 8 -58 2z"/>
<path d="M4777 9722 c-26 -28 -87 -168 -87 -197 0 -40 194 -308 219 -303 20 4
54 76 83 172 l21 74 -102 136 c-56 75 -106 136 -110 136 -4 0 -15 -8 -24 -18z"/>
<path d="M5134 9423 c-27 -19 -104 -211 -104 -259 0 -31 16 -41 99 -58 71 -15
101 -26 69 -26 -17 0 -38 -40 -38 -72 0 -11 8 -27 18 -34 9 -7 -19 -2 -63 12
-136 42 -139 42 -172 -3 -41 -58 -107 -198 -100 -215 3 -8 48 -37 101 -63 53
-27 96 -53 96 -57 0 -4 6 -8 14 -8 7 0 40 -13 72 -30 54 -27 61 -28 81 -14 23
14 133 225 133 254 0 13 1 13 10 0 8 -11 9 -7 4 15 -9 47 -13 57 -21 52 -5 -2
-26 4 -48 14 -30 13 -35 18 -18 18 12 1 25 -3 28 -9 3 -5 13 -10 21 -10 8 0
12 5 9 10 -4 6 -10 8 -15 5 -5 -3 -11 -1 -15 5 -3 5 -21 10 -38 11 -25 0 -28
2 -13 8 18 7 18 8 2 14 -10 4 -22 5 -27 1 -5 -3 -9 0 -9 5 0 6 4 11 9 11 4 0
8 10 7 23 -1 18 4 21 23 19 14 -1 28 3 32 9 5 9 19 9 55 0 44 -10 109 -12 99
-3 -2 2 5 22 15 46 22 48 60 212 60 256 0 26 -5 31 -30 36 -16 4 -27 10 -24
15 3 5 -1 6 -9 3 -12 -4 -84 2 -252 21 -27 3 -55 2 -61 -2z"/>
<path d="M4315 9394 c-166 -25 -198 -47 -228 -159 -16 -57 -19 -125 -6 -125
22 0 289 53 312 62 18 7 36 27 51 57 32 64 59 149 52 166 -7 18 -56 18 -181
-1z"/>
<path d="M4612 9317 c-19 -23 -82 -178 -82 -202 0 -22 85 -149 153 -229 23
-27 39 -37 50 -33 17 6 100 128 111 163 7 22 -65 144 -148 253 -48 62 -65 71
-84 48z"/>
<path d="M3273 8098 c-19 -27 -54 -116 -72 -184 -18 -69 -17 -71 2 -95 10 -13
21 -22 24 -20 2 1 17 -2 33 -9 25 -10 28 -15 20 -35 -5 -13 -6 -27 -2 -31 4
-5 3 -6 -2 -2 -5 4 -15 3 -22 -3 -8 -6 -22 -8 -31 -4 -50 20 -82 22 -96 6 -20
-23 -57 -126 -57 -161 0 -34 17 -41 157 -64 50 -9 115 -25 143 -36 74 -29 86
-27 120 28 44 69 38 91 -36 127 -33 17 -82 39 -109 49 -27 11 -44 21 -37 24
16 5 16 82 0 82 -6 0 -9 2 -6 5 6 6 227 -73 245 -87 29 -24 58 1 106 91 l48
90 20 -20 21 -21 -35 -77 c-52 -113 -54 -124 -21 -150 51 -40 66 -31 115 72
36 75 48 91 64 89 11 -2 22 -8 23 -13 2 -5 10 -9 18 -9 16 0 19 -17 4 -22 -13
-4 -49 -107 -52 -150 -3 -29 1 -34 35 -50 21 -10 43 -16 49 -12 5 4 21 32 34
63 14 31 29 65 34 76 5 11 10 25 12 30 2 6 15 8 30 5 l26 -5 -24 -94 c-14 -52
-23 -99 -21 -104 2 -6 46 -32 98 -58 52 -27 85 -48 73 -49 -17 0 -20 -6 -20
-40 1 -22 -2 -40 -5 -40 -3 0 -43 18 -88 40 -45 22 -88 40 -95 40 -13 0 -27
-31 -55 -119 -6 -19 -11 -37 -11 -41 0 -4 43 -33 95 -65 93 -56 113 -72 76
-60 -15 4 -21 -1 -30 -26 -6 -17 -8 -36 -4 -43 4 -6 -4 -4 -17 5 -101 64 -150
90 -160 84 -12 -8 -53 -71 -63 -98 -5 -14 8 -34 53 -81 54 -56 76 -87 51 -71
-5 3 -19 -8 -30 -23 -15 -22 -17 -32 -9 -40 7 -7 9 -12 6 -12 -3 0 -37 32 -74
71 -68 70 -70 71 -109 64 -22 -4 -54 -9 -71 -12 -70 -11 -156 32 -212 107 -63
85 -50 79 -171 78 -61 -1 -114 2 -118 5 -3 4 1 7 9 7 21 0 14 60 -9 77 -13 10
8 13 108 15 l124 3 18 37 c10 20 21 52 24 72 l5 34 -63 20 c-35 11 -90 25
-121 32 -49 11 -55 15 -42 27 8 8 14 27 14 43 0 21 -6 29 -23 32 -17 3 -22 -1
-23 -20 -1 -13 -4 -26 -7 -28 -3 -3 -37 -6 -76 -7 l-71 -2 -15 -37 c-8 -21
-15 -54 -15 -73 0 -18 -4 -36 -8 -39 -11 -6 -3 -67 10 -83 6 -7 35 -14 67 -14
31 -1 45 -4 31 -6 -14 -3 -29 -8 -33 -13 -5 -4 3 -5 17 -3 16 3 26 1 26 -6 0
-7 6 -9 13 -5 6 4 2 -3 -10 -15 -12 -11 -27 -21 -33 -21 -5 0 -10 -4 -10 -10
0 -14 28 -12 32 2 3 9 9 8 22 -5 17 -16 15 -17 -31 -18 -77 -2 -96 -10 -104
-47 -3 -17 -2 -29 2 -26 5 3 9 -4 9 -14 0 -11 7 -39 15 -63 12 -34 13 -44 3
-52 -10 -6 -9 -8 3 -4 11 4 22 -7 36 -37 12 -24 46 -72 77 -108 31 -37 53 -68
48 -71 -4 -2 -1 -2 5 -1 15 4 146 -93 135 -99 -4 -2 -2 -2 5 -1 7 2 38 -8 69
-22 178 -79 387 -70 572 22 39 20 72 43 72 51 0 13 -63 104 -93 135 -18 17
-10 32 18 36 11 2 25 8 31 13 12 10 69 -43 57 -54 -3 -4 1 -7 10 -7 9 0 26 -9
38 -21 11 -11 28 -19 37 -17 23 4 132 157 132 186 0 12 -5 22 -11 22 -5 0 -8
4 -4 9 3 5 0 13 -6 17 -8 4 -9 3 -5 -4 8 -14 -3 -15 -23 -3 -7 5 -11 14 -7 20
4 7 1 9 -8 5 -9 -3 -31 4 -51 16 -38 23 -48 38 -14 20 16 -9 20 -8 18 2 -4 18
11 58 21 58 4 0 32 -16 61 -35 29 -20 59 -35 68 -33 20 4 73 113 79 163 5 47
-1 53 -81 96 -31 16 -52 33 -51 43 5 60 14 70 47 55 15 -7 24 -15 22 -19 -3
-4 3 -14 13 -21 15 -13 16 -12 3 4 -17 21 -13 21 34 1 21 -8 44 -13 52 -10 16
6 103 186 123 253 16 52 10 69 -34 90 -19 9 -32 21 -29 26 3 6 1 7 -6 3 -6 -4
-37 2 -69 14 -60 23 -60 23 -134 41 -28 8 -44 17 -42 24 4 8 -16 13 -67 14
-67 2 -71 1 -66 -18 3 -12 -1 -22 -10 -25 -9 -4 -12 -2 -7 7 6 9 4 9 -7 1 -8
-5 -20 -9 -26 -8 -7 1 -18 2 -24 3 -5 0 -7 6 -4 11 3 6 -1 10 -10 10 -9 0 -13
-5 -9 -11 4 -7 -2 -7 -17 1 -33 17 -38 24 -12 16 12 -4 24 -3 27 2 3 5 -9 9
-28 9 -40 -1 -128 31 -120 44 3 5 2 9 -3 8 -15 -2 -53 13 -53 22 0 5 -7 9 -16
9 -10 0 -14 6 -11 14 5 13 -18 31 -35 28 -5 -1 -8 2 -8 8 0 6 4 10 10 10 20 0
-32 48 -71 65 -21 10 -39 23 -39 28 0 6 -3 8 -6 4 -3 -3 -43 11 -87 30 -104
45 -204 83 -221 83 -8 0 -18 -6 -23 -12z"/>
<path d="M6195 7848 c-27 -6 -62 -11 -77 -12 -14 0 -24 -4 -22 -7 2 -4 -15
-14 -39 -23 -50 -19 -184 -96 -212 -123 -55 -51 -113 -92 -120 -85 -5 4 -5 2
-2 -4 4 -6 -5 -22 -20 -35 -14 -13 -43 -46 -64 -72 -30 -38 -38 -55 -35 -82 1
-24 -2 -35 -11 -35 -7 0 -13 -7 -13 -15 0 -8 -7 -15 -16 -15 -12 0 -14 3 -6
13 8 10 6 13 -11 14 -11 1 -27 -3 -34 -9 -7 -6 -13 -7 -13 -3 0 5 -9 0 -20
-10 -11 -10 -17 -22 -14 -27 9 -15 -26 -47 -44 -41 -11 3 -13 2 -5 -4 8 -6 2
-21 -23 -53 -18 -25 -38 -44 -43 -43 -5 1 -8 -5 -7 -15 0 -9 -4 -16 -10 -15
-7 1 -11 -3 -11 -10 1 -7 -9 -33 -21 -59 -25 -51 -18 -92 15 -101 17 -5 17 -5
0 -6 -10 0 -16 -5 -13 -10 4 -5 -3 -7 -14 -4 -19 5 -20 2 -15 -28 l6 -34 -18
26 c-10 14 -24 24 -32 21 -8 -3 -11 0 -7 7 4 6 5 11 3 11 -5 0 -68 -93 -93
-137 -10 -18 -20 -30 -24 -28 -3 2 -6 -4 -7 -13 -1 -9 -15 -50 -32 -91 l-31
-73 29 -27 c16 -15 34 -25 40 -23 7 2 11 -13 11 -43 0 -28 -4 -44 -10 -40 -5
3 -10 1 -10 -5 0 -6 -5 -8 -10 -5 -6 4 -9 1 -8 -7 3 -14 -45 -14 -50 1 -7 19
-52 -3 -65 -33 -27 -57 -68 -191 -74 -238 -5 -45 -4 -48 26 -65 21 -12 30 -24
27 -35 -2 -10 0 -18 5 -18 5 0 9 6 9 14 0 9 7 12 20 9 19 -5 29 -33 12 -33 -5
0 -9 -7 -9 -15 0 -8 4 -12 9 -9 4 3 7 -4 5 -16 -5 -32 -23 -38 -77 -27 -51 10
-83 -1 -78 -27 3 -21 -14 -106 -22 -106 -5 0 -6 10 -4 23 4 20 4 20 -4 2 -6
-12 -5 -27 2 -37 7 -12 7 -37 -2 -88 -16 -95 -15 -139 3 -146 8 -4 13 -9 11
-13 -2 -3 51 -6 119 -6 68 0 121 4 118 8 -3 5 29 7 70 5 41 -2 74 -1 72 2 -2
4 6 12 18 20 19 12 20 11 10 -2 -11 -12 -6 -14 32 -13 27 1 45 -2 45 -9 0 -8
3 -8 8 0 4 5 40 18 80 28 173 41 206 64 242 173 23 68 25 102 7 109 -14 5
-253 -43 -276 -56 -12 -6 -43 -97 -65 -194 -6 -26 -8 -27 -20 -11 -8 12 -19
16 -31 11 -15 -5 -17 -2 -11 26 12 59 17 163 9 174 -4 6 -66 32 -138 59 -136
50 -162 62 -107 50 l32 -7 0 50 c0 40 -4 52 -17 55 -17 4 -16 5 0 6 10 0 57
-12 104 -29 46 -16 100 -30 118 -30 32 0 34 3 48 53 30 104 47 198 41 221 -4
18 -29 34 -107 71 -56 26 -96 50 -89 52 6 3 12 12 12 22 0 9 5 22 11 28 13 13
8 59 -7 56 -6 -1 -11 4 -11 12 0 16 5 14 131 -44 50 -23 99 -41 110 -39 15 2
37 34 80 117 50 96 57 116 48 136 -6 13 -56 55 -111 94 -96 68 -129 97 -97 85
10 -4 22 6 36 28 25 41 25 57 3 75 -14 11 -12 11 12 -1 17 -8 73 -49 125 -90
53 -43 105 -76 117 -76 13 0 32 13 47 33 33 43 105 162 116 193 10 25 3 35
-150 216 -42 49 -53 73 -21 44 17 -16 20 -15 46 19 16 22 25 44 22 56 -5 18
-3 17 22 -4 15 -12 59 -59 97 -105 38 -46 77 -88 87 -93 14 -8 34 0 92 36 148
93 240 109 323 58 59 -36 115 -110 142 -187 38 -110 42 -116 67 -122 14 -4 56
-2 93 5 88 14 153 14 145 1 -4 -7 3 -9 22 -6 40 6 41 7 13 16 -25 8 -24 8 5 9
61 2 105 21 116 49 14 33 -3 181 -32 295 -11 43 -17 83 -13 89 4 6 3 8 -2 5
-6 -3 -29 35 -52 84 -108 229 -367 373 -587 327z"/>
<path d="M6125 7194 c-42 -22 -204 -155 -253 -208 -55 -59 -89 -126 -70 -137
17 -12 9 -12 148 17 67 14 133 23 145 20 13 -3 60 -49 105 -101 59 -69 88 -95
105 -95 21 0 23 6 35 100 10 86 10 110 -4 170 -26 116 -83 212 -142 236 -40
17 -33 17 -69 -2z"/>
<path d="M6647 6973 c-4 -3 -7 -26 -7 -49 0 -39 2 -43 28 -46 17 -2 1 -8 -48
-17 -107 -19 -139 -30 -151 -52 -13 -26 -42 -257 -34 -286 7 -28 22 -30 241
-38 l171 -6 11 28 c6 15 13 44 17 63 6 34 8 53 19 171 8 74 -3 146 -21 153 -8
4 -44 1 -81 -4 -55 -9 -68 -9 -81 5 -10 10 -11 15 -3 15 7 0 12 5 12 11 0 6
-6 9 -14 6 -8 -3 -16 2 -19 14 -4 14 -1 19 7 16 7 -3 13 1 13 9 0 14 -48 20
-60 7z"/>
<path d="M5795 6686 c-71 -13 -144 -30 -161 -39 -23 -12 -42 -39 -74 -100 -51
-101 -50 -121 4 -125 62 -5 318 40 347 62 29 21 89 168 89 218 0 13 -67 8
-205 -16z"/>
<path d="M6101 6652 c-26 -48 -71 -176 -71 -200 0 -20 23 -55 83 -127 106
-127 113 -133 133 -114 26 27 83 201 73 227 -9 24 -102 145 -152 200 -35 36
-52 40 -66 14z"/>
<path d="M6620 6441 c0 -23 7 -46 16 -56 15 -15 9 -16 -92 -9 -93 6 -111 4
-123 -9 -11 -14 -51 -138 -68 -215 -9 -36 21 -59 100 -76 40 -9 79 -21 87 -27
12 -8 10 -9 -7 -4 -18 5 -23 0 -33 -30 -7 -20 -10 -45 -7 -56 6 -23 13 -23
-78 2 -109 30 -123 26 -163 -46 -19 -33 -46 -88 -60 -122 -25 -61 -25 -63 -7
-83 10 -11 22 -20 26 -20 14 0 131 -82 125 -87 -3 -3 -11 -1 -18 5 -19 15 -41
-5 -55 -50 -9 -30 -8 -40 3 -49 8 -7 12 -14 10 -17 -3 -2 -46 21 -96 52 -49
31 -99 56 -109 56 -12 0 -51 -36 -99 -93 -72 -83 -144 -156 -103 -105 16 21 8
48 -14 48 -22 0 -19 9 23 59 21 25 49 66 63 90 l24 43 -39 72 c-61 113 -105
176 -120 176 -8 0 -37 -44 -65 -99 l-51 -99 -45 10 c-48 10 -75 0 -75 -28 0
-18 21 -29 30 -14 5 9 9 8 13 -3 3 -9 18 -14 39 -14 18 1 39 -2 46 -7 16 -9
16 -37 0 -33 -7 1 -14 -9 -16 -22 -2 -15 0 -21 7 -17 6 4 11 0 11 -8 0 -9 5
-16 11 -16 6 0 9 7 5 15 -3 8 -2 15 2 15 4 -1 19 -28 34 -61 15 -33 23 -57 18
-54 -6 4 -10 -1 -10 -9 0 -10 9 -16 26 -16 14 0 23 -4 19 -10 -3 -5 0 -10 8
-10 19 0 38 -23 40 -49 0 -11 5 -17 9 -15 5 3 5 11 1 17 -4 7 1 6 11 -2 9 -8
15 -20 12 -28 -3 -8 -2 -12 3 -9 15 10 43 -31 36 -53 -4 -13 -2 -21 5 -21 6 0
8 -5 4 -12 -5 -9 -2 -9 9 1 16 12 22 8 18 -12 -1 -5 3 -6 8 -3 10 7 67 -61 64
-75 -2 -5 3 -8 10 -6 6 1 11 -5 9 -13 -2 -8 0 -12 4 -8 4 4 22 -6 41 -22 41
-36 53 -37 91 -5 16 13 32 22 36 20 3 -3 4 -2 1 1 -2 4 17 34 43 68 120 154
140 192 123 225 -8 14 -8 21 2 24 6 3 3 5 -8 4 -18 -1 -75 29 -75 40 0 2 4 2
8 -1 5 -3 9 9 10 27 0 17 6 33 12 35 7 3 5 12 -7 26 -9 11 -11 16 -4 9 11 -10
17 -9 26 4 14 18 40 7 40 -17 0 -8 11 -16 25 -18 24 -3 25 -3 5 12 -20 15 -19
15 3 9 18 -4 22 -11 18 -27 -4 -18 -3 -19 7 -6 7 8 22 14 35 12 13 -2 24 3 28
12 3 9 9 14 13 11 4 -2 8 1 8 8 1 20 80 147 87 140 4 -4 4 1 0 11 -6 15 -4 17
6 11 9 -5 11 -4 6 3 -4 7 2 33 13 58 26 59 26 81 1 89 -15 5 -19 12 -15 25 5
15 2 17 -15 13 -17 -4 -18 -8 -8 -14 17 -12 5 -11 -25 0 -21 8 -26 17 -28 59
-3 32 0 48 6 44 14 -10 55 -9 55 0 0 4 -5 8 -12 8 -6 0 -9 3 -5 6 3 3 23 0 44
-7 44 -15 61 -13 86 9 18 16 70 170 85 253 11 55 1 64 -77 75 -28 4 -54 11
-57 15 -3 5 -10 6 -16 3 -6 -4 -4 3 5 16 12 18 13 27 4 49 -24 55 -57 56 -57
2z"/>
<path d="M5705 6305 c-178 -28 -239 -44 -262 -69 -21 -25 -43 -103 -43 -154 0
-56 5 -57 151 -32 189 32 213 44 248 122 16 35 32 82 36 106 7 41 6 42 -22 41
-15 -1 -64 -7 -108 -14z"/>
<path d="M5941 6218 c-16 -35 -36 -87 -46 -117 -20 -62 -20 -63 63 -196 63
-103 81 -125 96 -125 15 0 136 194 136 217 0 21 -102 179 -155 241 -20 23 -43
42 -51 42 -9 0 -27 -26 -43 -62z"/>
<path d="M4514 5048 c-37 -57 -74 -117 -82 -135 -8 -18 -19 -30 -24 -27 -5 4
-4 -3 3 -14 7 -12 15 -20 18 -20 25 2 32 -4 26 -23 -5 -15 -4 -19 4 -15 18 11
13 -9 -8 -33 -19 -22 -20 -22 -38 -4 -10 10 -34 20 -53 21 -19 2 -32 1 -28 -3
4 -4 -1 -20 -11 -34 -10 -14 -32 -51 -48 -82 -34 -63 -31 -79 18 -104 28 -15
29 -16 13 -40 -14 -21 -19 -23 -33 -13 -14 12 -15 11 -2 -5 8 -9 11 -20 8 -23
-8 -8 -36 9 -36 21 0 5 -5 11 -12 14 -8 2 -9 -1 -3 -10 6 -12 5 -12 -8 -1 -13
10 -17 10 -21 0 -4 -10 -8 -10 -16 2 -6 8 -11 13 -12 10 0 -3 -2 -13 -4 -23
-2 -9 1 -15 6 -11 5 3 4 -6 -2 -20 -8 -16 -17 -23 -28 -19 -12 4 -13 3 -3 -4
11 -8 10 -21 -4 -71 -20 -72 -16 -88 28 -101 18 -5 25 -10 16 -10 -9 -1 -20
-5 -23 -11 -3 -5 2 -9 12 -8 35 3 51 -2 57 -18 10 -26 -13 -44 -57 -44 -44 0
-47 9 -4 12 18 2 25 8 24 21 -1 14 -4 15 -12 5 -5 -7 -22 -13 -37 -12 -15 1
-25 -2 -23 -6 2 -3 -5 -14 -16 -23 -10 -9 -19 -25 -18 -34 0 -16 2 -15 9 2 7
17 9 14 9 -13 1 -24 -2 -31 -11 -26 -7 4 -5 -2 5 -13 9 -11 17 -31 17 -44 0
-65 60 -205 116 -272 13 -16 21 -34 18 -39 -4 -6 -3 -8 3 -5 13 8 66 -47 56
-58 -5 -4 -3 -5 3 -2 6 4 20 -1 30 -9 10 -9 13 -12 5 -8 -9 5 -12 3 -7 -5 4
-6 11 -9 16 -6 4 2 23 -6 42 -19 19 -12 53 -31 76 -41 22 -10 39 -22 37 -26
-3 -4 4 -5 15 -2 12 3 20 0 20 -6 0 -7 4 -10 8 -7 4 2 39 -2 77 -11 121 -26
325 4 395 57 28 21 29 16 -28 113 -15 24 -15 29 -2 37 8 6 21 8 28 5 7 -3 16
5 20 16 7 19 14 14 56 -44 30 -41 53 -64 62 -60 7 3 33 23 56 44 24 21 46 39
50 39 5 0 8 6 8 13 0 8 9 22 20 32 27 25 25 40 -10 71 -16 15 -32 35 -35 45
-4 11 -13 19 -21 19 -22 0 -17 38 7 51 17 9 20 8 14 -3 -3 -7 0 -5 8 5 14 17
15 16 20 -3 3 -11 1 -18 -3 -15 -5 3 -11 1 -15 -5 -7 -11 6 -13 29 -4 14 5 14
9 4 23 -7 9 2 3 20 -13 17 -16 29 -33 26 -38 -3 -4 3 -8 13 -8 39 2 157 187
134 213 -8 10 -7 17 2 27 10 12 9 12 -4 2 -12 -9 -20 -7 -40 11 -14 12 -31 23
-39 25 -8 2 -22 10 -30 19 -8 9 -10 13 -3 9 14 -7 47 47 35 58 -3 4 0 4 9 1 8
-3 16 -15 16 -28 2 -15 0 -18 -6 -8 -5 8 -11 9 -15 3 -3 -5 1 -13 10 -16 11
-4 18 1 21 14 5 20 5 20 34 -1 16 -11 26 -25 22 -31 -4 -7 0 -9 10 -5 12 4 14
2 10 -10 -11 -28 32 7 65 53 54 75 132 208 132 226 0 9 -13 25 -29 34 -17 10
-27 22 -24 27 3 6 1 7 -4 4 -13 -8 -155 60 -166 79 -5 8 -13 12 -19 8 -5 -3
-20 -1 -31 5 -42 21 -82 35 -107 36 -43 4 -45 5 -30 16 12 8 10 9 -7 4 -18 -5
-23 -2 -23 11 0 14 -3 15 -12 6 -9 -9 -8 -15 8 -27 18 -14 17 -14 -11 -11 -33
4 -85 22 -85 30 0 3 7 3 15 0 8 -4 15 -1 15 5 0 6 -16 10 -35 9 -43 -2 -47 2
-48 46 -1 26 -6 36 -16 36 -14 0 -14 -1 -1 -10 12 -8 12 -10 1 -10 -11 0 -11
-3 -1 -16 12 -13 10 -14 -13 -3 -15 7 -27 18 -27 25 0 7 -4 14 -10 16 -5 2
-11 13 -13 25 -2 12 -7 26 -11 30 -4 5 -6 1 -4 -7 1 -8 -3 -15 -9 -14 -38 3
-44 5 -39 12 3 5 -5 14 -18 21 -17 10 -21 19 -18 40 4 26 -5 34 -140 123 -161
107 -180 118 -202 118 -9 0 -45 -45 -82 -102z m446 -243 c-20 -22 -90 -154
-90 -170 0 -15 59 -48 74 -42 8 3 36 40 64 81 40 62 52 74 61 62 7 -8 23 -17
38 -21 22 -5 23 -8 10 -18 -16 -13 -87 -139 -87 -156 0 -5 14 -20 31 -32 43
-30 65 -17 114 69 22 40 43 72 46 72 3 0 14 -6 24 -14 17 -13 17 -17 -18 -101
-26 -62 -33 -92 -26 -101 5 -6 50 -38 99 -70 49 -33 90 -63 90 -68 0 -6 -5 -5
-12 2 -19 19 -26 15 -45 -22 l-18 -35 -82 56 c-49 33 -88 53 -97 50 -8 -3 -26
-28 -39 -54 -43 -84 -43 -87 5 -130 85 -77 143 -134 123 -125 -16 9 -22 5 -37
-19 -10 -17 -16 -35 -12 -41 16 -26 -36 16 -96 76 -35 36 -72 66 -82 66 -19 0
-51 -41 -73 -93 -14 -33 -13 -35 41 -115 30 -45 50 -82 45 -82 -5 0 -12 6 -15
13 -6 15 -46 -28 -46 -50 0 -21 -27 14 -74 94 l-36 62 -83 -6 c-125 -9 -167
17 -236 143 l-27 48 -115 22 c-62 12 -107 22 -98 23 9 1 20 16 26 35 9 30 8
35 -11 45 -18 10 -16 11 14 6 117 -16 190 -17 206 -4 27 22 54 90 44 110 -5 9
-57 36 -114 59 -93 37 -104 44 -91 57 18 18 19 45 3 62 -18 18 8 10 151 -46
l114 -44 26 25 c41 39 67 94 55 114 -6 9 -55 43 -110 75 -119 69 -136 81 -114
74 11 -3 19 6 27 29 8 29 7 36 -6 45 -12 8 -10 8 9 3 29 -7 158 -76 210 -111
19 -12 42 -23 51 -23 20 0 79 64 120 130 l31 50 28 -22 c27 -22 27 -24 10 -43z"/>
<path d="M4762 4484 c-16 -19 -35 -47 -43 -61 -12 -23 -11 -27 15 -50 16 -13
35 -23 44 -21 9 2 31 29 49 61 34 61 33 87 -3 101 -26 10 -31 8 -62 -30z"/>
<path d="M2473 5075 c-35 -8 -76 -21 -93 -30 -17 -9 -35 -13 -40 -10 -6 3 -20
-1 -32 -9 -12 -9 -17 -16 -11 -16 7 0 15 5 18 10 3 6 12 10 18 10 7 0 -17 -19
-53 -41 -72 -46 -164 -122 -223 -186 -22 -24 -44 -40 -50 -36 -6 3 -7 1 -3 -6
4 -6 -5 -28 -22 -49 -45 -57 -57 -83 -42 -92 7 -5 10 -15 7 -23 -4 -10 1 -13
19 -11 13 1 24 -1 24 -4 -1 -19 -19 -28 -53 -27 -21 1 -40 -2 -43 -7 -3 -5
-10 -5 -16 -2 -7 5 -9 1 -5 -9 9 -24 -49 -69 -82 -64 -14 2 -20 2 -13 0 6 -3
12 -9 12 -14 0 -5 7 -9 15 -9 8 0 15 5 15 12 0 6 3 9 6 5 3 -3 -11 -34 -32
-69 -22 -34 -45 -74 -52 -88 -7 -14 -10 -17 -7 -7 3 11 1 16 -6 12 -6 -4 -8
-13 -5 -21 7 -17 -12 -71 -37 -107 -19 -28 -19 -29 -1 -26 11 2 33 -4 49 -14
17 -9 23 -16 15 -17 -13 0 -13 -1 0 -10 10 -6 11 -10 3 -10 -7 0 -12 -6 -10
-12 1 -7 -4 -12 -10 -11 -16 4 -17 -9 -2 -24 15 -15 -1 -22 -26 -12 -11 4 -14
8 -7 8 23 2 12 21 -13 21 -14 0 -25 -4 -25 -10 0 -5 -9 -10 -20 -10 -11 0 -20
-7 -20 -15 0 -22 -30 -65 -45 -65 -7 0 -16 6 -18 13 -4 9 -6 9 -6 -1 -1 -8 7
-16 17 -19 18 -4 17 -9 -9 -82 -15 -42 -30 -102 -34 -133 -7 -55 -7 -57 15
-51 16 4 21 3 16 -5 -8 -13 -6 -14 49 -16 22 -1 87 -15 143 -31 77 -21 108
-26 120 -18 18 11 49 87 78 191 17 61 17 64 -2 82 -10 10 -55 33 -99 50 -71
29 -133 63 -80 44 11 -4 17 -4 13 0 -3 4 1 28 9 52 12 36 13 47 2 60 -14 18
-5 14 124 -48 86 -42 116 -46 139 -20 24 26 108 199 108 221 0 11 -30 46 -72
83 -40 36 -89 79 -108 96 -31 28 -32 31 -14 32 43 0 71 62 44 95 -13 17 -13
18 0 10 31 -18 131 -95 183 -139 30 -25 60 -46 66 -46 7 0 40 20 74 44 104 73
164 99 232 100 123 1 198 -64 256 -226 17 -48 37 -89 45 -92 7 -3 46 1 86 8
123 23 158 27 158 17 0 -5 -6 -9 -12 -8 -41 1 -48 -4 -48 -34 0 -48 16 -70 48
-64 15 2 9 -2 -13 -9 -22 -8 -50 -15 -62 -15 -45 -2 -124 -23 -138 -38 -19
-19 -22 -262 -3 -281 8 -8 53 -12 137 -12 71 0 120 -4 113 -9 -7 -4 -24 -6
-37 -3 -20 3 -25 -1 -34 -34 -15 -53 -14 -61 7 -73 12 -8 -9 -10 -80 -11 -91
0 -98 -1 -117 -26 -21 -27 -35 -102 -35 -199 l-1 -60 84 -22 c86 -23 109 -33
73 -33 -24 0 -31 -22 -21 -67 6 -30 5 -33 -17 -33 -13 0 -55 5 -94 12 -65 11
-72 11 -90 -7 -23 -25 -100 -213 -93 -231 2 -7 41 -27 86 -45 85 -33 123 -56
75 -44 -32 8 -50 -18 -50 -71 0 -19 -2 -34 -4 -34 -1 0 -39 16 -83 35 -43 19
-83 35 -88 35 -14 0 -66 -58 -108 -120 -20 -30 -38 -56 -40 -58 -2 -2 -12 5
-23 16 l-21 21 35 71 c19 39 34 82 34 94 0 12 -21 49 -47 82 -27 32 -61 77
-77 99 -30 41 -45 55 -58 55 -13 0 -49 -80 -68 -153 -10 -40 -19 -64 -19 -54
-1 24 -86 24 -113 0 -10 -9 -18 -11 -18 -5 0 6 9 16 19 22 14 7 26 40 46 121
14 61 24 113 21 116 -6 6 -52 -9 -183 -59 -119 -46 -118 -44 -118 -174 0 -72
-2 -80 -17 -76 -10 2 -20 -3 -24 -12 -13 -33 -21 -14 -28 62 -15 163 -22 171
-159 173 -90 1 -166 16 -92 18 l40 1 -3 54 c-3 49 -7 56 -30 66 -26 10 -26 10
-2 6 70 -13 228 -18 234 -8 10 16 36 171 36 213 0 20 -6 41 -12 46 -7 6 -55
23 -106 38 -51 16 -88 31 -83 34 16 10 24 77 12 100 -18 32 -43 27 -39 -8 3
-32 -16 -61 -41 -62 -12 0 -12 -2 4 -10 13 -6 -1 -7 -44 -3 -50 5 -62 4 -56
-7 6 -8 4 -11 -6 -7 -10 4 -14 -2 -15 -21 -2 -47 -27 -181 -35 -181 -4 0 -6
-8 -4 -17 2 -10 7 -35 10 -55 5 -34 9 -38 38 -39 33 -1 92 -16 70 -18 -7 -1
-10 -8 -7 -16 3 -8 11 -13 17 -12 7 1 11 -5 9 -13 -2 -8 -4 -26 -4 -41 -1 -19
-6 -26 -17 -24 -9 1 -23 -4 -33 -12 -11 -10 -18 -11 -23 -3 -5 8 -11 8 -19 0
-7 -5 -24 -11 -37 -12 -23 -2 -25 -6 -28 -68 -1 -36 -7 -67 -12 -68 -5 -2 -6
-8 -3 -14 4 -6 6 -55 5 -110 -2 -108 8 -138 43 -138 13 0 95 18 182 39 88 22
174 42 192 46 20 4 32 13 32 23 0 10 3 13 8 7 4 -5 29 -12 56 -13 41 -3 48 -1
43 12 -7 18 46 51 65 40 7 -4 8 -3 4 4 -4 7 8 18 31 28 47 20 93 24 93 8 0
-14 42 -13 53 1 4 6 10 5 16 -4 5 -8 16 -11 24 -8 9 3 23 -3 34 -15 10 -12 12
-18 6 -14 -9 5 -13 0 -13 -13 0 -12 5 -21 11 -21 5 0 7 -4 4 -10 -3 -6 1 -7
10 -4 13 5 13 9 3 23 -12 14 -11 14 4 2 10 -7 16 -17 13 -21 -3 -4 2 -11 11
-14 9 -4 14 -13 10 -22 -3 -8 -2 -13 3 -10 12 8 38 -24 46 -57 8 -32 14 -36
49 -39 17 -2 25 -8 23 -17 -1 -9 3 -16 8 -16 15 0 110 -96 107 -107 -1 -5 1
-7 6 -4 11 6 118 -82 114 -94 -1 -6 4 -9 10 -8 7 2 12 -3 10 -10 -1 -8 2 -11
7 -8 5 3 23 -2 40 -11 l30 -18 30 35 c16 19 50 74 77 122 26 48 51 85 57 81 6
-3 7 -1 4 4 -4 6 0 27 8 47 22 52 19 59 -36 84 -27 13 -46 28 -43 34 4 7 -2 8
-17 3 -13 -4 -21 -4 -16 0 4 5 17 9 30 10 15 1 23 9 24 26 1 13 0 18 -3 12 -3
-7 -13 -13 -21 -13 -12 0 -13 3 -4 13 6 8 7 18 3 22 -4 5 -1 5 6 1 6 -4 19 0
28 8 14 14 12 15 -18 11 l-33 -5 30 10 c29 9 99 -6 90 -19 -1 -3 16 -6 40 -6
24 0 43 2 42 5 -1 3 14 42 33 87 23 57 37 79 43 70 6 -8 7 -6 3 7 -4 11 1 41
11 68 21 60 13 76 -46 96 -40 13 -42 15 -39 54 1 25 -3 43 -13 49 -15 10 46 3
63 -7 4 -3 8 -1 8 5 0 5 -19 13 -42 17 -24 4 -38 9 -32 11 7 2 39 -2 72 -10
35 -8 66 -10 75 -5 19 10 42 79 62 182 28 148 17 176 -72 176 -49 0 -50 1 -47
28 2 15 5 40 6 55 1 22 6 28 22 26 34 -2 42 2 21 11 -17 7 -14 9 13 9 20 1 31
-3 27 -9 -10 -16 4 -12 35 10 15 11 29 18 31 16 2 -3 5 8 5 22 1 15 3 74 6
132 5 121 -3 216 -18 213 -6 -1 -29 -4 -52 -7 -23 -3 -47 -8 -53 -11 -19 -12
-36 15 -37 58 l-1 43 61 11 c34 7 65 18 70 25 5 7 5 40 1 73 -4 33 -7 77 -7
97 0 21 -2 35 -5 32 -5 -5 -72 200 -74 228 -1 9 -4 15 -8 13 -10 -7 -30 45
-23 58 4 7 4 9 -1 5 -10 -9 -85 94 -77 107 3 6 2 7 -3 3 -4 -4 -26 8 -47 28
-22 20 -60 48 -84 64 -25 15 -41 30 -37 32 4 3 3 4 -3 2 -6 -1 -42 9 -79 22
-86 31 -241 40 -332 19z"/>
<path d="M2459 4384 c-86 -63 -227 -206 -235 -239 -11 -44 6 -51 89 -35 178
33 188 30 325 -103 117 -115 120 -113 105 56 -18 191 -58 311 -116 352 -12 8
-40 15 -63 15 -34 0 -54 -9 -105 -46z"/>
<path d="M2245 3951 c-153 -46 -180 -67 -214 -161 -35 -96 -35 -99 -8 -111 32
-15 294 51 318 81 17 20 59 161 59 198 0 30 -40 28 -155 -7z"/>
<path d="M2487 3878 c-67 -187 -69 -177 61 -310 59 -60 119 -116 134 -124 l27
-14 17 52 c9 29 18 85 21 125 l6 72 -54 58 c-110 120 -174 183 -185 183 -7 0
-19 -19 -27 -42z"/>
<path d="M2145 3569 c-49 -10 -115 -31 -145 -47 -52 -26 -56 -30 -73 -87 -10
-33 -19 -89 -20 -125 l-2 -65 30 3 c38 4 254 79 278 96 17 13 67 183 67 227 0
24 -17 23 -135 -2z"/>
<path d="M2390 3500 c-19 -35 -50 -144 -50 -177 0 -25 17 -51 83 -129 45 -53
91 -108 102 -121 12 -15 26 -22 36 -18 17 6 89 159 89 189 0 17 -71 105 -169
209 -61 64 -77 73 -91 47z"/>
<path d="M1296 2155 c8 -4 4 -24 -12 -63 -13 -31 -31 -85 -40 -119 -10 -36
-21 -60 -27 -56 -6 3 -7 1 -3 -6 4 -6 3 -18 -3 -25 -19 -23 -1 -44 42 -52 23
-4 36 -9 30 -11 -16 -6 -17 -43 -2 -43 5 0 7 -5 4 -10 -4 -6 -11 -8 -16 -5 -5
4 -9 1 -9 -5 0 -6 -10 -8 -23 -5 -33 9 -54 -19 -71 -93 -17 -73 -16 -69 -16
-84 0 -6 -7 -3 -15 8 -14 18 -14 18 -8 -3 3 -13 9 -23 13 -23 4 0 10 -9 13
-21 3 -12 10 -18 16 -15 5 4 15 0 22 -7 7 -7 23 -12 35 -9 18 3 22 0 19 -14
-2 -11 -4 -20 -5 -21 -2 -2 -3 -9 -4 -15 0 -7 -14 -14 -30 -16 -19 -3 -25 -6
-17 -12 9 -5 1 -10 -22 -14 -24 -5 -38 -14 -43 -28 -8 -27 -8 -104 1 -155 7
-47 19 -53 92 -46 30 3 43 1 35 -4 -10 -7 -8 -13 7 -27 17 -16 18 -20 6 -32
-9 -10 -23 -12 -41 -8 -19 5 -25 4 -20 -5 5 -7 -4 -11 -28 -11 -19 0 -38 -5
-42 -12 -5 -8 -2 -9 9 -5 17 6 17 6 21 -66 1 -10 6 -21 12 -25 19 -12 45 -72
37 -85 -4 -7 -8 -21 -8 -32 0 -11 -5 -27 -10 -35 -8 -13 -7 -13 8 -1 9 7 14
17 11 22 -3 5 0 9 7 9 9 0 9 3 0 14 -8 9 -8 16 -2 20 5 4 19 -7 30 -23 23 -31
27 -46 11 -36 -5 3 -10 1 -10 -5 0 -7 6 -10 14 -7 17 7 39 -16 28 -28 -4 -5
-2 -5 4 -2 14 8 37 -17 26 -28 -4 -5 -2 -6 3 -2 13 7 40 -8 40 -23 0 -5 3 -10
8 -10 17 1 67 -35 68 -50 0 -9 2 -11 6 -3 3 10 9 10 24 0 10 -6 19 -15 19 -20
0 -4 -5 -5 -12 -1 -7 5 -8 3 -3 -5 5 -9 10 -10 18 -2 7 7 21 5 46 -6 53 -23
132 -43 169 -43 17 0 32 -4 32 -8 0 -11 173 14 230 33 25 9 69 29 99 45 29 16
58 27 64 23 5 -3 7 -1 4 4 -8 13 16 35 34 31 8 -2 13 2 12 9 -2 6 9 21 22 31
30 24 32 43 5 67 -11 10 -17 22 -14 26 3 5 -2 9 -11 9 -23 0 -60 31 -61 52 -1
10 2 15 7 12 5 -3 9 -11 9 -19 0 -8 4 -17 10 -20 5 -3 7 0 5 7 -8 21 19 52 39
45 10 -4 15 -11 11 -16 -9 -15 16 -24 28 -11 10 10 8 11 -8 6 -15 -6 -17 -4
-8 5 17 17 28 5 27 -33 -1 -20 -6 -32 -14 -30 -6 1 -9 -2 -5 -8 5 -8 11 -8 21
1 7 6 11 15 8 20 -3 6 10 8 30 6 20 -2 36 -1 36 3 0 5 15 31 34 59 19 28 40
67 47 86 7 19 17 35 22 35 5 0 4 6 -2 13 -6 8 -9 16 -6 19 3 2 -1 5 -9 5 -24
0 -106 34 -106 44 0 6 4 7 10 4 6 -3 7 1 4 10 -4 10 1 22 12 30 11 8 14 14 7
15 -7 0 -13 4 -13 9 0 5 9 7 20 4 11 -3 20 -12 20 -19 0 -8 8 -14 18 -14 15 0
15 2 2 11 -12 9 -11 10 5 4 39 -14 49 -10 66 25 14 29 17 31 21 15 4 -20 8 22
11 124 l2 55 -55 16 c-36 11 -50 19 -40 23 8 4 -1 4 -20 1 -19 -4 -32 -3 -28
1 4 5 3 14 -3 21 -9 11 -5 16 16 24 34 13 33 13 38 -7 4 -16 5 -16 6 -2 1 22
25 31 54 21 12 -5 28 -7 35 -6 6 1 19 2 27 3 8 0 12 7 9 15 -3 9 3 17 15 21
12 3 18 11 15 17 -4 6 -10 5 -16 -3 -10 -15 -11 -20 21 101 12 41 25 96 29
122 l9 47 -39 15 c-21 9 -47 16 -58 16 -11 0 -20 7 -20 15 0 8 -5 15 -11 15
-5 0 -7 -4 -4 -10 3 -6 -4 -10 -17 -10 -16 0 -19 3 -10 9 10 6 8 10 -10 14
-33 9 -47 7 -23 -3 18 -8 17 -9 -8 -9 -16 -1 -26 3 -23 8 3 5 -48 9 -114 10
-66 1 -119 -2 -118 -6 1 -5 -2 -18 -6 -31 -7 -22 -9 -23 -27 -6 -18 16 -19 15
-29 -10 -14 -37 -13 -39 10 -33 11 3 20 1 20 -5 0 -5 5 -6 12 -2 8 5 9 -7 5
-44 -4 -29 -10 -74 -13 -100 l-6 -49 41 -16 c22 -9 73 -24 113 -34 42 -10 64
-19 51 -21 -30 -5 -60 -51 -42 -63 22 -14 -5 -11 -94 8 -75 16 -80 16 -92 0
-17 -23 -39 -137 -28 -147 4 -5 55 -27 113 -51 58 -24 98 -45 89 -47 -10 -2
-19 -11 -22 -20 -3 -9 -8 -25 -12 -34 -5 -13 -1 -20 16 -27 13 -5 19 -10 12
-10 -6 -1 -52 19 -102 44 -111 55 -127 56 -147 10 -23 -56 -18 -81 22 -112 76
-59 110 -92 88 -87 -24 6 -48 -35 -37 -63 8 -22 -43 15 -99 71 -20 20 -43 36
-51 36 -8 0 -35 -11 -58 -25 -87 -49 -198 -26 -277 58 -20 21 -46 42 -57 47
-12 4 -58 0 -115 -11 -90 -17 -138 -23 -114 -13 12 5 7 52 -7 70 -7 8 17 16
78 29 49 9 98 19 111 21 27 6 52 56 52 108 0 42 -8 44 -152 53 -60 3 -108 8
-108 10 0 2 5 12 12 22 9 15 9 25 0 45 l-12 26 68 0 c37 0 95 -6 130 -14 74
-15 85 -10 107 53 19 54 19 95 1 110 -7 6 -71 26 -142 44 -71 17 -119 33 -108
35 32 5 39 60 10 73 -41 17 79 -3 159 -28 137 -42 129 -43 159 21 15 31 32 82
38 113 10 47 13 53 20 34 4 -13 17 -25 28 -28 13 -4 19 -11 16 -22 -23 -77
-46 -183 -42 -190 4 -5 22 -15 42 -21 27 -9 38 -9 49 0 17 14 56 132 57 174 1
23 3 26 12 15 6 -8 20 -19 31 -25 21 -12 21 -15 5 -109 -12 -72 -1 -88 61 -89
42 -1 43 0 56 44 7 25 15 67 17 95 4 46 2 51 -25 67 -16 10 -36 15 -44 12 -8
-4 -21 -1 -29 5 -7 6 -16 8 -19 4 -4 -3 -7 0 -7 8 0 11 -2 11 -8 2 -7 -10 -14
-10 -35 0 -15 6 -27 15 -27 19 0 4 -17 10 -37 14 -45 8 -63 24 -63 56 0 13 -4
19 -8 13 -4 -5 -14 -11 -22 -13 -12 -3 -13 -1 -2 9 14 15 16 33 3 25 -5 -3
-12 1 -15 9 -3 8 -9 14 -13 13 -15 -5 -92 25 -87 34 3 5 2 7 -3 6 -22 -6 -103
14 -97 24 4 6 3 8 -3 5 -6 -4 -48 4 -94 17 -115 31 -136 37 -123 31z"/>
</g>
</svg>
